<?xml version="1.0" encoding="utf-8"?>
<!-- Generator: Adobe Illustrator 24.1.2, SVG Export Plug-In . SVG Version: 6.00 Build 0)  -->
<svg version="1.1" id="Camada_1" xmlns="http://www.w3.org/2000/svg" xmlns:xlink="http://www.w3.org/1999/xlink" x="0px" y="0px"
	 viewBox="0 0 347.7 347.7" style="enable-background:new 0 0 347.7 347.7;" xml:space="preserve">
<style type="text/css">
	.st0{fill:none;}
	.st1{fill:#1D1D1B;}
</style>
<rect class="st0" width="347.7" height="347.7"/>
<path class="st1" d="M91.5,196c0.3,17.2-7.8,30.6-22.4,39.4c-4.9,2.9-11.4,3.5-17.3,4.3c-4.7,0.6-9.6-0.1-14.3,0.1
	c-3.2,0.2-6.3,0.5-9.5,1.2c-4.3,0.8-6.6-0.6-6.7-5c-0.3-10.1-0.2-20.2-0.4-30.4c-0.3-12.6-0.7-25.3-1-37.9
	c-0.6-23.9-1.3-47.7-1.9-71.6c-0.2-6.8-0.5-13.6-1-20.3c-0.2-3.1,0.8-4,3.8-4.1c5.5-0.1,11-0.5,16.6-0.8c0-0.2,0-0.3,0-0.5
	c8.1,0.2,16.3-0.2,24.4,0.6c10.7,1.1,19,7.6,22.6,19.6c5.4,17.9,1.8,34.2-9.9,48.6c-2.6,3.2-6.3,5.6-9.6,8.1
	c-1.9,1.5-1.5,2.4,0.4,3.4C83.2,160.3,91.1,176.3,91.5,196z M28.2,205.7c0-0.1,0.1-0.3,0.1-0.4c-0.3,0.1-0.5,0.1-0.7,0.3
	c-0.1,0,0,0.3,0,0.4L28.2,205.7z M26.9,193.4l1.1,0.4c-0.2-0.2-0.5-0.4-0.7-0.5C27.3,193.1,27.1,193.3,26.9,193.4L26.9,193.4z
	 M26.6,184c0.1,0.5,0.2,0.9,0.5,1.4l1.1-0.7l-0.8-1.6C27.1,183.3,26.6,183.6,26.6,184L26.6,184z M25.7,164.4l2.5,1
	c0.5,1.3,1,2.5,1.5,3.8c1.8-3.1,2.9,1.2,4.5,0.5c0.6-0.3,1.2-0.5,1.8-0.8c-0.5-0.4-0.8-0.9-1.3-1.1c-1.6-0.6-4.5,0.7-4.2-2.7
	l-2.3,0.3c-0.6-0.5-1.2-1-1.9-1.4C26.3,163.8,25.9,164.2,25.7,164.4L25.7,164.4z M27.5,187.6l-0.4,0.2c0,0.1,0,0.3,0.1,0.3
	c0.1,0,0.3,0.1,0.4,0.1C27.6,187.9,27.6,187.7,27.5,187.6L27.5,187.6z M24.8,142.7h0.7l-0.2-0.4c-0.1,0-0.4-0.1-0.4,0
	S24.8,142.5,24.8,142.7L24.8,142.7z M29.9,218.2c-0.2-0.1-0.3-0.2-0.5-0.3c-0.1,0-0.2,0.1-0.3,0.1L29.9,218.2z M28.2,195.5
	c0.2-0.1,0.3-0.2,0.5-0.3l-0.8,0.2C28,195.4,28.1,195.5,28.2,195.5L28.2,195.5z M28.2,198.9c0.7,0.1,1.3,0.1,2,0.1
	c0.2,0,0.3-0.5,0.7-1.2c-0.7,0.1-1.5,0.3-2.2,0.5C28.6,198.3,28.4,198.6,28.2,198.9L28.2,198.9z M27.6,179.8c0.1,0,0.3,0.1,0.4,0.1
	c0.2-0.2,0.5-0.5,0.7-0.7L27.6,179.8z M28.6,194.1l0.4,0.8c0.2-0.2,0.4-0.4,0.6-0.6L28.6,194.1z M29.6,208.8
	c0.3,0.3,0.8,0.7,0.9,0.7c0.9-0.7,1.8-1.5,2.7-2.2l-0.9-0.5L29.6,208.8z M26.5,146.7l0.7-0.1c-0.1-0.3-0.1-0.6-0.3-1.1
	c-0.2,0.2-0.3,0.5-0.5,0.8C26.4,146.3,26.5,146.5,26.5,146.7L26.5,146.7z M33.2,219.3c0-0.7-0.1-1.4-0.1-2.1l-2.8,1.1
	C31,219.6,31.8,220.5,33.2,219.3L33.2,219.3z M27.2,159.8l0.5,0.6l1-1.7L27.2,159.8z M29.5,169.6l0.2-0.3l-1.7-0.7
	c0,0.3-0.1,0.6-0.1,0.9l1.7,0.1L29.5,169.6z M25.1,114.1c0.6,0.2,1.1,0.4,1.8,0.5c0.2,0,0.6-0.5,0.6-0.7c-0.1-0.4-0.2-0.8-0.4-1.2
	L25.1,114.1z M26.6,121.2l-0.4-0.2l-0.7,0.7c0.1,0.1,0.4,0.2,0.5,0.2C26.2,121.7,26.4,121.4,26.6,121.2L26.6,121.2z M29.5,172.7
	l-0.8,0.8l0.5,0.2C29.3,173.3,29.4,173,29.5,172.7L29.5,172.7z M32.3,186.7c-0.3-0.1-0.8-0.4-1-0.2c-0.6,0.4-1.1,0.9-1.6,1.4
	c0,0,0.3,0.4,0.3,0.4C30.7,187.7,31.5,187.1,32.3,186.7L32.3,186.7z M28.4,150.1l-0.8,0.3c0.1,0,0.3,0.1,0.4,0.1
	C28.1,150.3,28.3,150.2,28.4,150.1L28.4,150.1z M25.1,102.3l0.4,0.2c0.1-0.2,0.1-0.3,0.2-0.5h-0.4C25.2,102,25.1,102.1,25.1,102.3
	L25.1,102.3z M36.7,229.4c-0.9-0.8-1.9-1.6-2.8-2.5c-0.4-0.6-0.8-1.2-1-1.8c-0.4,0.8-1.1,1.6-1.1,2.4
	C31.9,229.4,33.8,230.1,36.7,229.4z M26.5,128.3c0,0.2,0.1,0.3,0.1,0.5c0.1-0.3,0.1-0.5,0.1-0.6C26.7,128.3,26.5,128.3,26.5,128.3z
	 M30.8,178.4c-0.1-0.1-0.3-0.4-0.3-0.3c-0.3,0.2-0.6,0.4-1,0.6L30.8,178.4z M30.6,183.3l-0.5,0.8c0.2,0.1,0.5,0.2,0.7,0.2
	c0.1-0.1,0.2-0.2,0.2-0.4C30.9,183.7,30.8,183.5,30.6,183.3z M28.7,136.7l-1-0.5l-0.1,0.4L28.7,136.7z M32.3,212.2
	c-0.1,0-0.2,0.2-0.3,0.3l0.9,0.1C32.7,212.4,32.5,212.3,32.3,212.2z M29,149c0,0.3-0.1,0.5-0.1,0.8l0.7-0.4L29,149z M29.1,137
	c-0.2,1.7-0.4,3.4-0.6,5.2c0,0.3,0.2,0.6,0.3,0.9c0.2-1.8,0.5-3.5,0.7-5.3C29.5,137.4,29.3,137.2,29.1,137L29.1,137z M35.3,218
	c-0.2-1.3-0.7-1.9-2-0.9L35.3,218z M33.4,219.4c0.7,2.3,1.3,0.5,1.9-0.1L33.4,219.4z M30.5,151.9L30,152c0,0.1,0.1,0.3,0.2,0.4
	c0,0,0.2,0,0.3-0.1L30.5,151.9z M32.7,200l0.4-0.1l-0.2-0.4C32.8,199.6,32.7,199.8,32.7,200z M33.7,212.9c0.3,0.3,0.5,0.6,0.8,0.9
	c0,0,0.3-0.1,0.4-0.2L33.7,212.9z M32.4,162.7c-0.4,0.6-0.9,1.2-1.3,1.9c0.4-0.3,0.9-0.7,1.3-1C32.4,163.3,32.3,163,32.4,162.7
	L32.4,162.7z M33,195.7l0.7,0.4c0.1-0.5,0.2-1,0.3-1.4L33,195.7z M33,177.4c0-0.4-0.1-0.7-0.1-1.1l-0.5,1L33,177.4z M32.9,182.8
	l1.5-0.1c0.1-0.3,0.2-0.5,0.2-0.8L32.9,182.8z M36.9,207.8l-2.5,2.6c0.9,0.2,2,0.9,2.7,0.6C39.8,210.1,36.5,209,36.9,207.8
	L36.9,207.8z M28.9,104.8c0,0.1,0.2,0.3,0.3,0.5l1.1-1.3c-0.5,0-0.8-0.1-0.8,0C29.2,104.3,29,104.6,28.9,104.8L28.9,104.8z
	 M34.4,162.1c-0.1-4-0.1-4-2.3-3c0.1,0.8,0.2,1.5,0.3,2.3v1L34.4,162.1c0,0.5,0.1,1,0.1,1.5C34.5,163.1,34.5,162.6,34.4,162.1
	L34.4,162.1z M37.5,218.3l-2-0.1c0,0.3,0,0.6,0,0.8L37.5,218.3z M32.6,163.6l0.9,1.4c0.3-0.4,0.7-0.9,1-1.3L32.6,163.6z M31.5,140.6
	c0,0.1,0.1,0.3,0.2,0.4c0.1-0.1,0.3-0.2,0.3-0.3s-0.1-0.2-0.2-0.4C31.7,140.4,31.5,140.5,31.5,140.6L31.5,140.6z M30.8,121.3
	l-0.1-0.3l-0.1,0.4L30.8,121.3z M34.6,150.7l-1.7-2.1c-0.2,0.4-0.7,0.8-0.6,1.1c0.3,1.1,0.7,2.2,1.1,3.3L34.6,150.7L34.6,150.7z
	 M40.4,230c-0.4-0.4-0.8-1.3-1.2-1.3c-0.8,0.1-1.6,0.3-2.3,0.7c0.5,0.3,1.1,0.6,1.7,0.7C39.2,230.2,39.8,230.2,40.4,230L40.4,230z
	 M31,114.5l0.3,0.1c0.1-0.1,0.1-0.3,0.1-0.4c0,0-0.2-0.1-0.3-0.1C31.1,114.2,31.1,114.3,31,114.5z M35.2,183.3
	c0.1,0,0.2-0.1,0.4-0.1l-0.8-0.3C34.9,183.1,35,183.2,35.2,183.3L35.2,183.3z M37.5,224.9l0.4,0.1v-0.3L37.5,224.9z M33.5,146.6
	c0,0,0.2,0.2,0.2,0.4c0.2-0.2,0.4-0.4,0.6-0.6c0-0.1-0.1-0.3-0.2-0.4C33.9,146.1,33.7,146.4,33.5,146.6L33.5,146.6z M38.8,206.9
	l-0.5-0.7l-1.3,1.6l0,0L38.8,206.9z M36.2,187c0,0.1,0.2,0.3,0.3,0.4l1.2-0.9l-0.7-0.6C36.7,186.2,36.4,186.6,36.2,187z M38.1,192.8
	c0-0.3,0-0.6,0-0.9l-1.6,0.5L38.1,192.8z M36.8,195.6c0,0,0.3,0,0.3,0c0-0.2,0-0.5,0-0.7l-0.4,0.3C36.8,195.3,36.8,195.4,36.8,195.6
	L36.8,195.6z M38.2,217.3L38,218c0.1-0.1,0.3-0.3,0.4-0.4S38.3,217.3,38.2,217.3L38.2,217.3z M36.9,175.7c-0.1-0.1-0.2-0.1-0.3-0.2
	c-0.2,0-0.3,0-0.5,0c0.1,0.1,0.2,0.3,0.3,0.4S36.8,175.7,36.9,175.7L36.9,175.7z M35,150.8l1,0.4c0-0.1,0-0.3,0.1-0.4L35,150.8z
	 M36.8,178.9c0,0.3,0,0.6,0,0.9l0,0C36.8,179.5,36.8,179.3,36.8,178.9L36.8,178.9z M38.4,198.8c-0.1,0.6-0.3,1.2-0.4,1.8
	c0.1,0,0.3-0.1,0.4-0.1C38.4,199.9,38.4,199.4,38.4,198.8L38.4,198.8z M38.4,198.5L38.4,198.5L38.4,198.5L38.4,198.5z M36.8,144.2
	c-0.1-0.1-0.3-0.1-0.4-0.2c-0.1,0.1-0.2,0.3-0.2,0.4s0.3,0.1,0.4,0.2L36.8,144.2z M42.9,226.5l-1.3,0.3c0.1,0.1,0.3,0.2,0.4,0.2
	C42.3,226.8,42.6,226.7,42.9,226.5L42.9,226.5z M38.1,153.1c0.2,0,0.3,0,0.5,0c0.1-0.5,0.2-1,0.2-1.5
	C38.6,152.2,38.4,152.7,38.1,153.1L38.1,153.1z M42.7,220.6l-0.6,0.2c0,0.1,0.1,0.3,0.2,0.4c0,0,0.2-0.1,0.3-0.1
	S42.7,220.7,42.7,220.6L42.7,220.6z M44.4,232.9c-0.1-0.1-0.2-0.3-0.2-0.4l-0.7,0.6c0.1,0.1,0.3,0.3,0.3,0.3
	C44,233.2,44.2,233.1,44.4,232.9L44.4,232.9z M40.4,148.9c-0.3-0.6-0.7-1.3-1-1.9C39.2,148,38.1,149.4,40.4,148.9L40.4,148.9z
	 M40.5,149l-1.3,2C40.4,151,42.1,151.2,40.5,149L40.5,149z M40.9,142.2c3.2,1.1,3.8-2.8,5.4-4.7c8.8-10.5,14.8-23.2,17.3-36.8
	c1.1-5.6-0.9-9.4-5-12.5c-4.9-3.7-10.5-5.9-16.9-5.4c-5.8,0.4-6.2,0.7-5.7,6.3c1,11.2,2.1,22.3,3.2,33.5h-0.3
	c0.2,4.3,0.4,8.6,0.7,12.8C39.8,137.8,39.8,141.8,40.9,142.2L40.9,142.2z M39.4,146.9L39.4,146.9L39.4,146.9z M45.5,228.7
	c-0.3,0-0.5,0-0.6,0.1c-0.2,0.3-0.4,0.6-0.5,0.9c0.2,0.1,0.7,0.2,0.7,0.2C45.3,229.5,45.4,229.1,45.5,228.7L45.5,228.7z M65.8,188.4
	c0-8.9-2.6-16.3-8.9-22c-3.8-3.2-7.7-6.3-11.9-9c-0.5-0.3-2.2,0.4-2.7,1.1s-0.3,2.1-0.2,3.1c1.2,14.5,2.3,29.1,3.6,43.6
	c0.3,3.4,0.8,6.7,1.5,10c0.8,4.1,2.9,4.7,6.2,2.2C63.3,209.9,67.2,200,65.8,188.4L65.8,188.4z M46.8,225.5l-0.4-0.1v0.5
	c0.1,0,0.3-0.1,0.4-0.1C46.8,225.7,46.8,225.5,46.8,225.5L46.8,225.5z M47.4,149c0.1-0.8,0.2-1.6,0.3-2.4c-0.6,0.4-1.3,0.8-1.9,1.1
	c0,0.5-0.1,1-0.2,1.4c-0.4,0.6-0.8,1.2-1.2,1.8c0.7-0.3,1.4-0.6,2.1-1C46.9,149.7,47.2,149.4,47.4,149L47.4,149z M45.4,147.6
	c-0.1-0.1-0.2-0.3-0.3-0.4s-0.2,0-0.3,0.1L45.4,147.6z M50.1,231.6l-0.3,0.1l0.3,0.1L50.1,231.6z M53.1,227.4c0.2,0,0.5-0.6,0.5-0.6
	c-0.4-0.5-0.8-0.9-1.2-1.4l-0.7,1.9C52.1,227.4,52.6,227.4,53.1,227.4L53.1,227.4z M54.1,229.9l-0.7-0.6c-0.1,0.3-0.2,0.5-0.3,0.8
	c0,0.1,0.3,0.4,0.4,0.3C53.7,230.2,53.8,230,54.1,229.9L54.1,229.9z M49.6,152.7l-0.2,0.5h0.3L49.6,152.7z M50.3,141.7L50.3,141.7
	l0.5,0.7L50.3,141.7z M51.7,150c-0.1,0.3-0.2,0.6-0.3,0.9c0,0.1,0.2,0.2,0.4,0.3c0.1-0.3,0.2-0.6,0.3-0.9
	C52.1,150.3,51.8,150.1,51.7,150z M54.3,143.3l-2.3,1.1l3.1,0.4C54.8,144.3,54.5,143.8,54.3,143.3L54.3,143.3z M58,227.4l-0.2-0.4
	c-0.2,0-0.3,0-0.4,0s0,0.3,0,0.4L58,227.4z M55,137.1l-1.1,0.4c0.2,0,0.4,0,0.6,0C54.6,137.4,54.8,137.2,55,137.1z M60.4,225.7
	L60.4,225.7l0.8-2.4c-0.2-1.1-0.3-2.3-0.4-3.4C58.9,221.7,58.5,223.6,60.4,225.7L60.4,225.7z M60.7,230.3V230l-0.4,0.2L60.7,230.3z
	 M63.3,226.3c-0.4-0.3-0.9-0.7-1.3-0.8c-0.5,0-0.9,0.1-1.3,0.3c0.4,0.2,0.9,0.4,1.3,0.6C62.3,226.3,62.8,226.3,63.3,226.3
	L63.3,226.3z M60.5,140.4c-0.8-0.6-1.7-1.2-2.6-1.6c-0.3-0.1-0.9,0.4-1.3,0.7c0.4,0.5,0.8,1.3,1.3,1.4
	C58.8,140.8,59.6,140.7,60.5,140.4L60.5,140.4z M64.6,222c-1.1,0.1-2.8-1.3-3.1,1.1L64.6,222z M69.6,219.9c-0.2-0.8-0.1-1.8-0.6-2.2
	c-1.6-1.4-2.4,0.6-3.6,1c-0.3,0.1-0.6,0.1-0.9,0V217l-3.2,1.9l3.2-0.1l1.2,2L69.6,219.9z M58.5,152.9c-0.1,0.2-0.2,0.4-0.2,0.7
	l0.4-0.1l0.2-0.4L58.5,152.9z M64.5,218.7L64.5,218.7l-0.1-0.1h0.1C64.5,218.6,64.5,218.7,64.5,218.7L64.5,218.7z M68.2,224.4
	c-0.8-0.8-1.6-1.6-2.4-2.4C65.7,223.6,66.1,224.9,68.2,224.4L68.2,224.4z M66.3,136.5l-2.4-3l-1.8,2.7l0.1,1.9l2.1-1L66.3,136.5z
	 M68.1,225.5c-0.2,0.4-0.5,0.8-0.7,1.1c0.2,0,0.4,0,0.5-0.1C68,226.2,68,225.9,68.1,225.5L68.1,225.5z M62.7,129.8H64l-1-1.8
	C62.9,128.6,62.8,129.3,62.7,129.8L62.7,129.8z M63,127.7c0.1-1.2,0.1-2.4,0.2-3.6c-0.1,0-0.3-0.1-0.4-0.1c0.1,1.2,0.1,2.3,0.2,3.5
	C62.9,127.5,63,127.6,63,127.7L63,127.7z M68.3,224.5L68.3,224.5L68.3,224.5C68.3,224.5,68.3,224.5,68.3,224.5L68.3,224.5z
	 M70.1,211c0-0.1-0.3-0.3-0.4-0.5c-0.2,0.2-0.4,0.5-0.6,0.8c0,0.1,0.3,0.3,0.5,0.5C69.8,211.6,70,211.3,70.1,211z M65.1,118.8h-0.3
	l0.2,0.3L65.1,118.8z M70.5,206.6c1.2-0.6,2.4-1.2,0.1-2.2c-0.5-0.2-0.7-1-1-1.6l0,0C69.9,204.1,70.2,205.4,70.5,206.6L70.5,206.6z
	 M69.7,202.8c4.6,0.8,4.7,0.8,3.9,5.5c3-0.9,1.4-3.4,1.8-5.3l-0.1,0.1l0.1-0.1c-0.7-0.9-1.4-1.9-2-2.8L69.7,202.8z M65.9,127.4
	l0.5,0.8l0.7-0.4c-0.2-0.3-0.4-0.5-0.6-0.7C66.4,127,66.1,127.3,65.9,127.4L65.9,127.4z M66.9,130.3l-0.3-0.3
	c-0.1,0.2-0.2,0.5-0.3,0.8c0,0.1,0.2,0.2,0.3,0.3L66.9,130.3z M68.6,172l0.2,0.4L69,172H68.6z M69.1,176.3l-0.2,0.4h0.3L69.1,176.3z
	 M76.9,217.5l-2-2.6v-0.2c-0.4-0.6-0.7-1.3-1.1-1.9c-3.6-0.6-1.4,1.9-1.1,2.8c0.5,1,1.3,1.8,2.3,2.4
	C75.3,218.2,76.2,217.7,76.9,217.5L76.9,217.5z M65.1,82.9c0.2,0.3,0.3,0.6,0.6,0.7s0.5-0.2,0.7-0.4l-0.6-0.7L65.1,82.9z
	 M73.5,208.5c-0.4,0.6-1.2,1.2-1.1,1.6c0.3,0.9,0.8,1.8,1.4,2.6l1-0.1C76.1,210.7,74.3,209.8,73.5,208.5z M69,132.9
	c-0.1-0.3-0.2-0.6-0.3-0.9c-0.2,0.1-0.4,0.1-0.4,0.2c-0.1,0.3-0.1,0.6-0.1,0.9L69,132.9z M71.5,186.9c0.8-0.3,1.8-0.3,2.2-0.8
	c0.3-0.6,0.4-1.4,0.3-2.1c-0.3,0.5-0.6,1-1,1.5C72.5,185.9,72,186.4,71.5,186.9L71.5,186.9z M69.3,128.9c0.2,0,0.5,0,0.7,0
	c0.1-0.2,0.1-0.3,0-0.5c-0.2-0.2-0.3-0.4-0.5-0.5L69.3,128.9z M68.6,112.6l0.4,0.1c0-0.1,0.1-0.3,0.1-0.4L68.6,112.6z M73.4,192.9
	L73,193c0.2,0.4,0.4,0.9,0.6,1.3C73.5,193.8,73.5,193.4,73.4,192.9z M76.2,199.8c0.4,0.7,0.7,1.4,1.1,2.1l0.1-0.1l-0.1,0.1l1.1-0.9
	L76.2,199.8l-0.3-4.3l-2.2-0.7l0.2,2.9c-0.2,0.7-0.3,1.5-0.5,2.2L76.2,199.8z M69.2,114.7l1.4,0.5v0.1c0.1,0.4,0.2,0.9,0.3,1.3
	c0.2-0.4,0.5-0.9,0.7-1.3c2.8,1.5,1.8-2.3,3.5-2.5c0.3,0,0.4-0.9,0.7-1.4c-0.7-0.3-1.7-1-1.9-0.8c-1.2,1.2-2.4,2.5-3.4,3.8
	L69.2,114.7z M73.1,177.1l0.7,0.2c0-0.3,0-0.6-0.1-0.8L73.1,177.1z M73.1,166.4C73.1,166.4,73.1,166.5,73.1,166.4L73.1,166.4
	L73.1,166.4z M71.9,121.6l-1-0.6l-0.2,0.6L71.9,121.6z M70.1,108.4c0,0.1,0.1,0.3,0.1,0.3c0.1,0,0.2,0,0.4-0.1
	c0-0.1-0.1-0.2-0.1-0.3L70.1,108.4z M74,176.3l1.7,0.3l-1.6,0.8l2.9,0.8c-0.8-1.2-1.5-2.4-2.3-3.6C74.5,175.1,74.3,175.7,74,176.3z
	 M75.7,183c-0.1-0.1-0.1-0.3-0.2-0.4l-1,0.8L75.7,183z M72.4,95.2c0.8,0.8,1.1,2.2,1.8,3.1c0.3,0.4,1.1,0.3,1.7,0.4
	c-0.7-1.3-1.5-2.6-2.5-3.8c-1.1-1-2.3-1.8-3.6-2.6C69,94.9,71.6,94.3,72.4,95.2z M75,189.4c0.3,0.1,0.6,0.2,0.8,0.3
	c0.2-0.4,0.3-0.9,0.4-1.3c0-0.1-0.3-0.2-0.6-0.4L75,189.4z M69.7,86.6l1,0.3L70,86.5C70,86.5,69.8,86.6,69.7,86.6z M71.1,102.9
	c-0.2,0.3-0.5,0.5-0.4,0.8s0.4,0.6,0.6,0.8c0.2-0.3,0.4-0.6,0.4-1C71.7,103.3,71.3,103.1,71.1,102.9z M76.3,199.8L76.3,199.8
	C76.3,199.8,76.3,199.7,76.3,199.8L76.3,199.8L76.3,199.8z M73.5,122l-1.3-0.3c0.1,0.4,0.2,0.8,0.3,1.3L73.5,122z M75,172.2l0.4,0.6
	l0.8-0.4c-0.1-0.1-0.2-0.3-0.4-0.3C75.6,172.1,75.3,172.2,75,172.2z M79.8,212c-0.4-0.2-0.9-0.3-1.3-0.3c-0.3,0.1-0.6,0.2-0.9,0.3
	c0.3,0.4,0.6,1,0.9,1S79.1,212.5,79.8,212z M74,116.4c-0.2,0.7-0.4,1.4-0.5,2.2c0,0.3,0.1,0.6,0.3,0.9c0.4-0.2,1-0.3,1.2-0.6
	S74.7,118.2,74,116.4z M73.3,108.1c0,0.1,0.1,0.3,0.1,0.3c0.2,0,0.4-0.1,0.6-0.2L73.3,108.1z M78.4,183.4c-0.2,0.3-0.5,0.6-0.4,0.6
	c0.2,0.3,0.4,0.5,0.7,0.6c0.2,0.1,0.4-0.1,0.6-0.1L78.4,183.4z M80,191.8L80,191.8l-0.9,0.1L80,191.8z M78.4,175.3l0.8,0.4
	c0.1-0.3,0.3-0.6,0.2-0.8s-0.5-0.3-0.8-0.5L78.4,175.3z M74,91.8c0,0,0.2,0.1,0.3,0.1c0-0.1,0.1-0.3,0.1-0.4c0,0-0.2-0.1-0.3-0.1
	C74,91.6,74,91.7,74,91.8z M76.3,121.1l-0.3-0.5c0,0.1-0.1,0.2-0.1,0.4L76.3,121.1z M80.6,192.3c-0.1,1.1-0.1,2.3-0.2,3.4
	c0,0.4-0.1,0.9-0.1,1.4c0.3-0.3,1-0.6,0.9-0.8C81,194.9,80.8,193.6,80.6,192.3L80.6,192.3z M76.3,99c0,0.4,0.2,0.8,0.4,1.2
	c0.4,0.4,0.9,0.7,1.5,1c-0.2-0.5-0.5-0.9-0.8-1.4C77.1,99.5,76.7,99.2,76.3,99z M76.1,94.4l0.3,0.3c0.1-0.1,0.3-0.1,0.3-0.2
	c0-0.1-0.1-0.3-0.1-0.4L76.1,94.4z M82,200.7l0.5,1.5l0.8-0.5L82,200.7z M78.7,109.9c-0.1-0.3-0.2-0.6-0.3-0.8
	c-0.1,0.1-0.3,0.3-0.3,0.3c0.1,0.3,0.2,0.6,0.3,0.8C78.4,110.1,78.7,109.9,78.7,109.9L78.7,109.9z M82.6,181.4
	c0.1,0.2,0.2,0.3,0.3,0.5l0.4-0.3c-0.1-0.1-0.1-0.4-0.2-0.4C82.9,181.3,82.7,181.3,82.6,181.4L82.6,181.4z"/>
<path class="st1" d="M323.2,222c-2,0.2-3.9,0.2-5.9,0.3c0-0.1,0-0.3-0.1-0.4c-3.5,0.6-7,1.4-10.5,1.8c-1.9,0.2-3.9-0.3-5.8-0.2
	c-2.9,0.1-4.2-1.3-4.7-3.9c-1.1-5.8-2.1-11.6-3.2-17.3c-1.1-6.1-2.2-12.2-3.4-18.3c-0.6-3-3.2-3.6-5.7-4c-3.3-0.5-6.6-0.7-9.9-1.4
	c-2-0.4-2.5,0.4-2.6,2.1c-1,12.6-2,25.1-3.1,37.7c-0.5,6.1-1.8,7.5-7.7,7.8c-4.5,0.2-8.9,0.5-13.4,0.7c-5.3,0.3-6.1-0.5-5-5.6
	c2-9.4,4.2-18.7,6.1-28.1s3.8-19.1,5.8-28.6c2.1-10.3,4.2-20.5,6.2-30.8c3.4-17.4,6.6-34.8,10-52.3c1.6-8,3.3-16,5.2-23.9
	c0.3-1.3,2.1-2.5,3.4-3.1s3.2-0.2,4.8-0.4c3.2-0.5,5.1,0.9,5.8,4c1.3,5.5,2.7,11,4,16.5c2.1,9.5,4.1,19.1,6.3,28.6
	c3.5,15.3,7.2,30.7,10.9,46c3.7,15.1,7.4,30.3,11.3,45.4c1.7,6.9,3.6,13.7,5.5,20.6C328.9,219.9,327.8,221.6,323.2,222z
	 M251.4,212.1l-0.3-0.3c-0.3,0.4-0.6,0.8-0.8,1.3c0,0,0.2,0.2,0.3,0.3L251.4,212.1z M252.8,215.5l-0.4-0.1l-0.1,0.4L252.8,215.5z
	 M254.1,207.5c-0.3-0.2-0.5-0.3-0.8-0.4c-0.1,0.3-0.2,0.5-0.3,0.8c0.3,0.1,0.6,0.2,0.9,0.2C254,208,254.2,207.5,254.1,207.5
	L254.1,207.5z M254.6,201.3c1.2,1,2.4,1.9,3.8,2.6c-0.7-1.1-1.4-2.3-2.2-3.4c-0.7-0.9-1.5-1.7-2.3-2.4
	C254.2,199.2,254,200.6,254.6,201.3L254.6,201.3z M255.9,213.4c0-0.1-0.2-0.2-0.3-0.3c-0.1,0.3-0.2,0.5-0.3,0.8
	c0,0.1,0.2,0.2,0.3,0.3C255.8,213.9,255.8,213.6,255.9,213.4L255.9,213.4z M256.5,205.7c-0.3-0.1-0.5-0.1-0.8-0.1c0,0.1,0,0.3,0,0.4
	c0.2,0.1,0.5,0.2,0.7,0.2C256.5,206,256.5,205.8,256.5,205.7L256.5,205.7z M261.4,210.3l-1.9-0.3l1.7-1.2l-2.7-2
	c-0.7,0.9-1.2,2-1.7,3c-0.1,0.2,1.1,0.9,1.7,1.3s1.3,0.9,1.9,1.3l0,0L261.4,210.3z M256.2,188.3c0.1,0.2,0.3,0.4,0.4,0.5
	c0-0.2,0.1-0.3,0.1-0.5s-0.2-0.3-0.2-0.4C256.4,188,256.2,188.1,256.2,188.3L256.2,188.3z M256.9,193.7c-0.1,0.1-0.3,0.3-0.3,0.3
	c0.1,0.2,0.3,0.3,0.5,0.5l0.1-0.4L256.9,193.7z M258.1,217l-0.1-0.3l-0.1,0.3L258.1,217z M257.8,197.3h0.7c0-0.1,0-0.3-0.1-0.4
	s-0.3,0-0.4,0S257.8,197.1,257.8,197.3L257.8,197.3z M260.2,212.6l-0.7,0.4c0.1,0,0.4,0.1,0.4,0.1
	C260,212.8,260.1,212.7,260.2,212.6L260.2,212.6z M258.3,188c0,0.3,0.1,0.6,0.2,1c0.1-0.1,0.3-0.2,0.3-0.3c0-0.3-0.1-0.7-0.2-1
	C258.5,187.7,258.3,187.8,258.3,188L258.3,188z M262.8,195.6c-0.4,0.1-0.8,0.3-1.2,0.6c-1.6,1.1-1.4,2.2,0.2,3.1
	c0.2-0.8,0.4-1.6,0.6-2.4C262.5,196.4,262.7,196,262.8,195.6L262.8,195.6z M260.8,185.8c0.2,0.2,0.3,0.4,0.5,0.6
	c0.3-0.4,0.5-0.8,0.8-1.1c0-0.1-0.2-0.3-0.3-0.4C261.5,185.2,261.1,185.5,260.8,185.8L260.8,185.8z M263.2,212.3L263,212l-0.1,0.3
	L263.2,212.3z M261.2,180.3c0.1,0.3,0.2,0.6,0.3,0.9c0.1-0.1,0.4-0.1,0.4-0.2c-0.1-0.3-0.2-0.6-0.3-0.8
	C261.4,180.1,261.1,180.2,261.2,180.3L261.2,180.3z M262,187.9c0,0.1-0.1,0.2-0.1,0.4l0.5,0.1C262.2,188.1,262.1,188,262,187.9
	L262,187.9z M262.2,172l1.4-0.9c-0.3-0.1-0.5-0.4-0.8-0.4c-0.3,0-0.7,0.2-0.9,0.4C261.8,171.2,262,171.6,262.2,172L262.2,172z
	 M264,174.7l-0.5-0.2c-0.1,0.1-0.2,0.2-0.2,0.3s0.2,0.2,0.3,0.3L264,174.7z M265.2,189.5l-0.1-0.3l-0.1,0.3L265.2,189.5z
	 M267.4,178.5l-0.8-0.6c-0.2,0.2-0.4,0.5-0.5,0.8c0,0.2,0.2,0.5,0.3,0.7L267.4,178.5z M266.1,172.8c0.1,0.3,0.1,0.6,0.2,0.9
	c0.1-0.1,0.4-0.2,0.4-0.2c-0.1-0.3-0.2-0.7-0.3-1C266.3,172.6,266.1,172.7,266.1,172.8L266.1,172.8z M271.7,168h-0.2
	c-1-4.2-1.9,1.4-3,0c-0.7,0.3-1.3,0.7-1.9,1.2c0.9,0.1,1.8,0.1,2.7,0C270.1,168.9,270.9,168.5,271.7,168L271.7,168z M267.3,166.3
	c0,0.1,0,0.3,0.1,0.4c0.2,0,0.3,0.1,0.5,0.1c0-0.2-0.1-0.4-0.2-0.6L267.3,166.3z M267.4,156.9l0.1,0.4l0.2-0.4L267.4,156.9z
	 M270.6,174.8l-0.5-0.1v0.3L270.6,174.8z M271.4,116.6l3.7-1.8c-0.4-0.2-0.9-0.6-1.3-0.6c-1.2,0.2-2.4,0.6-3.6,1L271.4,116.6z
	 M272,120.3l0.1,0.4l0.2-0.4L272,120.3z M284.3,162.4c0.5-0.1,1.1-1.8,1-2.6c-1.9-10.5-3.8-20.9-5.8-31.4c-0.1-0.3-0.3-0.6-0.5-0.9
	c-0.2,0.4-0.4,0.8-0.5,1.3c-1.4,10.4-2.9,20.7-4.2,31.1c0,1.3,0.1,2.7,0.3,4C277.8,163.4,281.1,163,284.3,162.4L284.3,162.4z
	 M272.3,105.4l0.2,0.4l0.2-0.4L272.3,105.4z M273.4,108.9l1.6-0.4l-1.5-0.5C273.5,108.3,273.5,108.6,273.4,108.9L273.4,108.9z
	 M273.9,96.4c0,0.3,0.1,0.7,0.1,1c0.1-0.1,0.2-0.3,0.2-0.4c0-0.3-0.1-0.7-0.2-1C274,96.1,273.9,96.3,273.9,96.4L273.9,96.4z
	 M276.8,121.1c0.4,0.7,0.7,1.4,1.2,2.1c0.2-0.1,0.5-0.2,0.7-0.3c-0.3-0.8-0.6-1.5-0.9-2.3C277.4,120.8,277.1,120.9,276.8,121.1
	L276.8,121.1z M276.6,111c0.6,0.1,1.2,0.3,1.8,0.4c0,0,0.1-0.3,0.1-0.5L276.6,111z M280.3,170.6c0-0.1-0.1-0.2-0.1-0.4
	c-0.1,0.1-0.2,0.2-0.2,0.3s0.1,0.2,0.1,0.4C280.2,170.8,280.3,170.7,280.3,170.6L280.3,170.6z M276,95.5l0.5,1c0-0.4,0-0.8,0.1-1.1
	L276,95.5z M278.4,115.5c-0.2,0-0.5,0.1-0.7,0.1c0.1,1,0.3,2,0.4,3c0.3-0.2,0.8-0.4,0.8-0.5C278.8,117.2,278.6,116.4,278.4,115.5
	L278.4,115.5z M277.4,105.2c0,0.1,0.2,0.1,0.3,0.1c0-0.1,0.1-0.3,0.1-0.4c0,0-0.2-0.1-0.3-0.1C277.5,104.9,277.4,105.1,277.4,105.2
	L277.4,105.2z M276.7,81.1h1.2c-0.3-0.1-0.6-0.2-0.9-0.3C276.9,80.8,276.8,81,276.7,81.1L276.7,81.1z M278,89.8
	c-0.1,0.2-0.4,0.5-0.4,0.7s0.3,0.4,0.4,0.6l0.2-0.9L278,89.8z M278.2,86.2c0,0.5,0,1-0.1,1.5l0.9-0.3L278.2,86.2z M280.8,109
	c-0.1,0.4,0.4,0.8,0.7,1.2c0.5-0.8,1-1.6,1.5-2.4l-1.4-1.7C281.3,107,281,108,280.8,109z M279.9,92.5c0,0.4,0.8,0.9,1.2,1.3
	c0,0.1-0.1,0.3-0.1,0.4c0.1-0.1,0.1-0.2,0.2-0.3c0.2-0.4,0.3-0.9,0.4-1.4c-0.2-0.9-0.4-1.8-0.7-2.7
	C280.4,90.6,280.1,91.5,279.9,92.5L279.9,92.5z M286.1,173.7l-1.6,0.4c0.1,0.1,0.2,0.2,0.3,0.2C285.2,174.1,285.6,173.9,286.1,173.7
	L286.1,173.7z M283,116.7c-0.5,0.4-1,0.8-1.4,1.3c0.4,0.2,0.9,0.7,1.3,0.6s0.9-0.6,1.9-1.4C283.7,117,283.2,116.6,283,116.7z
	 M280.9,87.3l0.8-0.2l-0.6-1.5L280.9,87.3z M280.6,81.5c0.3,0.8,0.6,1.7,0.8,2.5c0,0.4-0.1,0.7-0.3,1.1c1-1,2-2,2.9-2.9
	c-0.4,0-0.8,0-1.2-0.1C282.1,81.9,281.4,81.7,280.6,81.5L280.6,81.5z M282.6,101.2c-0.1,0-0.5,0.7-0.8,1.1l4,0.8l1.7,1.1l-1.2-1.6
	C285.1,102.2,283.8,101.6,282.6,101.2L282.6,101.2z M280.6,78.4l0.8-0.3c0-0.2-0.1-0.4-0.2-0.6c-0.1,0-0.3,0-0.4,0.1
	C280.6,77.9,280.6,78.1,280.6,78.4L280.6,78.4z M283.9,128.4L283.9,128.4c0.9-0.1,1.7-0.3,2.5-0.6c-0.2-1.6-0.4-3.2-0.8-4.8l-2.4-1
	c0.1,0.7,0.3,1.4,0.4,2.1l0,0C286.3,126.2,286.4,127.1,283.9,128.4L283.9,128.4z M289.3,173.4l-3-1.9l0.4,2L289.3,173.4z
	 M283.2,99.1l-0.2-0.4l-0.1,0.3L283.2,99.1z M285.8,130.8l-0.3,0.3c0.2,0.1,0.4,0.1,0.7,0.2c0.1-0.1,0.1-0.3,0.2-0.4L285.8,130.8z
	 M285.8,122.8l1.1-1.2l-0.7-0.3C286,121.8,285.9,122.3,285.8,122.8L285.8,122.8z M284.1,90.6c0.8-0.2,1.7-0.4,2.4-0.8
	c0.4-0.2,0.4-1.1,0.6-1.7c-0.5,0.2-1.1,0.5-1.5,0.9C285.1,89.5,284.5,90,284.1,90.6L284.1,90.6z M290.1,92c-1.9,0.7-3.7,1.5-5.6,2.3
	c2.1-0.6,4.2-1.2,6.3-1.8c0.1,0,0.2-0.3,0.3-0.5C290.7,92,290.3,91.8,290.1,92L290.1,92z M288.7,169.7c0,0.2-0.1,0.3-0.1,0.5
	c0.8-0.1,1.6-0.1,2.5-0.3c0.1,0,0.2-0.1,0.3-0.1L288.7,169.7z M286.3,109.6c-0.1-0.3-0.2-0.5-0.3-0.8c0,0-0.4,0-0.4,0.1
	c-0.1,0.3-0.1,0.5-0.1,0.8L286.3,109.6z M288.8,166.1c0,0-0.1,0.2-0.1,0.3l0.8,0.3l0.1-0.4C289.3,166.2,289,166.1,288.8,166.1
	L288.8,166.1z M286.4,119.4c0.1,0,0.3-0.1,0.4-0.1c0,0,0-0.2,0-0.3l-0.4-0.1C286.3,119.1,286.3,119.2,286.4,119.4L286.4,119.4z
	 M284.5,82.1l1,0.1c0-0.4-0.1-0.8-0.1-1.2L284.5,82.1z M287.5,115.1c0.3-0.6,0.7-1,0.7-1.3s-0.4-0.7-0.6-1c-0.3,0.3-0.9,0.6-1,1
	s0.4,0.7,0.8,1.3L287.5,115.1z M284.5,72.7l0.2,0.4l0.1-0.4L284.5,72.7z M285.7,82.5c0.1,0.2,0.1,0.5,0.2,0.7l0.4-0.3L285.7,82.5z
	 M296,123.5c-1,0.5-1.9,1.1-2.8,1.7c-0.7,0.6-0.7,3.3-2.4,0.8l-2.6,3.2c0.8,0.1,1.6,0.5,2.2,0.3c1.3-0.6,2.6-1.3,3.8-2.1
	c0.7,1.7,1.3,3.4,2.2,5.1c0.3,0.5,1.1,0.7,1.8,1c0.2-0.5,0.4-1,0.6-1.5l0.1-0.1h0c-1.6-1.5-4.2-2.5-2.2-5.6c0.2-0.6-0.5-1.8-0.8-2.8
	L296,123.5z M292.5,162.8c0.9-1.1,1.8-2.3,2.5-3.6c-0.3-0.4-0.5-0.9-0.7-0.9c-0.4-0.1-0.8,0.1-1.1,0.3c-0.7,0.8-1.3,1.7-1.9,2.6
	c-0.3,0.4-0.5,0.9-0.8,1.3c0.6,0.1,1.6,0.5,1.9,0.3L292.5,162.8z M292.4,173c-0.1-0.8-0.1-1.7-0.3-2.5c-0.1-0.3-0.4-0.5-0.6-0.8
	c-0.2,0.3-0.4,0.5-0.4,0.8c0.1,0.8,0.3,1.5,0.5,2.2C291.6,173,292.1,173,292.4,173z M288,104.6c0.3,0.6,0.6,1.3,0.9,1.9l1-2.8
	L288,104.6z M291.5,133.4c0-0.4-0.5-0.8-0.8-1.2c-0.4,0.6-0.8,1.3-1,2c0,0.7,0.1,1.5,0.4,2.1h0.7
	C291.1,135.4,291.4,134.4,291.5,133.4L291.5,133.4z M288.7,97.3c0.2-0.1,0.4-0.3,0.6-0.4l-0.7-0.5c-0.1,0.2-0.2,0.4-0.3,0.7
	C288.3,97.1,288.6,97.3,288.7,97.3L288.7,97.3z M289.5,118.9c0,0.3,0.1,0.5,0.2,0.8c0.2,0.7,0.5,1.4,0.8,2c0.3-0.6,0.9-1.3,0.7-1.8
	S290.1,119.3,289.5,118.9L289.5,118.9z M291.6,154.3c0.4,0.3,0.8,0.6,1.3,0.9c0.1,0.1,0.4-0.2,0.8-0.4c-0.4-0.3-0.8-0.6-1.2-0.8
	C292.2,153.8,291.9,154.1,291.6,154.3L291.6,154.3z M289.8,113.7c-0.1,0.8-0.1,1.6-0.2,2.4l2-1L289.8,113.7z M294.1,137.9
	c-0.5,0-1,0-1.5,0.2c-0.6,0.4-1.1,0.9-1.6,1.5l3.5,0.1C294.4,139.1,294.3,138.5,294.1,137.9L294.1,137.9z M293.8,180.5l0.7-2.1h-0.7
	V180.5z M295.7,180.9l-1.7-0.1c0.2,0.1,0.5,0.2,0.8,0.3C295.1,181,295.4,181,295.7,180.9L295.7,180.9z M292.9,146.8l-0.6,0.2
	l0.9,1.4C293.1,147.8,293,147.3,292.9,146.8L292.9,146.8z M295.2,170.8c-0.4,0.3-1,0.4-1.1,0.8c-0.2,0.6-0.3,1.2-0.3,1.9
	c0.6-0.4,1.1-0.9,1.6-1.4C295.6,171.8,295.3,171.3,295.2,170.8L295.2,170.8z M290.1,103.4c0.2-0.2,0.3-0.4,0.4-0.7
	c0-0.6,0-1.2-0.1-1.8c-0.1,0.6-0.3,1.2-0.3,1.8C290,102.9,290.1,103.2,290.1,103.4L290.1,103.4z M293.8,152l-0.7-0.2
	c0,0.1,0.1,0.3,0.1,0.4L293.8,152z M298.6,152L298.6,152c0.3-0.3,0.6-0.7,0.9-1c-1.2-1.2-2.5-2.2-3.9-3.2c-0.5-0.3-1.5,0.4-2.3,0.8
	L298.6,152z M292.1,115.2l2.3,2.4l0.7-0.6l-2-1.6l0,0L292.1,115.2z M294.8,164.6c0.3,0.1,0.7,0.4,0.8,0.4c0.9-0.7,1.7-1.5,2.5-2.3
	c0.1-0.2,0.2-0.5,0.2-0.8L294.8,164.6z M296.8,170.2l1.1,0.6l-1.2-0.8l-1.3-0.6l-0.1,1.3L296.8,170.2z M292.9,115.2
	c0.2-0.2,0.4-0.5,0.5-0.7c0.2-0.5,0.4-1.1,0.5-1.7c0,0-0.3-0.1-0.4-0.2c-0.2,0.6-0.4,1.2-0.5,1.8
	C292.9,114.6,292.9,114.9,292.9,115.2L292.9,115.2z M294.8,135.7c-0.2,0.6-0.4,1.2-0.5,1.8c0.2-0.3,0.4-0.6,0.5-1
	C294.9,136.2,294.9,135.9,294.8,135.7L294.8,135.7z M295.1,144.3l2.4-0.9l-2.1-0.6L295.1,144.3z M301,196.8
	c-0.4-0.2-0.8-0.4-1.2-0.5c-0.4,0-0.9,0-1.3,0.1c0.3,0.5,0.6,1,1,1.4C299.7,197.9,300.4,197.3,301,196.8z M298.1,175.4
	c0.1,0.5,0.2,1,0.3,1.5l0.5-1.5L298.1,175.4z M299.1,171.7c-0.3,0.6-0.5,1.3-0.8,1.9l2.7,0.2L299.1,171.7z M299.5,193.6l2.3,0.5
	c-0.3-0.6-0.5-1.2-0.8-1.8c-0.1-1.3-0.1-2.6-0.2-3.9l-0.4,4.1L299.5,193.6z M300.3,157.6c1-1.9,0.4-4.3-1.5-5.5
	C296.2,154.8,298.4,156.1,300.3,157.6L300.3,157.6z M299.5,161.5c-0.1-0.1-0.3-0.3-0.3-0.2s-0.4,0.3-0.6,0.4L299.5,161.5z
	 M298,145.1c0.1-0.1,0.2-0.3,0.2-0.3c-0.1-0.3-0.2-0.7-0.4-1C297.9,144.3,298,144.7,298,145.1z M300.1,181.1
	c0.3,0.4,0.9,0.6,1.4,0.8c-0.2-0.4-0.3-0.8-0.5-1.2c-0.3-0.6-0.7-1.1-1.1-1.6C300,179.9,299.8,180.6,300.1,181.1L300.1,181.1z
	 M302.1,207.3l2.1-0.7c0,0.4,0,0.7,0,1.1h0.1l-0.1,0.1l3.6-0.7l-1.8-2.7l0.1-0.1c0.5,0,1,0,1.5-0.1c0.6-0.2,1.2-0.4,1.9-0.6
	c-0.6-0.1-1.2-0.2-1.9-0.2c-0.5,0.1-1,0.2-1.4,0.4c-2.9-0.5-3.9,1.1-4.2,3.6l0.1-0.1L302.1,207.3z M305.2,189.3
	c1.7-2.1,0-3.3-1.2-4.5c1,2.8-2.7,1.2-3.1,2.7L305.2,189.3z M298.7,135.9l-0.3-0.1l0.1,0.4L298.7,135.9z M299.7,139.7l-1.1,0.5
	c0.1,0.3,0.3,0.5,0.5,0.8c0.3-0.2,0.6-0.3,0.8-0.5S299.9,140,299.7,139.7L299.7,139.7z M306.6,169.5l-5.6-0.7l3.7,1.4l-3.7,0.4
	c1.3,0.9,2.6,3,4.1,0.3C305.8,170.4,306.2,170,306.6,169.5L306.6,169.5z M303.6,184.2c0.2-1.4,0-2.6-1.9-2.1c0.7,0.8,1.4,1.5,2,2.2
	L303.6,184.2z M300.7,158l1.1,1.1l0.3-0.4L300.7,158z M303.5,201.2c-0.2,0.1-0.3,0.2-0.5,0.3c0,0,0.2,0.2,0.2,0.4
	c0.1-0.1,0.3-0.1,0.3-0.3C303.6,201.5,303.6,201.4,303.5,201.2L303.5,201.2z M299,125.5l0.1,0.4l0.2-0.4L299,125.5z M304.8,211.6
	l0.9-1.1c-0.4-0.1-0.8-0.4-1-0.3s-0.5,0.5-0.8,0.8L304.8,211.6z M300.5,145l0.7,0.3l0.4-1.5C301.3,144.1,300.9,144.6,300.5,145z
	 M308.4,214.4c-1.4-2.1-2.2-1.1-2.8,0.6L308.4,214.4z M307.4,197.4l-2.7-1.3c0.3,0.9,0.6,1.8,0.9,2.7L307.4,197.4z M307,174.7
	c-0.3-0.4-0.7-0.6-1.1-0.8c-0.8-0.1-1.5-0.1-2.3,0c0.6,0.5,1.3,0.9,2,1.2C305.9,175.2,306.5,174.9,307,174.7L307,174.7z M303,162.6
	c0.3-0.1,0.5-0.1,0.8-0.1c0.6,0.3,1.3,0.6,1.9,1c-0.4-0.7-0.7-1.3-1.1-2c-0.3-0.4-0.6-0.7-0.9-1L303,162.6z M302,143.4l1.1-0.3
	c-0.1-0.2-0.2-0.3-0.3-0.5L302,143.4z M303.2,165.5c0,0.1,0.1,0.1,0.2,0.2l-0.3-0.6C303.2,165.2,303.2,165.4,303.2,165.5
	L303.2,165.5z M305.5,199.1v1.5l0.8-0.2L305.5,199.1z M306.3,177.4l-1.8-0.3v0.4L306.3,177.4z M305.5,159.1l-1.6,1.3l2-0.5
	L305.5,159.1z M307,190.8l0.3-0.4l-1.6-0.7L307,190.8z M303.9,155.6c0,0.1,0.7,0.3,1,0.4c0.1-0.6,0.1-1.3,0.1-1.9
	c0-0.1-0.5-0.3-0.7-0.4C304.1,154.4,304,155,303.9,155.6L303.9,155.6z M303.6,149c0,0.2,0.4,0.3,0.7,0.5c-0.1-0.3-0.1-0.5-0.1-0.8
	c0-0.6,0-1.2,0.1-1.9c-0.2,0.1-0.5,0.1-0.5,0.2C303.7,147.7,303.6,148.3,303.6,149L303.6,149z M308.1,216.6h-0.5c0,0.2,0,0.4,0,0.6
	l0.4-0.2C308,216.8,308.1,216.7,308.1,216.6L308.1,216.6z M304.5,149.8c0,0.4,0.1,0.8,0.1,1.2l0.8-0.4L304.5,149.8z M311.3,205.2
	l-3.4,1.9C311,208.9,311.4,208.7,311.3,205.2L311.3,205.2z M309.8,214.7c0-0.2,0-0.4-0.1-0.6l-1.1,0.3L309.8,214.7z M306.5,168
	c0.1,0.4,0.2,0.8,0.3,1.2l-0.1-0.3C306.6,168.6,306.5,168.3,306.5,168z M307.2,177.9l0.6,1.4l0.4-0.2L307.2,177.9z M307.1,174.5
	c0.3-0.3,0.5-0.7,0.6-1.1c0.1-0.3-0.1-0.6-0.2-0.9L307.1,174.5z M309.3,198.6c0,0.1,0.1,0.3,0.2,0.4c0.1-0.1,0.2-0.3,0.3-0.4
	s-0.2-0.3-0.2-0.4C309.5,198.4,309.4,198.5,309.3,198.6L309.3,198.6z M309.2,187.6c0.1,0.1,0.3,0.2,0.4,0.3s0.3-0.1,0.4-0.2
	L309.2,187.6z M316.2,210.8l-2.5,0.7l0.7,1.3L316.2,210.8z M313.5,194.4c0,0.1,0.2,0.1,0.3,0.2c0.1-0.3,0.1-0.6,0.1-0.8
	c0-0.1-0.2-0.1-0.3-0.2C313.5,193.8,313.5,194.1,313.5,194.4L313.5,194.4z M313.5,186.4l0.4,0.1c-0.1-0.1-0.2-0.2-0.3-0.4
	L313.5,186.4z M314.6,199c0,0.1,0,0.2,0,0.2s0.3,0,0.7,0L314.6,199z M316.3,209.5c0-0.7-0.1-1.4-0.2-2.2c0,0,0,0,0-0.1l-0.1,0.2
	C316.1,208.2,316.2,208.9,316.3,209.5L316.3,209.5z M319,210.5l-0.6,0.2l0.2,0.5c0.1,0,0.3,0,0.4-0.1
	C319.1,210.8,319.1,210.7,319,210.5z"/>
<path class="st1" d="M148.3,73.1c-0.4-3.1-0.9-6.1-1.7-9.1c-0.2-0.9-1.7-2.1-3.8-1.9c-5.8,0.6-11,3.3-16.7,4.6
	c-8.2,2-15.2,3.9-23.3,6c-5.7,1.5-4.9,5.7-4.9,6.6c-0.1,3,1.4,3.4,4,3.1c10.6-1.2,38.7-4.8,43.2-5.3
	C147.9,76.9,148.6,75.3,148.3,73.1z M108.4,77.3c-0.2-0.3-0.3-0.6-0.4-1c0-0.2,0.3-0.4,0.4-0.7l0.9,0.8L108.4,77.3z M112.4,79.3
	l-0.2-0.5h0.4L112.4,79.3z M113.2,75.7l0.5-0.2v0.4L113.2,75.7z M114,72.7c-0.1-0.2-0.2-0.5-0.2-0.7c0,0,0.3-0.1,0.4-0.2
	c0,0.2,0.1,0.3,0.1,0.4S114.2,72.5,114,72.7L114,72.7z M115.5,79.5c-0.3-0.2-0.5-0.3-0.7-0.6c0.1-0.1,0.3-0.3,0.4-0.3
	c0.3,0.2,0.5,0.4,0.8,0.6C115.8,79.4,115.6,79.6,115.5,79.5L115.5,79.5z M131.5,69.7l0.2,0.5l-0.5-0.1L131.5,69.7z M127.3,73.9
	c0.1-1.2,0.2-2.3,0.3-3.5l2.2,3.3L127.3,73.9z M132.3,74.6l-1.8-0.7l2,0.1L132.3,74.6z M137.6,68.8c-0.1-0.1-0.1-0.3-0.2-0.4
	l0.4-0.2L137.6,68.8z M140.8,75.1l-1.1-0.3c0.1-0.3,0.1-0.9,0.3-1s0.8,0.1,1.1,0.2C141,74.4,140.9,74.7,140.8,75.1L140.8,75.1z"/>
<path class="st1" d="M240.4,199c-8.4-20.1-18.9-39-35.9-53.3c-2.5-2.1-1.9-3,0.7-4.2c6.5-3.1,12.7-6.6,16.9-12.6
	c3.9-5.5,8.4-10.8,10.9-16.9c4.4-11.1,3.6-22.6-1.5-33.6c-4.6-10.2-14.1-17.3-25.1-19.1c-6-1-31.9,1.3-36.3,1.5
	c-5.6,0.2-5.9,0.7-5.6,6.4c0.8,21.9,1.6,43.8,2.4,65.7c0.5,13.4,1,26.7,1.2,40.1c0.2,11.6,0.2,23.3,0.3,34.9l0.5,0.2l3.8,3.1
	c1.2,1,2.3,2.3,3.2,3.6l1.3,2.1c0.2-0.1,0.3-0.2,0.5-0.3c0.2-0.2,0.3-0.5,0.5-0.8l0.2,0.4c1.2-0.6,2.5-0.8,3.9-0.7l1.4-1l3.6,3
	c0.1,0.1,0.3,0.3,0.4,0.4l0.2-0.2l1.2,1.3l0.3,0.1l5.9,7c0.5,0.6,0.9,1.2,1.3,1.9c1.4-1.2,1.6-3.4,1.1-7.3
	c-1.3-8.8-2.5-17.6-3.6-26.5c-0.8-6-1.6-11.9-2.3-17.9c-0.8-7.4-1.4-14.9-2.1-22.3c0-0.6,0.2-1.3,0.4-1.9c0.6,0.4,1.3,0.6,1.6,1.1
	c3.6,5.9,7.4,11.7,10.7,17.8c8.9,16.6,12.8,34.9,17,53.1c0.4,1.7,1.6,3.8,3,4.4c2.4,1,4.1-0.8,5.5-2.9c2.6-3.7,5.3-7.7,8.6-10.6
	C244.1,208.2,244.4,208.4,240.4,199z M203.9,128.2c0-0.3,0-0.6,0-0.8l0,0V128.2z M204,127.2c0.3-0.6,0.6-1.1,0.9-1.7
	c0.3,0.6,0.6,1.2,0.9,1.8L204,127.2z M206,122.1c-0.2,0-0.4-0.1-0.6-0.1c0.1-0.3,0.3-0.5,0.4-0.8l0.6,0.6
	C206.2,121.9,206.1,122.1,206,122.1L206,122.1z M210.2,129.4c-0.1-0.1-0.2-0.3-0.2-0.4c0.1-0.2,0.2-0.4,0.3-0.5
	C210.3,128.8,210.2,129.1,210.2,129.4L210.2,129.4z M213.8,123.5c-0.1,0.1-0.3,0.1-0.4,0.1c0-0.2,0-0.3,0-0.5l0.4,0.1
	C213.9,123.4,213.9,123.5,213.8,123.5L213.8,123.5z M214.6,119.3c-0.5-0.6-1.1-0.9-1-1.2s0.6-0.7,0.9-1.1c0.2,0.3,0.6,0.6,0.6,0.9
	S214.9,118.7,214.6,119.3L214.6,119.3z M212.1,85.9c0-0.1,0.1-0.2,0.2-0.3c0,0.3,0,0.5,0.1,0.8C212.2,86.3,212.2,86.1,212.1,85.9
	L212.1,85.9z M215.2,108.8l1.8-0.8l-1,2.8C215.7,110.1,215.4,109.5,215.2,108.8L215.2,108.8z M215.6,101.3c0-0.2,0.1-0.5,0.1-0.7
	l0.8,0.4c-0.2,0.2-0.3,0.4-0.6,0.5C216,101.6,215.6,101.4,215.6,101.3L215.6,101.3z M216.8,120c0.2-0.7,0.4-1.4,0.6-2.2
	c0.1,0.1,0.4,0.3,0.4,0.3C217.4,118.8,217.1,119.4,216.8,120L216.8,120z M217.8,123.9c-0.2-0.3-0.5-0.7-0.7-1l1,0.6L217.8,123.9z
	 M217.7,106.9c-0.1,0.3-0.2,0.5-0.4,0.7c-0.1-0.3-0.1-0.5-0.1-0.8c0.1-0.6,0.3-1.2,0.4-1.8C217.7,105.7,217.7,106.3,217.7,106.9
	L217.7,106.9z M221,121.1l-0.4-0.2l0.4-0.1L221,121.1z M221,117.9c-0.3-0.1-0.7-0.2-0.8-0.3s0.1-0.6,0.2-0.8
	c0.3,0.1,0.6,0.2,0.8,0.4S221,117.7,221,117.9L221,117.9z M219.3,101.3c0-0.1,0.2-0.2,0.3-0.3c0.1,0.1,0.1,0.3,0.2,0.4l-0.3,0.3
	C219.3,101.6,219.2,101.4,219.3,101.3L219.3,101.3z M220.3,88.3l-0.9,2c-0.3-0.8-0.7-1.6-1-2.3L220.3,88.3z M218.3,82.6
	c0.1-0.2,0.1-0.5,0.2-0.7l0.4,0.6L218.3,82.6z M223.8,115.8l-0.7-0.4l0.8-1.1C223.8,114.7,223.7,115.3,223.8,115.8L223.8,115.8z
	 M224.1,111.1c-0.7-0.6-1.6-1.1-2-1.9c-0.2-0.4,0.5-1.3,0.7-2c0.1-0.5,0.2-1,0.3-1.4c0.4,0.3,1.1,0.5,1.1,0.8
	C224.1,108.1,224,109.6,224.1,111.1L224.1,111.1z M224.3,102c-0.6,0.6-1.3,1.1-2.1,1.5c0-1.3,0-2.6,0-3.9
	C222.8,100.5,226.2,99.4,224.3,102L224.3,102z M221.7,92.6l2.1,0.8C222.2,95.2,222.1,93.4,221.7,92.6L221.7,92.6z M222.6,98.3
	c-0.1,0.2-0.2,0.4-0.3,0.6l0.1-0.9C222.4,98,222.6,98.2,222.6,98.3L222.6,98.3z M229.3,93.5h0.4v0.2l-0.4,0.1
	C229.2,93.7,229.2,93.5,229.3,93.5L229.3,93.5z M227.4,89.8c0.1,0.2,0.3,0.3,0.3,0.5s-0.1,0.3-0.2,0.4
	C227.4,90.4,227.4,90.1,227.4,89.8L227.4,89.8z M227.9,101c0.1,0.3,0.3,0.5,0.6,1c-0.2,0.3-0.5,0.5-0.9,0.7c-0.1,0-0.7-0.5-0.6-0.6
	C227.3,101.7,227.5,101.3,227.9,101L227.9,101z M226.7,108.4c0,0.5,0,1,0,1.5c-0.1-0.5-0.3-1-0.4-1.5L226.7,108.4z M226.5,111
	c0-0.1,0.1-0.3,0.2-0.4l-0.2,1.2C226.4,111.5,226.4,111.2,226.5,111L226.5,111z M224,93.1c0.1-0.5,0.1-1,0.2-1.5l0.7,0.2L224,93.1z
	 M223.9,84.3l-0.3,0.2l-0.3-0.2L223.9,84.3z M221.2,91.2c0.1,0.3,0.1,0.7,0.1,1l-1.6-1.6l0.8,0.3c0-0.9-0.1-1.8-0.1-2.6
	C221.7,88.9,223.1,89.6,221.2,91.2L221.2,91.2z M215,73.4c0.2,0.1,0.3,0.1,0.4,0.3c0.1,0.1,0,0.3,0,0.4l-0.4,0
	C215,73.8,215,73.6,215,73.4z M217,79.6c-0.1-0.3-0.5-0.8-0.4-0.9c0.7-0.9,1.6-1.7,2.3-2.6c-0.4,1.1-0.8,2.3-1.3,3.4l2.5,0.5
	l-1.8,1.7l-0.7-1l-2.5,0.6L217,79.6z M217.4,92.2l-0.4-0.1l0.3-0.1L217.4,92.2z M218.1,96.1c0.5-0.2,1.2,0.2,1.8,0.3
	c-0.6,0.2-1.2,0.5-1.8,0.7s-1.4,0.3-2.1,0.5C216.6,96.9,217.4,96.4,218.1,96.1L218.1,96.1z M214.4,92.5l-0.2,0.4l-0.4,0.3
	c0-0.2-0.1-0.5-0.1-0.7L214.4,92.5z M213.7,97l1.9,0.6l-1.9,0.4C213.7,97.6,213.7,97.3,213.7,97z M214.2,107.8l0.7,1l-1.2-0.2
	L214.2,107.8z M211.5,76.8c0-0.1,0.2-0.1,0.3-0.1l0.1,0.4l-0.5,0.2C211.4,77,211.5,76.9,211.5,76.8L211.5,76.8z M212.9,113.3
	l0.5,0.6l-0.4,0.3l-0.4-0.1C212.7,113.7,212.8,113.5,212.9,113.3L212.9,113.3z M213.3,125.5l0.4,0.2c-0.3,0.4-0.5,0.8-0.8,1.2
	C213.1,126.4,213.2,126,213.3,125.5L213.3,125.5z M210.5,128.1l-0.3-1.7l2.5,0.9L210.5,128.1z M211.9,121.6
	c-0.9,0.7-1.3,1.2-1.8,1.4s-0.9-0.4-1.3-0.6c0.4-0.5,0.9-1,1.4-1.3C210.3,120.8,210.9,121.2,211.9,121.6L211.9,121.6z M208.7,113.6
	c0.1-0.3,0.2-0.6,0.4-0.8c0.1,0.1,0.3,0.2,0.3,0.2c-0.1,0.3-0.2,0.5-0.3,0.8C208.9,113.7,208.8,113.7,208.7,113.6L208.7,113.6z
	 M183.6,131l-0.3,0.5l-0.1-0.5L183.6,131z M182.8,149.6c0-0.6,0-1.2,0-1.7c0.2-0.1,0.4-0.1,0.7-0.1
	C183.3,148.4,183.1,149.1,182.8,149.6L182.8,149.6z M185.9,192.6c0,0.2-0.1,0.3-0.1,0.5c-0.1-0.1-0.3-0.2-0.2-0.3
	c0.1-0.2,0.1-0.5,0.3-0.7L185.9,192.6z M181.6,127.2l0.8,0.3c-0.1,0.3-0.2,0.6-0.3,0.9c-0.3-0.1-0.7-0.2-0.8-0.4
	S181.5,127.6,181.6,127.2L181.6,127.2z M183.6,193.3c-0.1-0.3-0.4-0.5-0.4-0.8s0.3-0.5,0.4-0.8c0.1,0.3,0.3,0.6,0.4,0.8L183.6,193.3
	z M184.2,198.2c0,0-0.1,0.3-0.2,0.4l-0.6-0.9C183.7,198,184,198.1,184.2,198.2L184.2,198.2z M178.1,160.6l-0.4,0.2
	c-0.1-0.4-0.3-0.8-0.5-1.1L178.1,160.6z M177.2,154.2l0.4-0.2c0,0.2,0.1,0.4,0.1,0.6c-0.1,0-0.3,0-0.4-0.1
	C177.3,154.5,177.2,154.4,177.2,154.2L177.2,154.2z M179.9,167.4l-0.4-1.7l1,1.4L179.9,167.4z M180.9,176.4l-1.4,0.5
	c0-0.1,0-0.3-0.1-0.4L180.9,176.4z M179.5,152.4c-0.1-0.1,0-0.4,0-0.6l0.8,0.4c0,0.1,0,0.3,0,0.4c-0.3,0-0.5,0-0.8-0.1L179.5,152.4z
	 M181.4,174.7l0.4,1.2l-0.2-0.1l-0.2,0.2V174.7z M178.9,138.4c-0.1,0.1-0.4,0-0.4-0.1c0-0.3,0-0.6,0-0.8l1.1,0.4
	c-0.2,0.2-0.4,0.4-0.6,0.6L178.9,138.4z M178.5,133c0,0-0.1-0.2-0.1-0.3l0.4-0.1l0.1,0.3c-0.1,0.1-0.3,0.2-0.4,0.2L178.5,133z
	 M177.7,129.9c0-0.1,0.1-0.3,0.1-0.4c0.1,0,0.3,0,0.4,0c0.1,0.1,0.1,0.3,0.1,0.4L177.7,129.9z M178.9,149.3c0.1,0.1,0.1,0.2,0.2,0.4
	c-0.2,0.1-0.4,0.3-0.7,0.4c0,0-0.2-0.2-0.3-0.3L178.9,149.3z M179,163l0.4,2.1l-1.1-1.9L179,163z M178.2,168.9
	c0,0.1-0.2,0.2-0.3,0.3c0-0.4,0-0.9-0.1-1.4C177.9,168.1,178.1,168.5,178.2,168.9L178.2,168.9z M179.8,190c0.1-0.1,0.3,0.1,0.4,0.1
	c-0.1,0.2-0.1,0.6-0.3,0.7s-0.5-0.1-0.8-0.2C179.3,190.4,179.6,190.2,179.8,190z M180.2,193.5l0.8,1.8h-0.9
	C180.1,194.7,180.1,194.1,180.2,193.5L180.2,193.5z M179.8,183.3c0.3-0.2,0.8-0.5,0.8-0.4c0.6,0.8,1.2,1.6,2.6,3.4
	c-0.6-0.2-1.2-0.4-1.7-0.7C181,184.8,180.4,184.1,179.8,183.3L179.8,183.3z M182,155c0.3,0,0.6,0.1,0.9,0.2c-0.3,0.1-0.7,0.2-1,0.3
	c-0.3,0-0.6-0.1-0.9-0.3C181.3,155.1,181.7,155,182,155z M181.1,143.7c0.1-0.1,0.1-0.3,0.1-0.4l0.1-0.1
	C181.2,143.4,181.2,143.6,181.1,143.7L181.1,143.7z M182.2,151.4c0.1-0.3,0.3-0.6,0.4-0.9l-0.1,1.3
	C182.4,151.6,182.1,151.5,182.2,151.4L182.2,151.4z M183.8,173.1h-0.3l0.1-0.4L183.8,173.1z M182.2,158.2c0,0.6,0,0.9,0,1.2
	c-0.3-0.4-0.6-0.9-0.8-1.4c-0.1-0.2,0.3-0.5,0.4-0.7C182,157.6,182.1,158,182.2,158.2L182.2,158.2z M183.6,189.5
	c0-0.1,0.1-0.3,0.1-0.3c0.1,0,0.3,0,0.4,0.1c0,0.1-0.1,0.3-0.1,0.3C183.8,189.6,183.7,189.5,183.6,189.5L183.6,189.5z M182.8,169.3
	c-0.1,0-0.3-0.1-0.4-0.2h0.8C183.1,169.2,182.9,169.3,182.8,169.3L182.8,169.3z M184.9,201.2c0.1-0.1,0.3-0.1,0.4-0.1
	c0.1,0.1,0.1,0.3,0.2,0.4l-0.6,0.1C184.9,201.4,184.8,201.2,184.9,201.2L184.9,201.2z M181.6,142.7c0-0.4,0-0.7,0-1h0.4L181.6,142.7
	z M178.8,124.2c-0.4-1-0.8-1.5-0.7-1.8s0.7-0.9,1.1-1.3l1.4,1.3L178.8,124.2z M179.5,111c0,0.3-0.1,0.7-0.2,1l-1-1.1l0.8-0.7
	C179.1,110.5,179.4,110.7,179.5,111L179.5,111z M178.3,105.2c-0.1,0.1-0.2,0.2-0.4,0.3l-0.2-0.6l0.5-0.1
	C178.2,105,178.3,105.1,178.3,105.2z M177.9,101.7c-0.2,0.2-0.4,0.6-0.6,0.7c-0.8,0.3-1.5,0.6-2.3,0.9
	C174.6,100.5,176.5,101.5,177.9,101.7z M174.9,103.6c0,0.5,0.1,1.1,0.1,1.6l-0.8-0.1L174.9,103.6z M173,96.4l0.2,0.4l-0.3,0.1
	L173,96.4z M176,126c0.5-0.1,1-0.2,1.5-0.4l-1.1,2.5l0,0l-2.3-1.9C174.8,126.2,175.4,126.2,176,126z M178,141c0.8,1.8-0.5,6-1.9,6.1
	c-0.2,0-0.7-0.6-0.7-0.9c0-1,0-2.1,0.1-3.1l-1.1-1.3L178,141z M177.5,167.4L176,168c-0.1-0.3-0.1-0.5-0.1-0.8L177.5,167.4z
	 M175.7,151c-0.1-0.2,0.2-0.6,0.3-0.8c0.2,0.3,0.5,0.5,0.6,0.8c0,0.3,0,0.7-0.1,1C176.1,151.7,175.9,151.4,175.7,151z M175.8,164.1
	c0,0.2,0,0.3,0,0.5c-0.2-0.1-0.4-0.2-0.4-0.4c-0.1-0.4-0.1-0.7-0.1-1.1C175.5,163.5,175.7,163.8,175.8,164.1L175.8,164.1z
	 M174.4,160c0.1,0.1,0.1,0.3,0.1,0.4c0,0.1-0.2,0.1-0.3,0.1c-0.1-0.1-0.1-0.3-0.1-0.4C174.1,160.2,174.3,160.1,174.4,160L174.4,160z
	 M175.7,181.3c0,0.3,0,0.6,0,0.9c0,0.1-0.2,0.2-0.3,0.3c0-0.3,0-0.7,0-1C175.4,181.4,175.6,181.4,175.7,181.3L175.7,181.3z
	 M175.1,187.1l2.4,3.4l-0.9,0.6c-0.5-0.8-1-1.6-1.5-2.5C175.1,188.2,175,187.7,175.1,187.1L175.1,187.1z M176.1,210
	c-0.1,0.1-0.2,0.2-0.4,0.3c0-0.1,0-0.3,0-0.4c0-0.1,0.2-0.2,0.2-0.3C176.1,209.8,176.2,210,176.1,210L176.1,210z M179,198.7
	l-2.1,0.2l0.1-0.1h-0.1v0.1l-2,1.1c-0.1-0.4-0.1-0.7-0.1-1.1l0.1,0.1c0,0,0-0.1,0-0.1l2-0.1l-0.1-1.6l2.2,0.5
	C179,198.1,179,198.4,179,198.7z M178.9,195.5l0.9-0.1c-0.3,0.6-0.5,1.2-0.8,1.9C179,196.7,179,196.1,178.9,195.5L178.9,195.5z
	 M183.9,205.6c0.3,0.7,0.4,1.3,0.4,2.1c-0.8-0.3-2.1-0.4-2.3-0.9c-1-2.4-1.8-5-2.7-7.4C180.9,201.4,182.4,203.5,183.9,205.6
	L183.9,205.6z M180.5,212.3c0-0.6,0-1.2,0-1.8c0.1,0.6,0.3,1.2,0.5,1.8L180.5,212.3z M181.4,210h-0.1C181.4,210,181.4,210,181.4,210
	c0.6-0.2,1.1-0.3,1.6-0.3c0.1,0,0.2,0.2,0.3,0.3C182.6,210,182,210,181.4,210L181.4,210z M187.4,216.4L187.4,216.4
	c-0.6-0.4-1.3-0.8-1.9-1.3s-1.7-1.1-1.6-1.3c0.5-1,1-2,1.7-2.9l2.7,2l-1.7,1.2l1.9,0.3L187.4,216.4z M190.1,216.8c0-0.3,0-0.5,0-0.8
	c0.1,0.1,0.2,0.3,0.2,0.4S190.1,216.6,190.1,216.8L190.1,216.8z M185.1,144.4c-0.1-0.1-0.2-0.3-0.3-0.4l1.7-0.9L185.1,144.4z
	 M186.7,142.3l-1.9-3l1.2-0.3c0.3,1.2,0.6,2.4,0.9,3.6C186.8,142.5,186.7,142.4,186.7,142.3z M186.7,136.3L186.7,136.3l0.1-0.1
	c0.1-0.6,0.2-1.3,0.4-1.9l0,0l1.4,1.2L186.7,136.3z M190.3,144.6c-0.1,0.1-0.5-0.4-0.7-0.7c0.4-0.1,0.7-0.3,1-0.5
	c0.6-0.6,1.1-1.4,1.4-2.2c0.3-0.9,0.4-1.9,0.5-2.9l1.5,4C192.9,143,191.6,143.9,190.3,144.6L190.3,144.6z M194.1,134.5
	c-0.2-0.3,0.5-1.1,0.7-1.7l2.1,2.8l-0.9,1.5C195.4,136.3,194.7,135.4,194.1,134.5L194.1,134.5z M197,140.2c-0.1,0-0.2-0.3-0.2-0.4
	c0.2-0.2,0.3-0.3,0.5-0.4c0.1,0.3,0.3,0.5,0.4,0.7C197.4,140.2,197.2,140.3,197,140.2L197,140.2z M198.3,145.9c-0.1,0-0.3,0-0.3,0
	c0-0.2,0-0.3,0-0.5c0.1,0,0.2,0,0.2,0S198.3,145.7,198.3,145.9L198.3,145.9z M201,137.7c-0.1-0.1-0.2-0.3-0.2-0.4s0.1-0.2,0.2-0.3
	c0.1,0.1,0.2,0.2,0.2,0.4S201.1,137.6,201,137.7L201,137.7z M201.7,134.5c-0.2-0.3-0.6-0.5-0.6-0.7s0.3-0.5,0.5-0.8
	c0.1,0.2,0.2,0.4,0.2,0.7C201.9,134,201.8,134.2,201.7,134.5L201.7,134.5z M189.5,129.6c-0.1,0-1.3-0.7-1.3-1.1
	c-0.5-8.7-1-17.4-1.5-26.1h-0.6c-0.9-7.7-1.9-15.5-2.9-23.2c-0.7-6,0.8-8.9,9.2-7.1c9.6,2,16.9,13.4,16,23.4
	c-0.7,7.9-2.8,15.5-7.1,22C198.3,122.2,193.6,125.7,189.5,129.6L189.5,129.6z M220.8,182.6h0.8c-0.2,0.7-0.5,1.5-0.7,2.2
	L220.8,182.6z M215.9,170.4l0.3,0.1l-0.3,0.1L215.9,170.4z M211.7,167.4v0.4l-0.5-0.2L211.7,167.4z M212.1,170.7
	c-0.1-0.1-0.2-0.2-0.3-0.3c0.1-0.2,0.3-0.5,0.5-0.7c0.1,0.1,0.3,0.2,0.3,0.3C212.4,170.3,212.3,170.5,212.1,170.7L212.1,170.7z
	 M214.4,180.4V180l0.4,0.1L214.4,180.4z M216.2,185.7c-0.1,0-0.3,0-0.4-0.1c0-0.1,0.1-0.3,0.1-0.3c0.1,0,0.3,0,0.4,0.1
	C216.3,185.5,216.3,185.7,216.2,185.7L216.2,185.7z M216.1,177.9c-0.9-0.5-1.7-1-2.5-1.6c-0.1-0.1,0.2-0.6,0.3-0.9l2.4,1.9
	C216.2,177.4,216.1,177.6,216.1,177.9L216.1,177.9z M218.3,174c-0.8,0.1-1.6,0.3-2.4,0.4c0-0.1,0-0.4,0-0.4c0.8,0,1.7,0,2.5,0
	C218.4,174,218.3,174,218.3,174L218.3,174z M218.8,177.1c0-0.8,0-1.7,0-2.5c0.2,0.9,0.3,1.8,0.5,2.7
	C219.1,177.2,218.8,177.2,218.8,177.1L218.8,177.1z M220.7,202.7c-0.2-0.3-0.4-0.7-0.5-1.1c-0.1-0.2,0.2-0.4,0.3-0.7
	c0.1,0.3,0.3,0.6,0.4,0.8C220.8,202.1,220.8,202.4,220.7,202.7L220.7,202.7z M221.3,188.3c-0.1,0.1-0.3,0.3-0.3,0.3
	c-0.2-0.1-0.4-0.2-0.6-0.3L221.3,188.3z M221.1,191.7l0.2,0.4c0,0.1-0.1,0.3-0.1,0.4c-0.1-0.1-0.3-0.3-0.4-0.4
	C220.9,192,221,191.8,221.1,191.7L221.1,191.7z M221.8,197.5c0.3,0.1,0.5,0.3,0.8,0.5c-0.1,0.1-0.3,0.3-0.3,0.3
	c-0.3-0.1-0.5-0.3-0.8-0.4C221.6,197.7,221.7,197.5,221.8,197.5L221.8,197.5z M222.6,205l0.1-0.4c0.1,0,0.3,0,0.3,0
	c0.1,0.1,0.1,0.3,0.1,0.4L222.6,205z M223,185.8l-1.8-0.7c0.6,0.1,1.2,0.1,1.8,0.2C223,185.5,223,185.7,223,185.8z M230.4,205.3
	c0.1,0.1,0.2,0.3,0.2,0.4s-0.1,0.3-0.2,0.4C230.4,205.9,230.4,205.6,230.4,205.3L230.4,205.3z M229.6,191.3l-0.1,0.4l-1.4-0.2
	L229.6,191.3z M226,207.1c0-0.3,0-0.5,0-0.8c0.1,0,0.2,0,0.3,0C226.2,206.5,226.1,206.7,226,207.1z M226.3,202.3
	c-0.4-0.5-0.7-1-0.9-1.6c0-0.1,0.6-0.4,1-0.7l1.6,1.2L226.3,202.3z M226.1,197.5l1.4-0.9c0.1-1.5,0.2-2.9,0.3-4.4l0.3,4.3
	c0.3,0.6,0.5,1.2,0.7,1.8L226.1,197.5z M230.6,209.4c-0.2-0.1-0.4-0.2-0.5-0.4c0.2-0.3,0.3-0.6,0.6-0.7s0.6,0,0.8,0.1
	C231.2,208.7,230.9,209.1,230.6,209.4L230.6,209.4z M232.2,200.1c0.1,0.1,0.2,0.2,0.2,0.4c0,0.1-0.1,0.2-0.2,0.3
	C232.2,200.6,232.2,200.3,232.2,200.1L232.2,200.1z M232.6,204.7c-0.1,0-0.2-0.2-0.3-0.4l0.6-0.2c0,0.2,0.1,0.3,0.1,0.5
	C232.9,204.6,232.8,204.8,232.6,204.7L232.6,204.7z"/>
<path class="st1" d="M138.9,232.8l0.4-1.4c0.4-1.1,0.9-2.3,1.6-3.3l4.3-5.5l-0.2-0.8l-2.3-2.2c0.5,0,1,0,1.3-0.2
	c0.4-0.6,0.8-1.3,1.1-2c0.3,0.7,0.6,1.4,1,2c0.6,0.8,1,1.5,0.8,1.9c1.3-0.6,2.7-0.9,4.1-0.8c0.3,0,0.7,0.1,1,0.2l0.8-0.1
	c-0.2-0.9-0.2-1.9,0-2.9l0.8-4.6l2.2-0.1l1.9-3.3c1.1-1.9,3.1-3.2,5.3-3.5c-1.1-0.8-2.9-0.6-5.6,0.5c-9.2,3.7-18.9,5-28.7,5.6
	c-3.6,0.2-5.3-0.9-5.6-4.6c-0.4-4.5-1.1-9-1.7-13.5c-0.6-4.3-1-8.6-1.7-12.9c-0.6-3.6,1.3-6,5.2-6.4c5.5-0.6,10.9-1.3,16.4-1.8
	c3-0.2,4.1-1.6,3.5-4.4s-1.2-5.6-1.8-8.4c-1.4-6-3.5-7.2-9.5-5.4c-3.1,0.9-6.1,1.9-9.2,2.5c-4.6,0.9-5.9-0.1-6.3-4.7
	s-0.3-9.1-0.7-13.7c-0.9-10-2-20.1-2.8-30.1c-0.4-5.2,0.1-5.8,5.2-5.8c9,0,18.1,0.6,27.2,0.6c10,0,11.5,1.2,10.5-10.3
	c-0.1-2.3-0.4-4.6-0.9-6.8c-0.6-2.6-2.1-4.1-5.3-3.9c-18.1,1.1-36.2,2.1-54.3,3c-2.4,0.1-3.3,1-3.2,3.5c0.3,10.4,0.2,20.8,0.5,31.2
	c0.4,17.3,1.1,34.6,1.6,52c0.1,3.6,0.4,7.2,0.4,10.9c0.1,14.6,0.1,29.2,0.3,43.8c0.1,6.3,2.3,8,8.6,7.7c9.3-0.5,18.7-1,28-1.5
	L138.9,232.8z M135.8,92l0.7,0.7c-0.1,0.3-0.2,0.5-0.3,0.8c-0.2-0.2-0.6-0.4-0.6-0.6S135.7,92.3,135.8,92z M125.1,93.6l0.5,0.1
	c0,0.1-0.1,0.3-0.1,0.4c-0.2,0-0.5-0.1-0.7-0.2L125.1,93.6z M110.1,101.1l-0.2,0.4l-0.1-0.4L110.1,101.1z M112.3,173.1
	c0-0.4,0-0.8-0.1-1.1l0.5,0.1C112.6,172.4,112.4,172.7,112.3,173.1L112.3,173.1z M113.3,182.4c0,0-0.2,0.1-0.3,0.1
	c-0.1-0.1-0.1-0.3-0.1-0.4c0,0,0.2-0.1,0.3-0.1C113.3,182.1,113.3,182.2,113.3,182.4L113.3,182.4z M114,201.4
	c-0.1,0.1-0.3,0.2-0.5,0.2c-0.1,0-0.3-0.1-0.4-0.2L114,201.4z M112.9,189.7c-0.1,0.6-0.1,0.9-0.1,1.3c-0.3-0.4-0.5-0.8-0.7-1.3
	c-0.1-0.3,0.2-0.6,0.3-0.9L112.9,189.7z M111.7,174.2c0-0.1,0.1-0.3,0.2-0.4c0,0,0.1-0.1,0.1-0.1C111.9,173.8,111.8,174,111.7,174.2
	L111.7,174.2z M109.3,152.5c-0.2,0.1-0.8-0.5-0.8-0.8c0.2-0.7,0.4-1.4,0.8-2.1l1.7,1.8C110.4,151.8,109.9,152.1,109.3,152.5
	L109.3,152.5z M109,181c0,0-0.2-0.2-0.3-0.3l0.7-0.5l0.2,0.4C109.5,180.7,109.2,180.9,109,181z M110,197l-1.2-2l0.8-0.2L110,197z
	 M106.5,177.9c-0.9-0.7-0.6-2.8-0.9-4.3c-0.2-0.6-0.4-1.3-0.6-1.9l3.6-0.4C109.4,173.1,107.3,178.6,106.5,177.9L106.5,177.9z
	 M108.3,185.8c-0.2,0-0.3,0-0.5,0c-0.1,0-0.1-0.2-0.1-0.4l0.4-0.2C108.1,185.4,108.2,185.6,108.3,185.8L108.3,185.8z M109.2,162.8
	c-0.1,0-0.3-0.1-0.4-0.2h0.8C109.4,162.6,109.2,162.8,109.2,162.8L109.2,162.8z M110.1,168.4l-1,0.1c0-0.3,0-0.6,0-0.9
	c0.2,0,0.4-0.1,0.5,0c0.2,0.2,0.3,0.5,0.4,0.7L110.1,168.4z M108.7,159.9l-0.5-0.6l0.4-0.3l0.3,0.4
	C108.7,159.6,108.6,159.8,108.7,159.9L108.7,159.9z M106.9,157.6l-2-1.9c1.2,0,3.1-2.6,3.3,0.8C108.2,156.8,107.3,157.2,106.9,157.6
	L106.9,157.6z M106.7,157.9l-0.6,0.9l-0.3-0.4L106.7,157.9z M105.5,164.3l0.3,0.4c-0.3,0.2-0.5,0.4-0.8,0.5L105.5,164.3z
	 M111.3,199.1l-0.7,0.4c-0.1-0.6-0.3-1.2-0.4-1.8L111.3,199.1z M110.3,183.6c-0.1-0.1-0.1-0.4-0.2-0.6c0.2,0,0.4-0.1,0.5,0
	c0.2,0.2,0.4,0.5,0.5,0.7c-0.3,0-0.6,0-0.9-0.1L110.3,183.6z M108.2,133l0.1-0.4l0.4,0.3L108.2,133z M109.3,138.3l0.1,0.3l-0.5-0.2
	L109.3,138.3z M108,117.2c-0.1-0.1-0.2-0.2-0.4-0.3c0.2-0.1,0.4-0.1,0.6-0.2c0.1,0.1,0.1,0.3,0.1,0.4
	C108.3,117.2,108.1,117.2,108,117.2z M108.4,129.3l-3.1,1.7c0-0.7,0-1.5,0-2.2L108.4,129.3z M104.8,116.3l0.2-0.5l0.1,0.5
	L104.8,116.3z M104.7,112.2l-0.7-0.9c0.3-0.1,0.6-0.2,0.9-0.3c0.2,0,0.4,0.3,0.6,0.4L104.7,112.2z M103.3,99c0,0-0.3-0.4-0.4-0.6
	l1.7-0.2C104.1,98.5,103.7,98.8,103.3,99z M105,131.7c-0.1,0.6-0.2,1.2-0.3,1.8l-0.5-0.2L105,131.7z M104.1,140.2
	c0.1,0.3-0.2,0.7-0.3,1l-1-0.4l0.4-1C103.6,139.9,104.1,140,104.1,140.2L104.1,140.2z M104,155l-0.4-0.3
	C103.7,154.8,103.8,154.9,104,155L104,155z M102.3,114.7v0.4l-0.4-0.2L102.3,114.7z M101.3,117.6c0.2-0.2,0.4-0.4,0.6-0.6
	c0.1,0.1,0.3,0.3,0.2,0.4c-0.2,0.2-0.4,0.4-0.6,0.6C101.4,117.8,101.3,117.6,101.3,117.6L101.3,117.6z M105.6,194.9l0.8,1.3
	c-0.2,0.3-0.4,0.5-0.5,0.7c-0.1-0.3-0.2-0.7-0.3-1C105.5,195.5,105.5,195.2,105.6,194.9L105.6,194.9z M104.2,185.5l0.3,0.3l-0.1,0.4
	l-0.5-0.4L104.2,185.5z M104.6,191.5l0.3,0.4c-0.1,0.1-0.1,0.3-0.2,0.5c-0.2-0.2-0.3-0.4-0.5-0.6L104.6,191.5z M105.3,210.2
	c0.2,0.6,0.4,1.2,0.6,1.8c0,0.2-0.3,0.5-0.5,0.8l-1.1-2.1L105.3,210.2z M104.1,206.2c-0.1-0.2,0.1-0.4,0.2-0.7
	c0.3,0.3,0.6,0.5,0.8,0.7s-0.3,0.4-0.4,0.7C104.4,206.7,104.2,206.4,104.1,206.2L104.1,206.2z M101.9,165.1c0.2,0.1,0.4,0.1,0.6,0.2
	h-0.9C101.7,165.3,101.8,165.1,101.9,165.1L101.9,165.1z M102.5,177.8l0.8,0.6c-0.2,0.2-0.4,0.3-0.6,0.4c0,0-0.3-0.2-0.3-0.3
	C102.4,178.3,102.4,178.1,102.5,177.8L102.5,177.8z M106.9,221.5c-0.8-1.1-1.7-2.2-2.3-3.4c-0.2-0.4,0.1-1,0.2-1.5
	c1,1.3,2,2.5,3,3.9L106.9,221.5z M108.4,224.9l0.1-0.5l0.4,0.1L108.4,224.9z M105.9,200c0-0.2-0.1-0.4-0.1-0.5h2L105.9,200z
	 M106.7,183.1c-0.3-0.4-0.6-0.7-0.9-1l0.4-1.2c0.3,0.4,0.6,0.8,0.8,1.2C107.1,182.4,106.8,182.8,106.7,183.1L106.7,183.1z
	 M108.6,192.2l-0.4,0.2c-0.2-0.4-0.3-0.8-0.5-1.2L108.6,192.2z M108.3,201.3c0-0.5,0-1-0.1-1.4c0.1,0.4,0.3,0.7,0.4,1.1
	C108.7,201.1,108.4,201.2,108.3,201.3L108.3,201.3z M109.9,220.3c0.1-0.1,0.3-0.2,0.4-0.2c0.1,0.3,0.3,0.5,0.4,0.8l-1,0.1
	C109.7,220.8,109.8,220.6,109.9,220.3L109.9,220.3z M110.6,224.9c-0.1-0.1-0.3-0.3-0.2-0.4c0.1-0.3,0.2-0.5,0.4-0.8l0.4,0.8
	C111,224.7,110.8,224.8,110.6,224.9L110.6,224.9z M110.2,213.4c0,0,0.5-0.8,0.6-0.7c1,0.4,2,0.8,2.9,1.2l-1.3,1.8
	C111.6,215,110.8,214.2,110.2,213.4L110.2,213.4z M114.3,223.7c-0.2-0.3-0.5-0.6-0.5-0.9s0.3-0.6,0.4-0.9c0.2,0.3,0.5,0.6,0.5,0.9
	S114.4,223.5,114.3,223.7L114.3,223.7z M114.4,219.7c0,0-0.1-0.2-0.1-0.3c0.1-0.1,0.3-0.1,0.4-0.1c0,0,0.1,0.2,0.1,0.3
	C114.7,219.6,114.5,219.7,114.4,219.7L114.4,219.7z M114.5,205.7l-0.3-0.1l0.4-0.2L114.5,205.7z M108.7,97.7
	c-1.3,0.2-2.5,0.4-3.8,0.4l-1-2.4c0.7,0.5,1.4,0.9,2.2,1.1c0.4,0.1,1-0.6,1.5-0.9c0-0.8,0-1.5,0-2.3c0.1,0.3,0.2,0.5,0.3,0.8
	c0,0.5-0.1,1-0.2,1.5c0.5,0,1,0,1.6-0.1C109,96.5,109,97.6,108.7,97.7z M116.6,223.6c-0.1-0.2-0.4-0.4-0.4-0.7s0.2-0.5,0.3-0.7
	c0.1,0.1,0.2,0.3,0.2,0.5C116.7,222.9,116.6,223.2,116.6,223.6z M114.2,161l-0.1-0.5h0.3L114.2,161z M117.9,163l0.2,0.8
	c-0.1-0.2-0.2-0.3-0.3-0.5C117.8,163.2,117.9,163.1,117.9,163z M112.5,92.3v0.3l-0.4-0.1L112.5,92.3z M112.7,99.2v0.3l-0.3-0.2
	L112.7,99.2z M119,220.6c0-0.2,0-0.5,0.1-0.7c0.2-0.3,0.5-0.5,0.7-0.7c0.1,0.3,0.3,0.5,0.5,0.9L119,220.6z M119.4,215.1l0.2-0.5
	l0.2,0.5L119.4,215.1z M116.9,170.8c-0.5-0.1-0.9-0.5-1.2-0.9c-0.1-0.3,0.3-0.8,0.6-1.6l1.5,1.7
	C117.5,170.4,117.1,170.9,116.9,170.8L116.9,170.8z M117.8,166.3L117.8,166.3L117.8,166.3L117.8,166.3z M118.3,164.2
	c2.7,1.3,0.3,1.4-0.4,2C118,165.5,118.1,164.8,118.3,164.2L118.3,164.2z M123.5,224.4c-0.4-0.3-0.8-0.7-1.2-1
	c0.5,0.2,0.9,0.3,1.4,0.5C123.7,223.9,123.5,224.3,123.5,224.4L123.5,224.4z M133.9,224.6c-0.1-0.1-0.3-0.2-0.3-0.3
	c0.1-0.2,0.2-0.4,0.3-0.6C133.9,224,133.9,224.3,133.9,224.6L133.9,224.6z M141.9,222.7c-0.2,0.5-0.4,1-0.5,1.4
	c-0.2-0.6-0.3-1.1-0.5-1.6L141.9,222.7z M140.6,225.1c0.2-0.2,0.3-0.3,0.5-0.4l-0.4,0.9C140.7,225.4,140.5,225.2,140.6,225.1
	L140.6,225.1z M138.2,218.1l1.3,1.1l-1.8-0.3C137.8,218.7,138,218.4,138.2,218.1L138.2,218.1z M137.3,224.6c0,0.2-0.1,0.3-0.2,0.6
	c-0.1-0.2-0.1-0.3-0.1-0.5C137,224.7,137.1,224.7,137.3,224.6L137.3,224.6z M125.3,223.6c0.6-1,1.4-1.9,2.1-2.8l0.3,0.8l-2.1,3.5
	C125.5,224.6,125.1,223.9,125.3,223.6L125.3,223.6z M128.7,228.1c-0.4-0.1-0.8-0.2-1.1-0.4c0.2-0.3,0.4-0.7,0.7-0.7s0.6,0.3,0.9,0.5
	C129,227.6,128.8,228.1,128.7,228.1L128.7,228.1z M130,223.6c0-0.2-0.1-0.4-0.1-0.6c0.1,0,0.3,0,0.4,0.1s0.1,0.3,0.1,0.4L130,223.6z
	 M129.3,218.5c-0.5-0.3-1.1-0.7-1.5-1.1c0.7,0,1.4,0,2.1,0.2c0.4,0.2,0.6,0.7,0.9,1.1C130.3,218.8,129.8,218.7,129.3,218.5
	L129.3,218.5z M134.6,222.2l-0.7,1.1l0,0l-1.9-1.4L134.6,222.2z"/>
<path class="st1" d="M146.1,221.7c-0.3,0.1-0.6,0.1-0.9,0.1c0,0.3,0,0.5,0.1,0.8l0.5-0.6C145.8,221.8,145.9,221.8,146.1,221.7z"/>
<path class="st1" d="M127.6,127.3c0,0.3,0.1,0.7,0.2,1c0.2-0.2,0.4-0.3,0.7-0.5c-0.1-0.3-0.3-0.6-0.4-1
	C127.8,127,127.6,127.1,127.6,127.3z"/>
<path class="st1" d="M159.9,226.4l-1.4,0.2c0.1,0.4,0.3,0.7,0.5,1l4.1,4.6l0.8,0.9c0.3,0.4,0.8,0.7,1.3,0.9c0.1,0,0.1,0,0.2,0
	c0.3-0.1,0.4-0.7,0.5-1.4c0-0.1,0-0.2,0-0.3l-0.2-7.2c0-0.4,0-0.6,0.1-0.6s0.2,0.2,0.3,0.6l1.7,4.9c-0.1,0.1-0.1,0.2-0.1,0.2
	c-0.2,0.6,0,1.1,0,1.9c0.2,0.1,0.5,0.1,0.7,0.2h0.2c0.1,0.3,0.3,0.5,0.5,0.8c0.1,0.2,0.3,0.3,0.5,0.4l0,0c0.2,0,0.4-0.1,0.6-0.2
	c0.3-0.3,0.5-0.6,0.7-1l3.2-6.7c0.3-0.8,0.3-1.8-0.2-2.6l-2.6-4.1c-0.5-0.8-1.2-1.5-1.9-2.2l-4.1-3.4c-0.2-0.2-0.4-0.3-0.7-0.3
	c-0.5,0-0.9,0.2-1.2,0.6l-2.7,4.5c-0.4,0.6-0.6,1.3-0.9,2l0,0c0-0.1,0-0.1-0.1-0.2c-0.1-0.2-0.3-0.3-0.4-0.3h-0.2
	c-0.1,0.5-0.1,1,0.4,1c0,0,0.1-0.1,0.1-0.1c0,0.1,0,0.1,0,0.2l-1.1,4.4c-0.1,0.5-0.1,1,0.1,1.5C158.7,226,159.7,225.7,159.9,226.4z"
	/>
<path class="st1" d="M145.5,248.1l1.5,1.9c0.2,0.3,0.6,0.6,1,0.7c0.1,0,0.3,0,0.3-0.1c0.2-0.7,0.3-1.4,0.3-2.1l-0.4-4.6
	c-0.1-1,0.1-1.9,0.3-2.9l1.3-4.1c0.1-0.4,0.2-0.6,0.3-0.6s0.1,0.2,0.1,0.6l0.1,3.9c0,1,0.2,1.9,0.4,2.9l0.9,4.1
	c0.2,0.9,0.9,1.6,1.7,2l1.4,0.5c0.1,0,0.2,0.1,0.4,0.1c0.7,0.1,1.3-0.4,1.4-1l0.4-1.6l0,0c0.1-0.1,0.2-0.1,0.2-0.2h-0.1l0.8-2.8l0,0
	c0,0,0.1,0,0.1,0h0.1c0.2,0,0.4-0.1,0.6-0.2l0.3-0.2c0.1-0.1,0.2-0.1,0.3-0.1c-0.3,0-0.2-0.3-0.4-0.4c0-0.1-0.1-0.1-0.2-0.1h-0.1
	c0,0.5-0.4,0.5-0.6,0.7l0,0c0.1-0.4,0.2-0.7,0.4-1.1c-0.2,0.1-0.4,0-0.6-0.1c0-0.4,0.7-0.3,0.8-0.6c0.1,0,0.1,0.1,0.1,0.1
	c0.2-0.4,0.3-0.7,0.5-1l2.5-4.3c0.4-0.7,0.3-1.7-0.3-2.3l-3.2-3.2l-0.4-0.4c-0.6-0.5-1.2-1-1.8-1.4l-4.1-2.7
	c-0.2-0.1-0.4-0.2-0.7-0.2c-0.5-0.1-1.1,0.2-1.4,0.6l-1.1,1.6l0,0c0-0.1,0-0.2-0.1-0.3c-0.1-0.1-0.3-0.2-0.5-0.2
	c0,0.1,0,0.1,0.1,0.2c0.1,0.4-0.1,0.7,0,1l-0.3,0.4l-0.3,0.4l-0.3,0.5c-0.5,0.8-1,1.7-1.3,2.6l-1.3,3.9c-0.3,0.9-0.4,1.9-0.4,2.9
	l0.1,3.9c0.1,0.9,0.4,1.8,1,2.6L145.5,248.1z M160.8,235.1l0.2,0.4l-1,0.4c-0.1-0.1-0.1-0.2-0.2-0.3L160.8,235.1z M159.5,238.3
	l-2,1.5c-0.6-0.8-0.4-1.5-0.1-2.4L159.5,238.3z M156.4,233.1c0.5,0.4,1,0.8,1.5,1.3c0.2,0.2,0.3,0.5,0.3,0.8c0,0,0,0,0,0.1
	c0,0.5-0.3,0.9-1,1.1c-0.9-0.6-0.3-0.7,0.5-1.1c0-0.1,0-0.1,0-0.2l-1.5-0.5C156.2,234.1,156.2,233.8,156.4,233.1L156.4,233.1z
	 M154.7,235.6c0.5,0.5,0.9,1.1,1.2,1.8c0.4,0.8,0.1,1.4-1,2.3c-0.4-1.4-0.8-2.7-1.3-4.2C154.1,235.4,154.6,235.3,154.7,235.6
	L154.7,235.6z M154,242.7c0.3,0,0.3-0.3,0.7-0.3c0.1,0.3-0.2,0.4-0.1,0.7c-0.3,0.1-0.3-0.1-0.5-0.1L154,242.7z M147.6,241.4
	c-0.2-0.2-0.4-0.4-0.4-0.5s0.3-0.3,0.4-0.4c0.2,0.2,0.3,0.3,0.4,0.5C148.1,241.1,147.8,241.2,147.6,241.4L147.6,241.4z M147.5,236.3
	c0.2,0,0.4,0.3,0.4,0.6s-0.3,0.4-0.4,0.4c-0.3-0.1-0.7-0.3-0.9-0.4C147,236.5,147.3,236.3,147.5,236.3L147.5,236.3z"/>
<path class="st1" d="M177.7,253.1l2.9-3.2c0.5-0.7,0.6-1.6,0.2-2.3l-3.7-5.5c-0.5-0.8-1.3-1.4-2.1-1.9l-5.6-2.8
	c-0.2-0.1-0.4-0.2-0.6-0.2c-0.6-0.1-1.3,0.1-1.7,0.6l-4.1,4.6c-0.6,0.7-1.1,1.6-1.4,2.5l-2.1,6.2c-0.2,0.8,0.1,1.6,0.9,2l3.8,1.8
	c0.9,0.4,1.6,1,2.3,1.7l2.8,2.9c0.1,0.2,0.3,0.3,0.5,0.3c0.2,0,0.4-0.2,0.3-0.7l-0.2-1.6l0,0c0.4-0.9,0.6-1.9-0.2-2.4
	c0.1,0.2,0.1,0.4,0.1,0.6c0,0.1,0,0.2-0.1,0.3l0,0l-0.1-0.8c-0.1-1-0.2-1.9-0.2-2.9l0.1-4.6c0-0.4,0.1-0.6,0.1-0.6s0.1,0.2,0.2,0.6
	l1,4.6c0.1,0.4,0.2,1,0.4,1.5h-0.2c-0.4,0-0.8,0.2-1,0.6c0.2,0.3,0.4,0.3,0.5,0.3c0.1,0,0.2,0,0.3-0.1l0.2-0.1c0.1,0,0.2,0,0.3-0.1
	c0.1,0.2,0.1,0.4,0.2,0.6l0.2,0.7c0,0.2,0,0.5,0.1,0.7c0,0.1,0.1,0.1,0.1,0.2l0.8,2.6c0.1,0.4,0.3,0.6,0.5,0.6s0.4-0.1,0.6-0.5
	l2.2-3.9C176.5,254.6,177,253.8,177.7,253.1z M165.2,252.4c0.6-0.1,0.8,0.3,0.8,0.9C165.4,253.4,165.3,253,165.2,252.4L165.2,252.4z
	 M164.6,244.6c0-0.5,0.7-0.5,0.7-1C165.9,243.9,165.1,244.6,164.6,244.6z M168,257.3c-0.1-0.5-0.1-0.9-0.2-1.4
	c0.6,0.2,1,0.7,1.2,1.2C168.7,257.3,168.4,257.4,168,257.3L168,257.3z M167.7,249.1c-0.4-0.8-0.5-1.7-0.4-2.6
	C168.2,247.2,167.9,248.1,167.7,249.1L167.7,249.1z M171.1,238.7c0.6-0.2,0.7,0.5,0.5,0.8C171,239.7,170.8,239,171.1,238.7
	L171.1,238.7z M171.4,244.6c0.2-0.4,0.3-0.9,1.1-0.9C172.3,244.2,172.2,244.6,171.4,244.6L171.4,244.6z M172.7,243.7
	c-0.4-0.3,0-0.7,0.4-0.8C173.2,243.4,173.2,243.7,172.7,243.7L172.7,243.7z"/>
<path class="st1" d="M175,230.4c-0.1,0.2-0.1,0.4,0,0.6c0,0,0,0,0,0.1l-1,2.1c0,0.1-0.1,0.2-0.1,0.2c-0.2,0.7,0.1,1.5,0.7,1.9l4.1,3
	c0.6,0.4,1.1,1,1.5,1.6c0,0.1,0,0.1,0,0.2h0.2c0.1,0.1,0.2,0.2,0.2,0.3l2.6,4.5c0.2,0.3,0.5,0.5,0.9,0.6c0.3,0,0.7-0.1,0.9-0.4
	l0.3-0.3c0.6-0.7,0.9-1.6,0.8-2.5v-0.1c0,0,0,0,0-0.1l0,0l-0.1-0.8l0,0l0,0l-0.5-3c-0.1-0.8-0.3-2.1-0.5-2.9v-0.1
	c0.1,0.1,0.2,0.2,0.3,0.3c0.1-0.1,0.1-0.1,0.2-0.2c0,0,0-0.1,0-0.1c0-0.1,0.1-0.1,0.1-0.2c0,0,0-0.1,0-0.1c0-0.1,0-0.1,0-0.2
	s0-0.1,0-0.1c0-0.1,0-0.1,0-0.2l0,0c0,0,0-0.1,0-0.1c0,0,0-0.1-0.1-0.1l-0.1-0.1l-0.1-0.1c0,0-0.1-0.1-0.2-0.1l-0.1-0.1
	c-0.1,0-0.2-0.1-0.3-0.1l0,0l-0.4-2.3c-0.1-0.4-0.1-0.7,0-0.6s0.2,0.2,0.4,0.5l1.2,2.1c1.1-0.6,1.5-0.5,2.6,0.6
	c-0.9,0.9-1.6,0.1-2.4-0.2l0.4,0.8l0.1,0.3c0.4,0.9,0.8,1.8,1.1,2.7l1.1,3.6c-0.1,0-0.1,0-0.2,0.1l0,0c-0.1,0.1-0.2,0.1-0.2,0.2
	c-0.1,0.1-0.1,0.2-0.1,0.3l0.3,0.1c0.1,0,0.2,0,0.3,0h0.2c0.3,0.8,0.8,1.4,1.5,1.9c0.1,0.1,0.2,0.1,0.4,0.1c0.6,0,1.1-0.3,1.4-0.9
	l1.6-3.3c0.4-0.9,0.4-1.8,0.1-2.7l-0.7-1.6l-0.9-2.3c-0.4-0.9-0.9-1.7-1.5-2.5l-2.6-3.2c-0.2-0.3-0.5-0.6-0.8-0.8l-0.1,0.1l-1-1.1
	l-0.2-0.2l-0.1-0.1l0,0l0,0l-2.3-1.8l0,0h0.1c0.1-0.1,0.1-0.2-0.2-0.4c-0.1,0-0.1,0.1-0.1,0.1l-0.1,0.1l0,0l-0.7-0.6
	c-0.2-0.2-0.5-0.3-0.8-0.3c-0.5-0.1-1,0.1-1.3,0.5l-3.2,3.8c-0.6,0.7-1.1,1.6-1.6,2.4H176c-0.2,0-0.4,0-0.6,0.1
	c-0.1,0.2,0,0.4,0.1,0.5c0.1,0,0.1,0.1,0.2,0.1l0,0l-0.5,1.1l0,0c0-0.1-0.1-0.2-0.1-0.3L175,230.4z M190.2,230.7l0.2,1.4
	C189.7,231.6,189.7,231.6,190.2,230.7L190.2,230.7z M187.3,231.3c0.3,0.3,0.6,0.5,0.7,0.7s-0.3,0.4-0.4,0.6
	c-0.2-0.2-0.4-0.4-0.6-0.6C186.9,231.9,187.1,231.7,187.3,231.3L187.3,231.3z M182.2,236.2l-0.9-1.3l0.4-0.3
	C182.5,234.8,182.5,235.4,182.2,236.2L182.2,236.2z M181.2,231c0.5,0.1,1,0.2,1.7,0.3l0.4,1.2c-0.3-0.2-0.7-0.4-1.1-0.4
	c-0.2,0-0.4,0.3-0.7,0.5c-0.3-0.6-0.5-1-0.7-1.5C180.9,231.1,181.1,231.1,181.2,231L181.2,231z M177.2,233.2c0.6-0.3,0.6,1-0.1,0.7
	C177.2,233.6,177.4,233.5,177.2,233.2L177.2,233.2z"/>
<path class="st1" d="M136,260c0.1-0.4,0.2-0.6,0.3-0.5c0.1,0,0.1,0.2,0.1,0.6v2l0,0c0.1,0.1,0.1,0.2,0,0.3v1.9c0,1,0.1,1.9,0.4,2.9
	l1.1,3.8c0.2,0.7,0.6,1.4,1,2c-0.1-0.1-0.3-0.1-0.5-0.2c0,0.6,0.5,1.1,1.1,1.1c0-0.1,0-0.2-0.1-0.3l3.1,3.2l0.4,0.4
	c0.1,0.2,0.3,0.3,0.5,0.3c0.2,0,0.4-0.2,0.3-0.7l-0.7-5v-0.1c-0.1-1-0.2-1.9-0.1-2.9l0.2-5.2c0.1-1,0.2-1.9,0.5-2.9l0.9-3.1l0.5-1.8
	c0.1-0.6,0.1-1.3-0.2-1.8c-0.1-0.2-0.2-0.5-0.4-0.7l-2-2.3c-0.7-0.7-1.4-1.4-2.1-2l-2.8-2.2c-0.2-0.2-0.4-0.3-0.7-0.3
	c-0.5,0-1,0.2-1.2,0.6l-2.6,4.3c-0.5,0.8-0.9,1.7-1.3,2.6l-1.8,4.5c-0.3,0.9-0.4,1.9-0.4,2.8l0.6,4.8c0.2,1,0.5,1.9,0.9,2.7l2.3,4
	c0.2,0.3,0.4,0.5,0.6,0.5s0.3-0.1,0.4-0.5c0.1-0.7,0.4-1.2,0.6-1.3s0.2-0.3,0.2-0.7l0,0c0,0,0,0,0.1-0.1c0,0,0.1-0.1,0.1-0.2
	c0-0.1-0.1-0.2-0.1-0.3c0-0.1,0-0.2-0.1-0.4l-0.6-3.4c0-0.2-0.1-0.5-0.1-0.8l0,0c0.2,0,0.5-0.1,0.5-0.2s0,0,0,0s0-0.1-0.1-0.1
	c-0.1-0.1-0.2-0.1-0.3-0.1l-0.1,0.1c0-0.6,0.1-1.1,0.3-1.7L136,260z M134.7,259.6l0.9-0.1c0.3,0.6-0.5,0.4-0.8,0.5
	C134.7,259.8,134.7,259.7,134.7,259.6L134.7,259.6z M131.8,264.8c-0.4-0.1-0.8-0.4-0.5-0.8C131.7,263.9,131.7,264.3,131.8,264.8
	L131.8,264.8z M131.8,259l-0.7,0.1c-0.1-0.4,0.2-0.7,0.5-0.8c0,0,0,0,0.1,0C131.7,258.5,131.8,258.7,131.8,259L131.8,259z"/>
<path class="st1" d="M209.8,266.4c-0.2,0-0.4,0.1-0.6,0.5l-2.2,3.4c-0.4,0.7-1.2,1.8-1.7,2.4l-2.6,3.4c-0.4,0.6-1.2,1.4-1.7,1.9
	c0,0.3-0.1,0.4-0.4,0.4l0,0l-3,2.8c-0.1,0.1-0.1,0.1-0.2,0.2l0,0l-0.7-0.1c0,0.1,0,0.2,0,0.3c0,0.1-0.1,0.1-0.1,0.2
	c-0.1,0.1-0.3,0.2-0.2,0.5c-0.4,0.3-0.7,0.5-1,0.7H195c-0.1-0.2-0.2-0.4-0.4-0.5c-0.1-0.1-0.2-0.1-0.3-0.1c-0.1,0-0.3,0-0.4,0.1
	c0,0.1,0,0.2,0,0.3c0.1,0.2,0.2,0.4,0.4,0.5c0.1,0,0.1,0.1,0.2,0.1l-3.4,2c-0.7,0.4-0.6,0.8,0.2,0.9l0,0l3.8,0.4
	c1,0.1,1.9-0.1,2.8-0.4l3.3-1.3c0.9-0.4,1.7-0.9,2.4-1.5l3.1-2.8l0,0h0.1c0.2,0,0.4-0.1,0.5-0.3c0-0.1,0.1-0.1,0.1-0.2
	c0-0.1,0.1-0.2,0.1-0.2c0,0,0,0,0-0.1l0,0l0,0c0-0.3-0.3-0.3-0.3-0.7c0.2-0.2,0.6-0.3,1-0.3l0,0c0.2-0.3,0.3-0.6,0.5-0.9l1.9-4.3
	c0.3-0.9,0.5-1.8,0.3-2.8l-0.7-3.9C210.1,266.6,210,266.4,209.8,266.4z M195.3,286.5c-0.3-0.8,0.5-0.8,1.1-0.9
	C196.3,286.2,196,286.5,195.3,286.5z M196.7,284.5c0.1-1-0.3-1.5-0.2-2.3c0.2-0.1,0.3,0,0.4,0.1C197.3,283,197.4,284.3,196.7,284.5
	L196.7,284.5z M203.5,282.8l-0.7,0.1c0.1-0.6,0-1.3-0.1-1.9l0.5-0.1c0,0.7-0.1,0.7,0.5,0.8C203.7,282.1,203.6,282.5,203.5,282.8
	L203.5,282.8z M203.9,279.8c-0.4,0.2,0-0.8-0.4-0.6c0-0.2,0.3-0.2,0.5-0.2C204.1,279.2,204.1,279.5,203.9,279.8L203.9,279.8z
	 M203.3,277.8c-0.2-0.4-0.5-1.1-0.2-1.5C203.9,276,204,277.8,203.3,277.8z M209.4,270c0.2-0.1,0.9,0.1,0.8-0.3
	c0.2,0,0.2,0.4,0.3,0.7C210,270.5,209.4,270.6,209.4,270L209.4,270z"/>
<path class="st1" d="M161.5,290.1l-4.5-1.2c-0.8-0.2-2-0.6-2.8-0.9l-2.4-0.9c0-0.1,0-0.1,0-0.2c0,0,0,0,0-0.1c-0.1,0-0.2,0-0.2,0
	c-0.2-0.1-0.3-0.2-0.5-0.3c0,0.1,0,0.2,0.1,0.3l-1-0.4c-0.6-0.3-1.2-0.6-1.8-0.9c0-0.1,0-0.1,0-0.2c0-0.2,0-0.3-0.2-0.4
	c0,0-0.1,0-0.1,0h-0.2c0,0.1,0,0.2-0.1,0.2l-0.2-0.1l-3.5-2.5c-0.7-0.5-1.3-1-1.9-1.5c-0.1-0.1-0.3-0.2-0.4-0.3l-3.3-3.2
	c-0.1-0.2-0.3-0.3-0.5-0.3c-0.2,0-0.4,0.2-0.3,0.7l0.9,4.5c0.2,0.9,0.6,1.8,1.1,2.5c-0.1,0-0.2,0.1-0.3,0.1c0,0-0.1,0.1-0.1,0.2
	c0.1,0.1,0.2,0.2,0.4,0.2h0.2c0.1,0,0.1,0,0.2-0.1l0,0l1.4,1.8l1,1.4c0.6,0.7,1.4,1.4,2.2,1.8l4.1,2.1c0.4,0.2,0.9,0.3,1.3,0.4l0,0
	l-0.1,0.5l0.7,0.1c0-0.2,0-0.3,0-0.5c0.2,0,0.5,0,0.7,0l1.6-0.2l0.1,0.2c0.3-0.2,0.7-0.3,1-0.3l0,0l0.6-0.1c1-0.2,1.9-0.4,2.9-0.6
	l3.6-1.1C162.3,290.6,162.3,290.3,161.5,290.1z M141,280.5c0.3-0.1,0.7,0,0.9,0.4c0.1,0.2,0.1,0.4,0,0.5
	C141.4,281.3,141.1,280.9,141,280.5z M142.9,287.1c-0.6-0.2,0.3-0.6,0.2-0.9c0.2,0,0.4,0.2,0.4,0.5
	C143.4,286.9,142.8,286.8,142.9,287.1L142.9,287.1z M145.3,288c0.6-0.1,0.8,0.3,1.1,0.5C146.1,289,145.2,288.7,145.3,288L145.3,288z
	 M151.9,288.8c-0.3-0.6,0.6-0.3,1-0.5C152.8,288.5,152,289,151.9,288.8L151.9,288.8z"/>
<path class="st1" d="M211.6,248.2c-0.3-0.9-0.8-1.8-1.3-2.6l-2.7-3.8c-0.6-0.8-1.3-1.5-2-2.2l-3.6-3.3c-0.1-0.1-0.2-0.1-0.3-0.2
	c-0.1-0.1-0.3-0.1-0.4-0.1c-0.2,0-0.3,0-0.5,0c-0.3,0.1-0.5,0.3-0.7,0.5l-2,2.9c-0.3,0.4-0.6,0.9-0.9,1.4l0,0
	c-0.1-0.1-0.2-0.1-0.3-0.1l0,0c-0.1,0-0.1,0-0.2,0c-0.1,0-0.1,0.1-0.1,0.1c0,0.1,0,0.2,0.1,0.3l0,0l0.1,0.1c0.1,0,0.1,0,0.2,0h0.1
	c-0.1,0.3-0.3,0.5-0.4,0.7l-1.6,3.3c-0.3,0.8-0.2,1.7,0.3,2.4l1.6,1.9l0,0l0,0c-0.1,0.1-0.1,0.2,0,0.2c0,0,0,0,0,0c0,0,0.1,0,0.1,0
	c0,0,0.1,0,0.1,0l0,0l1.6,1.9c0.6,0.7,1.1,1.6,1.5,2.4l2,4.9c0.3,0.9,0.6,1.8,0.8,2.8l0.8,4.8c0.1,0.4,0.2,0.6,0.3,0.6
	s0.3-0.2,0.5-0.5l0.1-0.2l0.6,0.2c0.6,0.2,1.2,0.4,1.8,0.5c0-0.2,0-0.5,0.2-0.6c0-0.1,0-0.3,0.1-0.4c0-0.1,0-0.1,0-0.2
	c-0.2-0.1-0.3-0.1-0.5-0.2c-0.2,0-0.3-0.1-0.5-0.1c-0.5,0-0.9,0-1.4,0.1l0,0l1.8-4c0.3-0.9,0.5-1.8,0.4-2.8l-0.6-3.5
	c-0.1-0.8-0.4-2.1-0.5-2.9l-0.8-3.8c-0.1-0.4-0.1-0.7,0-0.6s0.2,0.2,0.4,0.5l1.9,3.3c0.5,0.9,0.8,1.8,1.1,2.7l0.4,1.9
	c0.1-0.1,0.1-0.2,0.1-0.3c0.4,0,0.4,0.5,0.5,1c-0.2,0-0.3,0-0.5,0l0.2,0.8c0.2,0.8,0.4,1.5,0.6,1.5c0.4,0.3,0.8,0.7,1.2,1.1
	c0.1,0.2,0.3,0.3,0.5,0.4c0.3,0,0.5-0.2,0.6-0.7l0.9-4.9c0.1-0.9,0.1-1.9-0.2-2.8L211.6,248.2z M197.5,246.9
	c-0.4-0.1-0.3-1.1,0.2-0.9C197.9,246.5,197.5,246.6,197.5,246.9L197.5,246.9z M200.8,240.5c0.5-0.5,1.7-0.3,1.8,0.4
	C201.7,241.1,201.4,240.5,200.8,240.5L200.8,240.5z M203.4,253.1c1-0.1,1.2,0.7,1.9,0.9C204.6,254.5,203.5,253.9,203.4,253.1
	L203.4,253.1z M205,246.4c0.5,0.2,1,0.3,1,1.1C205.1,247.5,205.4,247,205,246.4L205,246.4z M206.1,246.4c-0.7,0.2-0.7-0.6-0.3-0.8
	S206.3,246.1,206.1,246.4L206.1,246.4z M206.2,246.4l0.7-0.1c0.1,0.5,0.3,0.3,0.1,0.7c-0.3,0.1-0.7-0.1-0.8-0.5
	C206.2,246.4,206.2,246.4,206.2,246.4L206.2,246.4z M207.8,252.1c0.2-0.4,0.1-0.9,0.7-1C208.5,251.6,208.2,252,207.8,252.1
	L207.8,252.1z M208.9,247.5c-0.4,0-0.4-0.4-0.5-0.8l0.5-0.1C209,246.9,209,247.3,208.9,247.5L208.9,247.5z M208.2,244.1
	c0.4,0.2,0.9,0.3,0.9,1.1C208.5,245.1,208,244.5,208.2,244.1L208.2,244.1z"/>
<path class="st1" d="M183,283.7c-0.3-0.9-0.7-1.8-1.2-2.7l-0.8-1.4c0.2,0.1,0.5,0.2,0.7,0.2l0,0h0.3c0-0.3,0.1-0.7,0.1-1l-1.2-0.1
	c0,0.1-0.1,0.1-0.1,0.2c0,0.1,0,0.1-0.1,0.2l-0.8-1.4c-0.5-0.8-1.2-1.5-2-2l-0.6-0.3c0-0.1,0-0.2-0.1-0.2c0,0-0.1-0.1-0.2-0.1
	c-0.1,0-0.2,0-0.2,0l-1.9-1.2c-0.2-0.1-0.4-0.2-0.6-0.2c-0.6-0.1-1.1,0.2-1.4,0.7l-1.9,2.7c-0.5,0.8-1,1.7-1.4,2.6l-0.7,1.5
	c0,0.1,0,0.1-0.1,0.2l0,0c-0.1,0.3-0.1,0.6-0.2,0.9c-0.1,0.5-0.3,0.9-0.4,1.3c-0.2,1.4-0.3,2.8-0.4,4.1c0.1,0,0.1-0.1,0.1,0
	c0,0.2,0.1,0.5,0.1,0.7c-0.1,0-0.1,0-0.2,0l0.2,1.5c0.1,0.9,0.7,1.6,1.5,2l4.4,1.6c0.1,0,0.2,0.1,0.3,0.1c0.2,0,0.4,0,0.6-0.1h0.1
	c0,0,0-0.1,0-0.1l0,0c0.2-0.2,0.3-0.5,0.3-0.8v-1.6c0.1,0.1,0.3,0.2,0.4,0.3c0.3-1.1-0.3-2.1,0.6-3.2h-0.1c-0.3,0-0.7-0.1-0.9-0.3
	h-0.1c0-0.5-0.1-1.1-0.1-1.5l-0.3-3c0-0.4,0-0.6,0-0.6s0.2,0.2,0.3,0.5l1,3c0.3,0.8,0.7,2,0.9,2.8l0.9,3.2c0.1,0.4,0.4,0.7,0.8,0.8
	c0.3,0,0.6-0.1,0.8-0.3l3.8-3.1c0.7-0.6,0.9-1.5,0.7-2.3L183,283.7z M170.1,284.3c0.6-0.1,0.6,0.5,1.1,0.5
	C171,285.3,170,285,170.1,284.3z M172.5,288.7c0.5-0.6,1.1,0.2,1.9-0.1C174.5,289.7,172.6,290,172.5,288.7z M175.6,282.6
	c-0.5,0.2-0.7-0.3-0.4-0.6C175.5,282.1,175.9,282.2,175.6,282.6z M174.9,279.7c-0.6,0.4-1-0.5-1.1,0c-0.5-0.5,0.5-1.1,0.8-1.5
	c0.4,0.1,0.6,0.4,0.7,1L174.9,279.7z M179.2,285.2c-0.4-0.3-0.1-0.6,0.1-0.9C179.6,284.4,179.9,285.2,179.2,285.2L179.2,285.2z
	 M179.4,280.6c-0.1-0.6,0.9-1,1.3-0.7C180.3,280.2,180,281,179.4,280.6z"/>
<path class="st1" d="M167.3,276.3C167.3,276.3,167.3,276.3,167.3,276.3c0.1,0,0.2-0.1,0.3-0.2h-0.1l0.2-0.3l0.8-1.2h0.1
	c0.2-0.1,0.3-0.2,0.4-0.4l-0.1-0.1l1.8-2.7c0.3-0.5,0.5-1.1,0.4-1.6l0,0c0-0.1,0-0.2,0-0.3c0-0.1,0-0.2-0.1-0.3l0,0
	c0-0.1-0.1-0.2-0.1-0.4l-1.4-3.8c-0.2-0.5-0.5-1.1-0.9-1.5l0,0c-0.1-0.2-0.2-0.4-0.4-0.5c-0.1-0.1-0.2-0.2-0.3-0.3l-3.1-2.6
	c-0.8-0.6-1.6-1.2-2.4-1.7l-3.4-1.9c-0.9-0.5-1.7-0.9-2.6-1.2l-3.5-1.3c-0.2-0.1-0.4-0.1-0.7-0.1c-0.5-0.1-1.1,0-1.6,0.3
	c-0.5,0.4-0.8,0.8-0.7,1c0,0.1,0.1,0.2,0.2,0.3l0,0c0,0-0.3,0.6-0.7,1.2l-2.1,3.4c-0.2,0.4-0.4,0.9-0.6,1.3c0.1,0.1,0.2,0.2,0.4,0.2
	c0,0.2-0.3,0.3-0.5,0.3c-0.1,0.3-0.1,0.6-0.2,0.9l-0.4,4.1c-0.1,1,0,1.9,0.1,2.9l0.7,4c0.1,0.8,0.4,2.1,0.6,2.9l0,0H147v0.4h0.4l0,0
	l0.9,3.6c0.3,0.9,0.9,1.6,1.7,2.1l1.4,0.7c0.4-0.1,0.9,0,1.3,0.2c0.1,0.1,0.2,0.1,0.3,0.1c0.4,0.1,0.7,0.4,0.8,0.8
	c0.8,0.3,1.5,0.6,2.3,0.8l3.2,0.8h0.2c0.6,0.1,0.9-0.4,0.6-1l-2.6-5.6c-0.4-0.9-0.7-1.8-0.8-2.8v-0.1c0-0.1,0-0.1,0-0.2
	c0-0.1,0-0.1-0.1-0.2l-0.7-5.5c-0.1-0.4,0-0.6,0.1-0.6s0.2,0.2,0.4,0.5l1,2.1c0.1-0.2,0.2-0.3,0.2-0.5c0.6,0,0.5,0.8,0,1l1.3,2.8
	c0.3,0.7,0.6,1.3,1,1.9c-0.1-0.2-0.1-0.4-0.1-0.6c0.9-0.3,1.1,0.3,1.4,0.9c-0.3,0.1-0.6,0.2-0.6,0.5c-0.1,0-0.2-0.2-0.3-0.2l0.1,0.2
	l3.6,5.1c0.1,0.2,0.3,0.4,0.6,0.4c0.2,0,0.4-0.1,0.5-0.5c0.1-0.5,0.3-1.1,0.5-1.6l0.4-1.4c-0.1-0.2-0.1-0.4,0-0.5l0.1,0.1l0.4-1.4
	c-0.5,0.1-0.6-0.3-0.6-0.8l0.5-0.1c0,0.3,0.1,0.5,0.1,0.8c0,0,0-0.1,0-0.1l0.1-0.3C166.6,277.7,166.9,276.9,167.3,276.3L167.3,276.3
	z M146.4,264.7c0.4-0.5,0.9,0,1.6-0.2c-0.1,0.5-0.6,0.7-1.3,0.7C146.5,265.1,146.4,264.9,146.4,264.7L146.4,264.7z M147.4,269.3
	c0.6-0.1,0.9,0.1,1,0.6C147.8,270,147.5,269.8,147.4,269.3L147.4,269.3z M148.7,272.6c0.9-0.6,1.9,0.4,2.1,1.3
	C150,273.8,149.3,273.4,148.7,272.6L148.7,272.6z M148.8,261.4c0.8,0.1,1,0.8,1.3,1.6C149.2,263.1,149,262.3,148.8,261.4
	L148.8,261.4z M152.1,258.2c0.6,0,1.3-0.1,1.6,0.3c-0.3,0.4-0.7,0.6-1.1,0.7C152.6,258.7,152,258.9,152.1,258.2L152.1,258.2z
	 M151.5,258.8c0.5-0.3,0.7,1,0.1,0.9C151.6,259.4,151.6,259.1,151.5,258.8L151.5,258.8z M151.9,273.4c0.3-0.6,1,0.3,0.6,0.6
	C152.1,274.2,152.3,273.4,151.9,273.4L151.9,273.4z M153.5,282.3c0.2,0,0.3-0.1,0.3-0.2c0.7-0.1,0.8,0.6,1.3,0.7
	C154.9,283.2,153.7,283,153.5,282.3L153.5,282.3z M151.6,269.4c0.6-1,1.7-1.5,2.8-1.3C154,269.4,152.4,268.9,151.6,269.4
	L151.6,269.4z M155.7,278c0.2-0.8,1.3-0.3,0.8,0.4C156.1,278.4,156,278.1,155.7,278L155.7,278z M157.3,280.7
	c-0.5,0.1-1.1,0.3-0.9-0.4C156.9,280.3,157.3,280.2,157.3,280.7L157.3,280.7z M155.5,260.2c-0.2,0.3-1.2,0.8-1.2,0
	C154.8,260.1,155.3,260,155.5,260.2L155.5,260.2z M155.5,268.5c0.4-0.4-0.5-0.9,0-1.4c0.8,0.1,1.5,0.6,1.8,1.3
	C156.6,268.6,156.3,268.3,155.5,268.5L155.5,268.5z M160.3,270c-0.2,0.1-0.4,0-0.5-0.2c-0.1-0.2,0-0.4,0.2-0.5c0.1,0,0.2-0.1,0.2,0
	C160.3,269.6,160.4,269.8,160.3,270L160.3,270z M162.3,262.2c-0.1,0.3-0.7,0.3-1,0.5c0-0.4,0.3-0.6,0.7-0.6
	C162.2,262,162.3,262.1,162.3,262.2L162.3,262.2z M159.6,261c-0.1-0.5-0.3-1.1,0-1.4c0.6,0.1,0.9,0.6,1.6,0.5c0,0.2,0.1,0.5,0.1,0.7
	C160.9,261.1,160.1,260.4,159.6,261z M162.2,267.8c-0.3,0.1-0.7,0.1-1.1,0C161.2,267.3,162.2,266.8,162.2,267.8L162.2,267.8z
	 M161.9,265.1c0.8-0.2,1,0.3,1,1.1C162.1,266.5,162,265.8,161.9,265.1z M162.9,269.7c-0.2-0.5,0.2-0.6,0.2-0.9
	c0.3,0.4,0.9,0.4,1.5,0.5C164.7,269.8,163.3,269.8,162.9,269.7L162.9,269.7z"/>
<path class="st1" d="M190.2,276.5v3.9c0,0-0.1,0-0.1,0.1c-0.1,0.1-0.1,0.3,0,0.4c0.1,0.1,0.2,0.2,0.3,0.2c0.1,0.1,0.2,0.1,0.3,0.1
	c0.2,0,0.3,0,0.5-0.1l-0.1-0.1c0.1,0,0.1,0,0.2,0l0,0l1.9-1.4c0,0.3,0.1,0.6,0.3,0.9c0.3,0.2,0.6,0.4,1,0.5c0-0.2-0.1-0.4-0.2-0.6
	c-0.2-0.4-0.5-0.7-0.9-1l0,0l0.8-0.6l0.6-0.5l0,0h0.1v-0.2c0.5-0.4,1-0.9,1.4-1.3l0.2-0.2l0,0c0.1,0.3,0.4,0.5,0.7,0.6
	c0.2,0.1,0.4,0.1,0.6,0.2c0.4,0.1,0.9-0.1,1.1-0.4h-0.4c-0.1,0-0.2,0-0.3-0.1c0,0.1,0,0.1,0,0.2c-0.2-0.1-0.4-0.2-0.6-0.4
	c-0.2-0.1-0.5-0.2-0.7-0.2h-0.2l0.4-0.4l-0.1-0.1c0.1,0,0.1,0,0.2,0v0c0,0,0.1-0.1,0.1-0.1l0,0l1.4-1.5c0.6-0.7,1-1.6,1.1-2.5
	l0.1-3.9c0-1-0.1-1.9-0.4-2.9l-1.1-3.8c-0.3-0.9-0.6-1.9-1-2.8l-1.5-3.5c-0.4-0.9-0.9-1.7-1.4-2.5l-2.3-3.3
	c-0.2-0.3-0.4-0.6-0.6-0.8l0,0c0.2,0,0.4-0.1,0.4-0.4c-0.1,0-0.2,0-0.3,0c-0.3,0-0.6,0-0.7,0.2c-0.4-0.2-0.8-0.4-1.1-0.7
	c-0.2-0.1-0.5-0.2-0.8-0.3h-0.3c0-0.1,0-0.2,0-0.3c-0.9-0.1-2.1-0.3-2.2,0.4l0.3,0.2l0.3,0.1l0.4,0.1l-3.1,2.6
	c-0.7,0.6-1.4,1.4-2,2.1l-2.3,3.2l-0.1,0.1c-0.1-0.1-0.3-0.1-0.4-0.1c-0.2,0.1-0.3,0.4-0.1,0.6c0,0.1,0.1,0.1,0.1,0.2
	c-0.4,0.6-0.8,1.2-1,1.7l-1.8,3.4c-0.4,0.9-0.8,1.8-1,2.8l-0.6,2.9l-0.5,0l-0.1,0.6h0.4l-0.1,0.5c-0.1,0.9,0.2,1.7,0.9,2.2l4.2,2.7
	c0.8,0.6,1.4,1.2,2,2l2.1,3.2c-0.4,0.5-0.7,1.1-0.7,1.7c0.1,0,0.2,0,0.3,0c0.3,0,0.5,0,0.8,0c0.3,0,0.6,0,0.9,0
	c0.3,0,0.6,0.1,0.9,0.2c-0.2-0.3-0.3-0.6-0.4-0.9c0.1-0.1,0.1-0.2,0.1-0.3l1.7-5.5c0.3-0.9,0.5-1.9,0.5-2.9l0.4-5.7
	c0-0.4,0.1-0.6,0.1-0.6s0.1,0.2,0.1,0.6l0.6,6.2c0.1,0.8,0.1,2.1,0.1,2.9v0.1c0.5-0.4,1.5-0.4,1.5,0.5c-0.4,0.3-1,0.4-1.5,0.3v1.5
	c-0.1-0.1-0.1-0.2-0.1-0.2l0,0l0,0c-0.1-0.3-0.1-0.6-0.6-0.6h-0.1c-0.3,0.5-0.4,1.2-0.2,1.8c0.1,0,0.3,0,0.4-0.1
	C189.8,277.1,190.1,276.8,190.2,276.5z M199.2,271.2c0-0.2-0.1-0.5-0.1-0.7c0.4-0.1,0.7,0.1,0.8,0.5c0,0,0,0.1,0,0.1L199.2,271.2z
	 M199.3,268.5c0.1,0.5-1.1,0.6-1.4,0.4c0.2-0.4,0.7-0.7,1.1-0.5C199.1,268.4,199.2,268.5,199.3,268.5L199.3,268.5z M197.9,267.5
	c-0.6,0-0.5,0.5-1.2,0.5c-0.2-0.2-0.4-0.5-0.6-0.6C196.4,266.4,197.6,266.5,197.9,267.5L197.9,267.5z M196.4,262.8
	c-0.5,0.1-0.7-0.3-1.1-0.4C195.4,261.9,196.4,262.3,196.4,262.8L196.4,262.8z M193.9,276.2c-0.1-0.4-0.1-0.7,0.4-0.8
	C194.4,275.9,194.4,276.2,193.9,276.2L193.9,276.2z M195.6,274.5c-0.5,0.2-0.7-0.3-0.4-0.6C195.5,274,195.9,274.2,195.6,274.5
	L195.6,274.5z M195.3,270.7c0.6,0,0.5-0.4,0.9-0.1c-0.5,0.3-0.5,0.7,0.3,1c-0.2,0.6-0.6,0.9-1.2,0.5c0.1,0.7,0.8,0.4,0.9,1.1
	C194.2,273.6,195.3,271.1,195.3,270.7L195.3,270.7z M194.5,269.2c0,0.4-0.7,0.3-0.8,0.6c-0.4-0.1,0.3-0.6,0.2-0.9
	C194.1,269,194.2,269.2,194.5,269.2L194.5,269.2z M190.1,247.9c1.2-0.1,0.2,1-0.2,1.1C189.4,248.6,190.8,248.4,190.1,247.9
	L190.1,247.9z M193,273.2c0.3-0.1,0.7,0.1,0.8,0.4c0,0.2,0,0.4-0.1,0.5C192.9,274.5,192.7,273.5,193,273.2L193,273.2z M194.3,274.9
	c0,1-1.4,0.6-1.4-0.1C193.3,274.6,193.8,274.7,194.3,274.9L194.3,274.9z M193.6,278.4c0,0.2,0.1,0.5,0.1,0.7c-0.2,0.1-0.4,0-0.5-0.2
	c-0.1-0.2,0-0.4,0.2-0.5C193.4,278.4,193.5,278.4,193.6,278.4L193.6,278.4z M184.4,258.4c0-0.4,0.4-0.4,0.8-0.5
	C185.4,258.5,184.7,258.6,184.4,258.4L184.4,258.4z M187.2,268.5l-0.5,0.1c0-0.2-0.1-0.4-0.1-0.5l0.7-0.1
	C187.2,268.2,187.1,268.4,187.2,268.5L187.2,268.5z M186.5,266.5c-0.6,0.3-0.4-0.5-0.5-0.8c0.4,0,1.3-0.8,1.4,0
	C186.4,265.4,186.7,265.9,186.5,266.5L186.5,266.5z M188.1,257.1c-0.1-0.4,0-0.5,0.1-0.7c0.2,0.1,0.4,0.1,0.5,0.1
	C188.8,257,188.5,257.1,188.1,257.1L188.1,257.1z M187.9,255.2c-0.3-0.5-0.2-0.8,0.4-0.9c0,0.2,0,0.5,0.3,0.5
	C188.4,255,188.1,255.2,187.9,255.2L187.9,255.2z"/>
<path class="st1" d="M189.3,283l0.5,0c0-0.1,0-0.3,0-0.4l-0.5,0C189.3,282.8,189.3,282.9,189.3,283z"/>
<path class="st1" d="M181.2,275.6c0.1,0,0.1,0,0.2,0h0.1l0,0l0,0c0,0,0-0.1,0-0.1c-0.1,0-0.1,0-0.2,0c-0.1-0.1-0.2-0.2-0.4-0.2h-0.1
	c-0.1,0.1-0.1,0.2-0.1,0.3l0,0c0,0,0,0,0.1,0.1C180.9,275.6,181,275.6,181.2,275.6z"/>
<path class="st1" d="M180.4,275.5l0.1-0.6c-0.1-0.1-0.3-0.2-0.5-0.2c-0.1,0-0.2,0-0.4,0c-0.2,0-0.5,0.1-0.6,0.2
	c-0.1,0-0.2,0.1-0.2,0.2c0.3,0.2,0.6,0.3,0.9,0.5l0.2,0C180,275.6,180.2,275.6,180.4,275.5z"/>
<path class="st1" d="M135.3,276.9h0.5v-0.4l-0.5,0C135.3,276.6,135.3,276.8,135.3,276.9z"/>
<path class="st1" d="M174.2,236.2c-0.1-0.1-0.3-0.2-0.4-0.3c-0.1,0-0.2,0.1-0.1,0.2c0,0.1,0,0.1,0.1,0.1c0,0,0.1,0.1,0.2,0.1
	C174,236.3,174.1,236.3,174.2,236.2z"/>
<path class="st1" d="M174.1,228.5L174.1,228.5L174.1,228.5C174.1,228.5,174.1,228.5,174.1,228.5c0-0.2,0-0.3-0.2-0.3l-0.2-0.1
	c0,0.1-0.1,0.3-0.1,0.4c0,0.1,0.1,0.1,0.1,0.1c0.1,0,0.1,0,0.2-0.1L174.1,228.5z"/>
<path class="st1" d="M176.3,226.9c0-0.2,0.2-0.2,0.3-0.4l0,0h-0.1c-0.1,0-0.1-0.1-0.2-0.1l-0.1-0.1c0,0.2-0.2,0.2-0.3,0.4
	C176.1,226.7,176.1,226.9,176.3,226.9z"/>
<path class="st1" d="M164.5,238.3L164.5,238.3c-0.1,0-0.2,0.1-0.3,0.1c-0.1,0-0.1,0.1-0.1,0.1l0,0c0,0,0.1,0,0.1,0l0.2-0.1
	C164.4,238.4,164.5,238.4,164.5,238.3z"/>
<path class="st1" d="M153.8,250.6c0-0.1,0-0.3,0-0.4l-0.5-0.1c0,0.1,0,0.3-0.1,0.4L153.8,250.6z"/>
<path class="st1" d="M152.9,252.1c-0.1,0-0.2,0-0.3,0.1c0,0,0,0.1,0,0.1h0.1c0.1,0,0.2,0,0.4-0.1c0-0.1,0-0.1-0.1-0.1
	C153,252.1,152.9,252.1,152.9,252.1z"/>
<path class="st1" d="M173.4,267.5L173.4,267.5c0.1,0,0.3,0,0.4,0c0.1-0.1,0.2-0.2,0.3-0.3C173.8,267.1,173.3,267.1,173.4,267.5z"/>
<path class="st1" d="M175.4,259.6c0-0.1,0-0.3,0-0.4l-0.5,0c0,0.1,0,0.3,0,0.4L175.4,259.6z"/>
<path class="st1" d="M185.6,246c0.1,0.6-0.4,0.5-0.3,1h0.2c0.5,0,0.7-0.2,0.7-0.4l0,0c0-0.1-0.1-0.2-0.1-0.3
	C185.9,246.2,185.7,246,185.6,246z"/>
<path class="st1" d="M196.9,280.2c0-0.1,0-0.3,0-0.4h-0.5c0,0.1,0,0.3,0,0.4H196.9z"/>
<path class="st1" d="M200.2,277.1c0,0.1-0.1,0.1-0.1,0.2h0.1h0.2h0.2c0.1,0,0.2,0,0.3,0c0.1,0,0.1-0.1,0-0.3h-0.3
	C200.5,276.9,200.3,277,200.2,277.1z"/>
<path class="st1" d="M204.7,272.7L204.7,272.7c0.1,0,0.2-0.1,0.2-0.1l0,0c-0.1,0-0.1,0-0.2-0.1c-0.1,0-0.1-0.1-0.1-0.1
	s-0.1,0-0.1,0.1S204.6,272.7,204.7,272.7L204.7,272.7z"/>
<path class="st1" d="M215.3,256.1c0,0.1,0,0.3,0,0.4l0.5,0c0-0.1,0-0.3,0-0.4L215.3,256.1z"/>
<path class="st1" d="M207.1,239.3c0-0.2,0-0.4,0.1-0.5c0-0.1,0-0.2-0.1-0.3c0,0-0.1,0-0.1,0c-0.1,0-0.2,0-0.2,0
	C206.6,238.9,206.7,239.3,207.1,239.3z"/>
<path class="st1" d="M42.8,283.8c0.5,0.4,0.6,1.1,0.4,1.7l-0.9,1.7c-0.2,0.4-0.5,0.8-0.8,1.2c-0.3,0.4-0.6,0.7-1,1.1
	s-0.6,0.6-0.9,0.9c-0.3,0.3-0.6,0.6-1,0.9c-0.3,0.2-0.5,0.4-0.8,0.5c-0.3,0.1-0.5,0.3-0.8,0.4c-1.4,0.5-2.9,0.8-4.5,0.8
	c-0.1,0-0.3,0-0.4-0.1c-0.6-0.2-1.1-0.4-1.6-0.5c-0.5-0.2-1.1-0.4-1.6-0.7l-0.6-0.5c-0.1,0-0.1-0.1-0.2-0.2c0-0.1-0.1-0.1-0.2-0.1
	c-0.4-0.2-0.8-0.5-1-0.9c-0.3-0.4-0.5-0.7-0.8-1.1c-0.3-0.4-0.6-0.8-0.9-1.2c-0.3-0.4-0.5-0.9-0.6-1.3c0-0.3-0.2-0.6-0.3-0.8
	c-0.4-0.5-0.6-1.1-0.8-1.8c-0.2-0.6-0.3-1.3-0.4-1.9l-0.3-1.1c-0.1-0.4-0.2-0.8-0.2-1.1c0-0.4,0-0.8,0-1.2c0-0.1,0-0.2,0-0.4
	c0-0.1,0-0.2,0-0.4c-0.1-0.7-0.1-1.5-0.1-2.2c0-0.7,0.1-1.5,0.1-2.2l0.1-1.1c0.1-0.6,0.1-1.3,0.2-1.9s0.1-1.3,0.2-1.9
	c0.2-1.3,0.6-2.6,1.3-3.8l0.9-1.7c0.1-0.3,0.3-0.5,0.5-0.7c0.2-0.2,0.4-0.4,0.5-0.7c0.7-0.9,1.4-1.7,2.3-2.4c0.9-0.8,1.9-1.3,3-1.6
	c0.2-0.1,0.4-0.1,0.5-0.1c0.2,0,0.4,0,0.5,0c0.3,0,0.5,0,0.6,0c0.8,0,1.5,0.1,2.2,0.3c0.7,0.3,1.4,0.6,2,1c0.5,0.3,0.9,0.7,1.3,1.1
	l1.2,1.2c0.1,0.1,0.2,0.2,0.3,0.4c0.1,0.1,0.2,0.3,0.3,0.4c0.1,0.1,0.1,0.3,0.1,0.4l-0.1,0.4c0,0.1-0.1,0.3-0.2,0.4
	c-0.6,0.9-1.3,1.7-2.2,2.4c-0.3,0.4-0.9,0.4-1.2,0.1c0,0-0.1-0.1-0.1-0.1l-0.4-0.3c-0.1-0.1-0.2-0.2-0.3-0.3
	c-0.2-0.3-0.3-0.5-0.6-0.7l-0.7-0.5c-0.3-0.4-0.8-0.6-1.3-0.5c-0.6,0-1.3,0.2-1.8,0.6c-0.6,0.5-1.2,1.1-1.6,1.7
	c-0.5,0.7-0.8,1.4-1.1,2.2c-0.1,0.1-0.1,0.3-0.1,0.4l-0.1,0.5c-0.2,0.5-0.4,1-0.4,1.5c-0.1,0.1-0.1,0.3-0.1,0.4
	c-0.2,0.6-0.3,1.2-0.4,1.9c-0.1,0.7-0.1,1.3-0.2,1.9c0,0.2,0,0.4,0,0.6c0,0.2,0,0.4,0,0.6l0.1,1l0.1,1.2l0.2,1.3
	c0.1,0.3,0.1,0.7,0.2,1c0,0.3,0.1,0.7,0.2,1c0,0.2,0,0.4,0.1,0.6c0,0.2,0.1,0.4,0.1,0.6s0.2,0.6,0.3,0.9c0.1,0.3,0.2,0.7,0.5,0.9
	l0.7,1.2c0.5,0.8,1.3,1.4,2.2,1.7c0.8,0.3,1.8,0.4,2.6,0.1c0.5-0.1,0.9-0.4,1.3-0.8c0.4-0.4,0.7-0.8,1.1-1.2
	c0.3-0.4,0.6-0.9,0.7-1.4c0.1-0.3,0.2-0.5,0.4-0.8c0.2-0.5,0.8-0.7,1.3-0.6l0.6,0.2c0.2,0.1,0.4,0.2,0.6,0.3
	c0.2,0.1,0.3,0.3,0.5,0.4l0.5,0.3L42.8,283.8z M27.5,272.4c0,0.2,0.1,0.4,0.1,0.5c0-0.1,0-0.1,0.1-0.2s0-0.2,0.1-0.3
	c0,0,0-0.1,0-0.1c0-0.1,0-0.1,0-0.2c0,0,0-0.1,0-0.1v-0.1c0-0.1,0-0.1,0-0.1c0,0,0-0.1,0-0.1c0-0.1,0-0.1,0-0.1v-0.1
	c0-0.1,0-0.1,0-0.2c0,0,0-0.1,0-0.1v-0.1c0-0.1,0-0.1,0-0.2c0.1-0.1,0.1-0.3,0.1-0.4c0-0.2,0.1-0.3,0.1-0.5c0-0.1,0-0.2,0.1-0.3
	c0-0.2,0.1-0.4,0-0.6c-0.1,0.1-0.2,0.3-0.3,0.5l-0.2,0.8l-0.1,0.4c0,0,0,0.1,0,0.1c0,0,0,0,0,0.1l0,0c0,0.1,0,0.1,0,0.2
	c0,0.1,0,0.1,0,0.2v0.1c0,0.1,0,0.1,0,0.2c0,0.1,0,0.2,0,0.3v0.1c0,0,0,0.1,0,0.1c0,0.1,0,0.1,0,0.2
	C27.5,272.3,27.5,272.3,27.5,272.4z M29.4,284.9c0.1-0.3,0.1-0.4,0-0.6c-0.2-0.2-0.3-0.4-0.3-0.6c-0.1-0.1-0.1-0.2-0.1-0.4
	c0-0.1-0.1-0.3-0.1-0.4c0-0.1,0-0.2-0.1-0.3c0.1-0.1,0-0.3-0.1-0.4l-0.3-0.3c0,0.1,0,0.3,0,0.4c0,0.1,0.1,0.3,0.2,0.3
	c0,0.2,0.1,0.3,0.1,0.4l0.1,0.4c0,0.1,0,0.1,0,0.2c0,0.1,0,0.1,0.1,0.1c0,0.1,0,0.2,0.1,0.3c0.1,0.1,0.1,0.2,0.1,0.3
	c0,0.1,0.1,0.2,0.2,0.3C29.3,284.8,29.4,284.9,29.4,284.9z M29.2,260.3c-0.7,0.2-1.2,0.8-1.4,1.5c0.2-0.3,0.5-0.5,0.7-0.8
	L29.2,260.3z M30.6,261.5c-0.4,0.2-0.8,0.6-1,1c0.2,0,0.3,0.1,0.4,0C30.2,262.3,30.5,261.9,30.6,261.5z M33.2,289.1
	c0.1,0.1,0.2,0.2,0.3,0.2c0,0,0.1-0.1,0.2-0.2C33.7,289.1,33.2,289.1,33.2,289.1z M32.1,258.4L32.1,258.4L32.1,258.4L32.1,258.4z"/>
<path class="st1" d="M56.4,256.5c0.1-0.3,0.3-0.6,0.6-0.7c0.3-0.1,0.7-0.2,1-0.2c0.4-0.1,0.8-0.1,1.2-0.2c0.4-0.1,0.8-0.1,1.2-0.1
	h0.3h0.5c0.3,0.1,0.5,0.2,0.7,0.3c0.2,0.2,0.3,0.5,0.3,0.7c0,0.2,0,0.4,0.1,0.6c0,0.2,0,0.4,0,0.7c0,0.2,0,0.3,0,0.5
	c0,0.1,0,0.3,0.1,0.5s0.1,0.3,0.1,0.4s0,0.2,0.1,0.3c0,0.6,0,1.2,0.1,1.8c0,0.6,0.1,1.2,0.1,1.8s0.1,1.3,0.2,1.9s0.2,1.3,0.2,1.9
	c0,0.3,0,0.5,0,0.8s0,0.5,0,0.8c0.1,0.6,0.1,1.3,0.2,1.9s0.2,1.3,0.2,1.9c0,0.8,0.1,1.6,0.1,2.4s0.1,1.6,0.2,2.4c0,1,0.1,2,0.2,2.9
	c0.1,1,0.2,1.9,0.5,2.9c0,0,0,0.1,0,0.1c0,0,0,0.1,0,0.1c0,0.6,0,1.3,0.1,1.9c0.1,0.6,0.2,1.2,0.2,1.9c0.1,0.7,0.1,1.3,0,2
	c0,0.6-0.3,0.9-0.8,0.9c-0.4,0-0.8,0-1.1,0.1c-0.4,0.1-0.8,0.2-1.2,0.2c-0.2,0-0.3,0.1-0.5,0.1h-0.5c-0.1,0-0.2,0-0.3,0h-0.4
	c-0.3,0-0.5-0.2-0.6-0.5c-0.1-0.4-0.1-0.7-0.2-1.1c0-0.4,0-0.7,0-1.1c0-0.2,0-0.3,0-0.5c0-0.4,0-0.9,0-1.3s0-0.9-0.1-1.3
	s-0.1-1.1-0.1-1.7s-0.1-1.1-0.2-1.7c0-0.4-0.1-0.7-0.2-1.1c-0.1-0.4-0.1-0.8,0-1.1c0-0.1,0-0.3,0-0.4c0-0.1-0.1-0.3-0.1-0.4
	c0-0.4-0.2-0.8-0.5-1c-0.3-0.3-0.7-0.5-1.2-0.4l-2.1,0.2l-1.4,0.1c-1,0-1.8,0.8-1.8,1.7c0,0.1,0,0.2,0,0.4c0,0.2,0,0.4,0,0.5
	c0,0.2,0,0.4,0,0.5l0.1,2.2c0,0.1,0,0.2,0,0.4c0,0.1,0,0.2,0.1,0.3c0.1,0.8,0.1,1.6,0.2,2.4s0.1,1.6,0.2,2.4l0.2,1.9v0.1
	c0,0.3,0,0.6-0.2,0.9c-0.3,0.2-0.6,0.3-0.9,0.3c-0.2,0-0.4,0.1-0.7,0.1c-0.2,0-0.5,0.1-0.7,0.2c-0.3,0.1-0.6,0.1-0.8,0.1h-1
	c-0.4-0.1-0.8-0.3-1-0.7c-0.1-0.3-0.2-0.5-0.3-0.8c0-0.3-0.1-0.6-0.2-0.9c-0.1-0.9-0.2-1.8-0.3-2.7l-0.3-3.1c0-0.4-0.1-0.8-0.1-1.2
	c0-0.4-0.1-0.8-0.1-1.2c-0.1-0.7-0.2-1.4-0.2-2.1s-0.1-1.4-0.1-2.1s0-1.1-0.1-1.7c0-0.6-0.1-1.1-0.2-1.7c0-0.1,0-0.3,0-0.5
	c0-0.2,0-0.3,0-0.5c-0.1-0.7-0.1-1.4-0.2-2.1s-0.1-1.4-0.2-2.1s-0.2-1.1-0.2-1.6s-0.1-1.1-0.2-1.6c0-0.2,0-0.3,0-0.5
	c0-0.2,0-0.3,0-0.5c0-0.7-0.1-1.3-0.1-2s-0.1-1.3-0.2-2c0-0.8-0.2-1.6-0.4-2.4v-0.4c0.4-0.4,1-0.6,1.5-0.5c0.3,0,0.5,0.1,0.8,0.1
	c0.3,0,0.5,0,0.8-0.1c0.3,0,0.5,0,0.8,0c0.3,0,0.5,0,0.8,0c0.8,0.1,1.3,0.7,1.3,1.5c-0.1,1.2-0.1,2.3,0,3.5c0,0.8,0.1,1.5,0.2,2.2
	c0.1,0.5,0.2,0.9,0.2,1.4c0,0.5,0.1,1,0.1,1.4s0,1.2,0.1,1.8s0.1,1.2,0.2,1.8c0,0.4,0.1,0.7,0.3,1c0.2,0.5,0.8,0.8,1.3,0.8
	c0.5-0.1,0.9-0.1,1.3-0.2l1.3-0.1l0.6-0.1c0.2,0,0.4,0,0.6-0.1c0.5-0.1,1-0.3,1.3-0.7c0.1-0.2,0.2-0.4,0.3-0.6c0-0.2,0-0.4,0.1-0.6
	c0-0.4,0-0.8,0.1-1.2c0-0.4,0-0.8,0-1.2c-0.1-0.6-0.2-1.3-0.2-1.9s-0.1-1.2-0.2-1.9s-0.2-1.5-0.3-2.3s-0.2-1.5-0.3-2.3v-0.1l-0.3-1
	c0-0.2-0.1-0.3-0.1-0.5C56.4,256.9,56.4,256.7,56.4,256.5z M46.5,275.1c-0.1,0.2-0.2,0.3-0.2,0.5c0.1,0.2,0.2,0.3,0.3,0.4
	L46.5,275.1z M47.2,263.8c0.1-0.6,0.1-1.3-0.1-1.9c0,0.2,0,0.5,0,0.7l0.1,0.7c0,0.1,0,0.2,0,0.3C47.2,263.7,47.2,263.7,47.2,263.8
	L47.2,263.8z M48.4,257.2l-0.1-0.1L48.4,257.2L48.4,257.2z M49.8,283.2L49.8,283.2v-0.4l0,0V283.2z M60.6,283.1
	c0.1-0.3,0.2-0.7,0.2-1.1l-0.1-0.9c0,0,0,0,0,0s0,0,0,0s0,0,0-0.1C60.4,281.6,60.4,282.4,60.6,283.1L60.6,283.1z M61.6,262.4
	c-0.2-0.1-0.4,0-0.5,0.1c0,0.2,0,0.4,0,0.6c0,0.2,0.1,0.5,0.2,0.7c0.2-0.1,0.3-0.1,0.3-0.1L61.6,262.4z M61.5,261.8L61.5,261.8
	l0.1-0.4h-0.1L61.5,261.8z"/>
<path class="st1" d="M83.7,266c0,0.7,0,1.3,0,2s0,1.3,0,2c0,1.5-0.2,2.9-0.7,4.3c-0.2,0.6-0.4,1.1-0.7,1.7c-0.3,0.5-0.6,1-1,1.5
	c-0.4,0.4-0.8,0.7-1.3,1c-0.5,0.3-1,0.5-1.5,0.7c-0.5,0.2-1.1,0.3-1.7,0.4c-0.5,0-0.9,0-1.4-0.1c-0.6-0.1-1.3-0.3-1.9-0.6
	c-0.6-0.3-1.1-0.6-1.7-0.9c-0.4-0.3-0.8-0.6-1.1-0.9c-0.3-0.3-0.6-0.6-0.9-1c-0.4-0.4-0.7-0.8-0.9-1.3c-0.2-0.3-0.4-0.7-0.6-1.1
	l-0.4-1.1c-0.2-0.4-0.3-0.8-0.4-1.2c-0.1-0.5-0.2-1-0.3-1.6c-0.1-0.5-0.1-1.1,0-1.6c0-0.2,0-0.5,0-0.7c0-0.2,0-0.5,0-0.7
	c0-0.3,0-0.6-0.1-0.9c0-0.3,0-0.6,0-0.9c0-0.7,0.1-1.4,0.3-2.1c0.1-0.4,0.2-0.8,0.3-1.2s0.1-0.8,0.2-1.2c0.1-0.5,0.2-0.9,0.4-1.3
	c0.2-0.4,0.3-0.8,0.6-1.2c0.1-0.2,0.2-0.4,0.3-0.6c0.4-0.8,0.9-1.4,1.5-2c0.1-0.1,0.2-0.3,0.4-0.4c0.1-0.1,0.3-0.2,0.4-0.3
	c0.4-0.3,0.8-0.5,1.3-0.6c0.5-0.1,0.9-0.2,1.4-0.2c1.4-0.1,2.8,0.1,4,0.8c0.5,0.2,0.9,0.6,1.3,0.9c0.4,0.4,0.7,0.8,1.1,1.1
	c0.4,0.5,0.8,1.1,1.1,1.6c0.3,0.5,0.6,1.1,0.8,1.7c0.3,0.8,0.6,1.6,0.8,2.4c0.2,0.8,0.4,1.6,0.5,2.4c0,0.2,0.1,0.3,0.1,0.5
	C83.7,265.7,83.7,265.8,83.7,266L83.7,266z M83.8,283.4c0.4-0.1,0.8,0.2,0.9,0.6c0,0,0,0,0,0v0.4c0,0.5,0,0.9,0,1.4
	c0,0.4,0,0.9,0.1,1.3c0,0.5-0.1,0.9-0.2,1c-0.3,0.2-0.6,0.3-1,0.3c-1,0.1-1.9,0.2-2.9,0.2s-1.9,0.1-2.9,0.2c-0.4,0-0.9,0.1-1.3,0.1
	l-1.3,0.1l-1.4,0.1c-0.4,0-0.8,0-1.2,0.1c-0.4,0.1-0.8,0.1-1.1,0.1c-0.2,0-0.5,0-0.7,0h-0.6c-0.3,0-0.5-0.2-0.6-0.4
	c0-0.1,0-0.2-0.1-0.3c-0.2-1.3-0.2-2.6,0-3.9c0.1,0,0.2,0,0.3-0.1c0.1,0,0.2-0.1,0.4-0.1c0.6,0,1.2-0.1,1.7-0.2s1.2-0.1,1.7-0.2
	l1.6-0.1c0.5,0,1.1-0.1,1.6-0.1c0.2,0,0.5,0,0.7,0c0.2,0,0.5,0,0.7-0.1l1.7-0.2c0.6-0.1,1.1-0.1,1.7-0.1c0.3,0,0.7,0,1-0.1
	C83.1,283.4,83.4,283.4,83.8,283.4L83.8,283.4z M71.3,275.8c0-0.1,0-0.1,0-0.1s0-0.1,0-0.2s0-0.1-0.1-0.1c0-0.2-0.1-0.3-0.5-0.3
	c0,0.2,0.1,0.3,0.1,0.3c0.1,0.1,0.1,0.2,0.2,0.3c0.1,0.1,0.1,0.2,0.2,0.2C71.2,275.8,71.2,275.8,71.3,275.8L71.3,275.8z M72.2,287.7
	C72.2,287.7,72.2,287.7,72.2,287.7c0.1,0,0.1-0.1,0.1-0.1c0-0.1-0.1-0.1-0.2-0.2c0,0.2-0.1,0.3-0.1,0.3
	C72.1,287.7,72.1,287.7,72.2,287.7L72.2,287.7z M75.4,287.2l-1.2,0.1h-0.6c-0.2,0-0.4,0-0.6,0.1L75.4,287.2L75.4,287.2z M72.5,256
	c-0.2,0.1-0.4,0.3-0.6,0.5c-0.1,0.2-0.2,0.4-0.3,0.6c0.2-0.1,0.5-0.3,0.7-0.5C72.4,256.4,72.5,256.2,72.5,256z M78.5,266.4l-0.4-2.5
	c-0.1-1.2-0.6-2.3-1.3-3.2c-0.3-0.5-0.8-0.8-1.4-0.9c-0.5-0.1-1.1,0.1-1.5,0.4c-0.9,0.7-1.4,1.7-1.5,2.8c-0.1,0.4-0.1,0.9-0.1,1.3
	c0,0.4,0,0.9,0,1.3c0,0.8,0.1,1.5,0.2,2.2c0.1,0.7,0.2,1.4,0.3,2.1c0.1,0.6,0.3,1.2,0.6,1.8c0.3,0.6,0.7,1.1,1.2,1.5
	c0.6,0.5,1.4,0.6,2.2,0.5l0.3-0.1l0.2-0.1c0.2-0.2,0.3-0.4,0.5-0.5c0.2-0.2,0.3-0.4,0.4-0.6c0.2-0.4,0.3-0.9,0.4-1.4
	c0.1-0.5,0.1-1,0.1-1.4v-0.8c0-0.3,0-0.6-0.1-0.8L78.5,266.4z M76.5,287.2C76.5,287.2,76.6,287.2,76.5,287.2c0.1,0,0.1,0,0.1,0
	C76.6,287.2,76.5,287.2,76.5,287.2h-0.2C76.4,287.1,76.5,287.2,76.5,287.2L76.5,287.2z M78.7,285L78.7,285c0,0,0,0,0-0.1
	c-0.8-0.1-1.6,0-2.4,0.2c0.4,0.1,0.8,0.1,1.2,0.1C77.9,285.2,78.3,285.1,78.7,285L78.7,285z M80.9,269c0,0,0-0.1,0-0.1
	c0,0-0.1-0.1-0.2-0.1l-0.3,0.7c-0.1,0.3,0,0.7,0.1,1c0.2-0.2,0.4-0.5,0.4-0.8L80.9,269z M82,273.2c0.4-0.1,0.5-0.4,0.4-0.9L82,273.2
	z"/>
<path class="st1" d="M93.3,273.5c0,0.1,0,0.3,0,0.4c0,0.1,0,0.3,0,0.4c0,0.5,0,0.9,0.1,1.4c0.1,0.5,0.1,0.9,0.1,1.4
	c0,0.4,0,0.7,0,1.1c0,0.3,0,0.7,0,1.1c0,0.7,0.1,1.4,0.1,2.1s0.1,1.4,0.2,2.1c0,0.4,0,0.7,0,1.1c0,0.4,0.1,0.7,0.2,1.1
	c0.1,0.2,0.1,0.5,0.1,0.8c0,0.6-0.4,1-0.9,1.1c0,0-0.1,0-0.1,0l-3,0.2h-0.3c-0.1,0-0.2,0-0.3,0.1c-0.2,0-0.5-0.1-0.5-0.4l-0.1-0.3
	c0-0.4-0.1-0.7-0.2-1c-0.1-0.3-0.1-0.7-0.1-1c0-0.8,0-1.6-0.1-2.4c0-0.8-0.1-1.6-0.3-2.3c-0.1-0.6-0.2-1.1-0.2-1.8s-0.1-1.2-0.1-1.8
	c0-0.3,0-0.5-0.1-0.8c0-0.3,0-0.5,0-0.8c0-2.2-0.2-4.4-0.4-6.6c0-0.3,0-0.6-0.1-0.9s0-0.6-0.1-0.9c0-0.3,0-0.7-0.1-1
	c0-0.3-0.1-0.7-0.1-1l-0.4-4.6l-0.3-2.7c-0.2-1.3-0.2-2.6,0.2-3.9c0-0.2,0.1-0.5,0.3-0.6c0.2-0.2,0.4-0.3,0.7-0.4h0.3l2.4-0.2
	l2.4-0.1h0.2c0.5-0.1,1.1-0.2,1.6-0.2l1.4,0.1c0.6,0,1.1,0.1,1.7,0.2l1.6,0.4c0.4,0.1,0.7,0.3,1,0.6c0.5,0.4,0.9,1,1.3,1.6
	c0.6,1.2,1.1,2.5,1.4,3.8l0.3,1.5c0.1,0.5,0.2,1,0.2,1.5c0.1,0.7,0.2,1.5,0.2,2.2c0,0.7,0,1.5,0,2.3c0,0.9-0.2,1.7-0.5,2.5
	c-0.3,0.7-0.7,1.4-1.2,2.1c-0.5,0.6-1.1,1.1-1.8,1.5c-0.2,0.1-0.4,0.2-0.6,0.2c-0.2,0-0.5,0.1-0.7,0.2c-0.2,0-0.4,0.1-0.6,0.1
	c-0.2,0-0.4,0.1-0.6,0.2c-0.5,0.1-1,0.2-1.5,0.2c-0.3,0-0.6,0-0.9,0l-1,0.1c-0.1,0-0.2,0-0.3,0L93.3,273.5z M88.7,264.2
	c0,0.4,0,0.7,0.1,1.1c0.1,0.4,0.1,0.7,0.2,1.1c0.1-0.1,0.1-0.2,0.2-0.4v-1.1c0-0.4-0.1-0.8-0.3-1.1L88.7,264.2z M89.4,273.5
	L89.4,273.5C89.4,273.5,89.4,273.5,89.4,273.5c0.1-0.1,0.1-0.3,0.1-0.4c0-0.1,0-0.3,0.1-0.4c0.1-0.4,0-0.8-0.3-1.1l-0.1,0.1
	L89.4,273.5z M92.2,279.1c0-0.6,0-1.1-0.1-1.7c0-0.5-0.1-0.9-0.3-1.4c-0.1,0.1-0.2,0.2-0.2,0.3c0,0.9,0.1,1.8,0.3,2.7
	C92,279,92.1,279,92.2,279.1z M92.8,264.6c0.1,0.3,0.2,0.7,0.2,1.1c0,0.5,0.1,0.9,0.3,1.3c0.1,0.2,0.2,0.4,0.4,0.6l0.5,0.4
	c0.3,0.2,0.7,0.2,1,0c0.1,0,0.1,0,0.2,0c0.1,0,0.1,0,0.2,0c0.4-0.1,0.8-0.3,1.2-0.6c0.3-0.3,0.6-0.7,0.8-1.1
	c0.3-0.7,0.5-1.4,0.5-2.1c0-0.7,0-1.4-0.1-2.1c0-0.5-0.1-0.9-0.3-1.3c-0.1-0.6-0.4-1.2-0.7-1.7c-0.4-0.5-0.8-0.9-1.4-1.2
	c-0.4-0.2-0.8-0.3-1.3-0.2l-0.3,0.1c-0.1,0-0.2,0.1-0.2,0.1c-0.2,0.3-0.4,0.5-0.6,0.7c-0.2,0.3-0.3,0.6-0.2,0.9c0,0.1,0,0.3,0,0.4
	c0,0.1-0.1,0.3-0.1,0.4c-0.1,0.7-0.1,1.4-0.1,2.1C92.6,263.1,92.7,263.8,92.8,264.6L92.8,264.6z M97,270.9c0.1,0.2,0.2,0.2,0.3,0.2
	l0.2-0.3C97.4,270.7,97.2,270.7,97,270.9C97,270.8,97,270.8,97,270.9z M98.9,256.8c0.1,0,0.1,0,0.1-0.1l-0.2-1.3
	c0-0.1-0.1-0.2-0.1-0.2l-0.9-0.7c0,0.2,0,0.3,0.1,0.4L98.9,256.8z"/>
<path class="st1" d="M113.3,271.6c0,0.1,0,0.3,0,0.4c0,0.1,0,0.3,0,0.4c0,0.5,0,0.9,0.1,1.4c0.1,0.5,0.1,0.9,0.1,1.4
	c0,0.4,0,0.7,0,1.1c0,0.3,0,0.7,0,1.1c0,0.7,0.1,1.4,0.1,2.1s0.1,1.4,0.2,2.1c0,0.4,0,0.7,0.1,1.1c0,0.4,0.1,0.7,0.2,1.1
	c0.1,0.2,0.1,0.5,0.1,0.8c0,0.6-0.4,1.1-1,1.1c0,0,0,0,0,0l-3,0.2l-0.3,0c-0.1,0-0.2,0.1-0.3,0.1c-0.2,0-0.5-0.1-0.5-0.4l-0.1-0.3
	c0-0.4-0.1-0.7-0.2-1.1c-0.1-0.3-0.1-0.7-0.1-1c0-0.8,0-1.6-0.1-2.4c0-0.8-0.1-1.6-0.3-2.3c-0.1-0.6-0.2-1.2-0.2-1.8
	s-0.1-1.2-0.1-1.8c0-0.3-0.1-0.5-0.1-0.8c0-0.3,0-0.5,0-0.8c0-2.2-0.2-4.4-0.4-6.6c0-0.3,0-0.6-0.1-0.9s0-0.6,0-0.9
	c0-0.3,0-0.7-0.1-1c0-0.3-0.1-0.7-0.1-1l-0.4-4.6l-0.2-2.7c-0.2-1.3-0.2-2.6,0.1-3.9c0-0.2,0.1-0.5,0.3-0.6c0.2-0.2,0.4-0.3,0.7-0.4
	h0.3c0.8-0.1,1.6-0.1,2.4-0.2l2.4-0.1h0.2c0.5-0.1,0.9-0.2,1.4-0.1l1.4,0.1c0.6,0,1.1,0.1,1.6,0.2l1.6,0.4c0.4,0.1,0.7,0.3,1,0.6
	c0.5,0.4,0.9,1,1.3,1.6c0.6,1.2,1.1,2.5,1.4,3.8c0.1,0.5,0.2,1,0.3,1.5c0.1,0.5,0.2,1,0.2,1.5c0.1,0.7,0.2,1.5,0.2,2.2
	c0,0.7,0,1.5,0,2.3c0,0.9-0.2,1.7-0.5,2.5c-0.3,0.7-0.7,1.4-1.2,2.1c-0.5,0.6-1.1,1.1-1.8,1.5c-0.2,0.1-0.4,0.2-0.6,0.2
	c-0.2,0-0.5,0.1-0.7,0.2l-0.6,0.1c-0.2,0-0.4,0.1-0.6,0.2c-0.5,0.1-1,0.2-1.5,0.2c-0.3,0-0.6,0-0.9,0l-1,0.1c-0.1,0-0.2,0-0.3,0
	L113.3,271.6z M108.6,262.4c0,0.4,0,0.7,0.1,1.1c0,0.3,0.1,0.7,0.2,1.1c0.1-0.2,0.2-0.3,0.2-0.4V263c0-0.4-0.1-0.8-0.3-1.1
	L108.6,262.4z M109.3,271.6L109.3,271.6L109.3,271.6c0.1-0.1,0.1-0.3,0.1-0.4c0-0.1,0-0.3,0.1-0.4c0.1-0.4,0-0.8-0.3-1.1l-0.1,0.1
	L109.3,271.6z M112.2,277.2c0-0.6,0-1.1-0.1-1.7c0-0.5-0.1-0.9-0.3-1.4c-0.1,0.1-0.2,0.2-0.2,0.3c0,0.9,0.1,1.8,0.3,2.7
	C112,277.2,112,277.2,112.2,277.2z M112.8,262.8c0.1,0.3,0.2,0.7,0.2,1.1c0,0.4,0.1,0.9,0.3,1.3c0.1,0.2,0.2,0.4,0.4,0.6l0.5,0.4
	c0.3,0.2,0.7,0.2,1,0c0.1,0,0.1,0,0.2,0s0.1,0,0.2,0c0.4-0.1,0.8-0.3,1.2-0.6c0.3-0.3,0.6-0.7,0.8-1.1c0.3-0.7,0.5-1.4,0.5-2.1
	c0-0.7,0-1.4-0.2-2.1c0-0.5-0.1-0.9-0.3-1.4c-0.1-0.6-0.4-1.2-0.7-1.7c-0.4-0.5-0.8-0.9-1.4-1.2c-0.4-0.2-0.8-0.3-1.3-0.2l-0.3,0.1
	c-0.1,0-0.2,0.1-0.2,0.1c-0.2,0.3-0.4,0.5-0.6,0.8c-0.2,0.3-0.3,0.6-0.2,0.9c0,0.1,0,0.3,0,0.4c0,0.1,0,0.3-0.1,0.4
	c-0.1,0.7-0.1,1.4-0.1,2.1C112.6,261.2,112.7,262,112.8,262.8z M117,269c0.1,0.2,0.2,0.2,0.3,0.2l0.2-0.3
	C117.4,268.8,117.2,268.8,117,269C117,269,117,269,117,269z M118.9,255c0.1,0,0.1,0,0.2-0.1l-0.2-1.3c0-0.1-0.1-0.2-0.1-0.2
	l-0.9-0.7c0,0.3,0,0.4,0.1,0.4L118.9,255z"/>
<path class="st1" d="M228,262.9c0,0.1,0,0.3,0,0.4c0,0.1,0,0.3,0,0.4c0,0.5,0,0.9,0.1,1.4c0.1,0.5,0.1,0.9,0.1,1.4
	c0,0.4,0.1,0.7,0.1,1.1c0,0.4,0,0.7,0.1,1.1c0,0.7,0.1,1.4,0.1,2.1s0.1,1.4,0.2,2.1c0,0.4,0,0.7,0.1,1.1c0,0.4,0.1,0.7,0.2,1.1
	c0.1,0.2,0.1,0.5,0.1,0.8c0,0.6-0.4,1.1-1,1.1c0,0,0,0,0,0l-3,0.2c-0.1,0-0.2,0-0.4,0.1l-0.3,0c-0.2,0-0.5-0.1-0.5-0.4l-0.1-0.3
	c0-0.3-0.1-0.7-0.1-1c-0.1-0.3-0.1-0.7-0.1-1c0-0.8,0-1.6-0.1-2.4c0-0.8-0.1-1.6-0.3-2.3c-0.1-0.6-0.1-1.2-0.2-1.8s-0.1-1.2-0.1-1.8
	c0-0.3,0-0.5-0.1-0.8s0-0.5,0-0.8c0-2.2-0.2-4.4-0.4-6.6c0-0.3,0-0.6-0.1-0.9s0-0.6-0.1-0.9c0-0.3,0-0.7-0.1-1c0-0.3-0.1-0.7-0.1-1
	l-0.4-4.6l-0.3-2.7c-0.2-1.3-0.2-2.6,0.1-3.9c0-0.2,0.1-0.5,0.3-0.6c0.2-0.2,0.4-0.3,0.6-0.4h0.3l2.4-0.2c0.8-0.1,1.6-0.1,2.4-0.1
	h0.1c0.5-0.1,0.9-0.2,1.4-0.1l1.4,0.1c0.6,0,1.1,0.1,1.6,0.2l1.6,0.4c0.4,0.1,0.7,0.3,1,0.6c0.5,0.4,0.9,1,1.3,1.6
	c0.6,1.2,1.1,2.5,1.4,3.8c0.1,0.5,0.2,1,0.3,1.5c0.1,0.5,0.2,1,0.2,1.5c0.1,0.7,0.2,1.5,0.2,2.2c0,0.7,0,1.5,0,2.3
	c0,0.9-0.2,1.7-0.5,2.5c-0.3,0.7-0.7,1.4-1.2,2.1c-0.5,0.6-1.1,1.1-1.9,1.5c-0.2,0.1-0.4,0.2-0.6,0.2c-0.2,0-0.5,0.1-0.7,0.2
	c-0.2,0-0.4,0.1-0.6,0.1c-0.2,0-0.4,0.1-0.6,0.2c-0.5,0.1-1,0.2-1.5,0.2c-0.3,0-0.6,0-0.9,0l-1,0.1c-0.1,0-0.2,0-0.3,0L228,262.9z
	 M223.3,253.6c0,0.4,0,0.7,0.1,1.1c0.1,0.4,0.1,0.7,0.2,1.1c0.1-0.1,0.1-0.2,0.2-0.4c0-0.4,0-0.8,0-1.1c0-0.4-0.1-0.8-0.3-1.1
	L223.3,253.6z M224,262.9L224,262.9C224,262.9,224,262.9,224,262.9c0.1-0.1,0.1-0.3,0.2-0.4c0-0.1,0-0.3,0.1-0.4
	c0.1-0.4,0-0.8-0.3-1.1l-0.1,0.1L224,262.9z M226.9,268.5c0-0.6,0-1.1-0.1-1.7c0-0.5-0.1-0.9-0.3-1.4c-0.1,0.2-0.2,0.2-0.2,0.3
	c0,0.9,0.1,1.8,0.3,2.7C226.7,268.4,226.7,268.5,226.9,268.5L226.9,268.5z M227.5,254c0.1,0.3,0.2,0.7,0.2,1.1
	c0,0.5,0.1,0.9,0.3,1.3c0.1,0.2,0.2,0.4,0.4,0.6l0.5,0.4c0.3,0.2,0.7,0.2,1,0c0.1,0,0.1,0,0.2,0c0.1,0,0.1,0,0.2,0
	c0.4-0.1,0.8-0.3,1.2-0.6c0.4-0.3,0.6-0.7,0.8-1.1c0.3-0.7,0.5-1.4,0.5-2.1c0-0.7,0-1.4-0.1-2.1c0-0.5-0.1-0.9-0.3-1.3
	c-0.1-0.6-0.4-1.2-0.7-1.7c-0.4-0.5-0.8-0.9-1.4-1.2c-0.4-0.2-0.9-0.3-1.3-0.2l-0.3,0.1c-0.1,0-0.2,0.1-0.3,0.1l-0.6,0.7
	c-0.2,0.3-0.3,0.6-0.2,0.9c0,0.1,0,0.3,0,0.4c0,0.1-0.1,0.3-0.1,0.4c-0.1,0.7-0.1,1.4-0.1,2.1C227.3,252.5,227.4,253.2,227.5,254
	L227.5,254z M231.7,260.3c0.1,0.2,0.2,0.2,0.3,0.2l0.2-0.3C232.1,260.1,231.9,260.1,231.7,260.3
	C231.7,260.2,231.7,260.2,231.7,260.3L231.7,260.3z M233.5,246.3c0.1,0,0.1,0,0.1-0.1l-0.2-1.3c0-0.1-0.1-0.2-0.1-0.3l-0.9-0.7
	c0,0.3,0.1,0.4,0.1,0.4L233.5,246.3z"/>
<path class="st1" d="M247.3,251.8c0,0.2,0,0.4,0,0.6c0,0.2,0,0.4,0,0.6c0,0.8,0,1.6,0.1,2.3s0.1,1.6,0.2,2.3c0,0.4,0.1,0.7,0.1,1.1
	s0,0.7,0.1,1.1c0,0.7,0.1,1.5,0.1,2.2c0.1,0.7,0.1,1.5,0.2,2.2c0,0.2,0,0.4,0,0.6c0,0.2,0,0.4,0,0.6c-1,0.6-2.2,0.8-3.3,0.8
	c-0.2,0-0.5,0-0.7,0l-0.7,0.1c-0.2,0-0.4,0-0.6-0.1c-0.1-0.2-0.2-0.4-0.2-0.6c-0.1-0.6-0.1-1.1-0.2-1.7c-0.1-0.6-0.1-1.1-0.2-1.7
	s-0.1-1.4-0.2-2.1s-0.1-1.4-0.2-2.1c0-0.3,0-0.6,0-0.8c0-0.3,0-0.6,0-0.9l-0.1-2.1c0-0.4-0.1-0.9-0.1-1.3s-0.1-0.8-0.1-1.3l-0.3-3
	c0-0.5-0.1-1-0.2-1.5s-0.1-1-0.2-1.6s-0.1-0.8-0.1-1.2s-0.1-0.8-0.1-1.2l-0.1-1.2c0-0.2,0-0.4,0-0.6c0-0.2,0.2-0.4,0.4-0.5
	c0.1,0,0.2-0.1,0.4-0.1c0.5-0.1,1.1-0.1,1.6-0.2c0.5-0.1,1.1-0.1,1.6,0h0.5c0.1,0,0.2,0,0.4,0c0.5,0.1,0.8,0.3,0.8,0.7
	s0.1,0.6,0.1,0.9l0.1,0.9c0.1,0.9,0.2,1.8,0.3,2.7s0.2,1.8,0.3,2.7c0.1,0.6,0.1,1.1,0.2,1.7S247.3,251.2,247.3,251.8z M248.8,270
	c0,0.3,0.1,0.7,0.1,1s0.1,0.6,0.1,1c0.1,0.6,0.1,1.1,0.1,1.7c0,0.2-0.1,0.4-0.1,0.7c-0.5,0.3-1.1,0.5-1.6,0.6
	c-0.6,0.1-1.1,0.1-1.7,0.1c-0.2,0-0.4,0-0.6,0c-0.2,0-0.5,0-0.7,0c-0.3,0-0.6,0-0.6-0.1c-0.1-0.2-0.2-0.4-0.2-0.6
	c-0.1-0.5-0.1-0.9-0.1-1.4c0-0.3,0-0.7,0-1.2c0-0.2,0-0.4-0.1-0.6c0-0.2,0-0.4,0-0.6l-0.1-0.5c0-0.3,0.2-0.5,0.5-0.5
	c0.1-0.1,0.2-0.1,0.3-0.1c0.5,0,1-0.1,1.5-0.2c0.5-0.1,1.1-0.1,1.6,0h0.4c0.1,0,0.3,0,0.4,0C248.4,269.3,248.7,269.6,248.8,270z
	 M243.8,257.5c0-0.1,0.1-0.2,0.1-0.3c0-0.1-0.1-0.1-0.1-0.3c0,0.2-0.1,0.3-0.1,0.5C243.6,257.4,243.6,257.5,243.8,257.5L243.8,257.5
	z M244.1,244c0-0.1,0-0.2-0.1-0.3c0-0.1-0.1-0.3-0.1-0.4l-0.2,0.1v2c0,0.1,0,0.1,0.1,0.1l0.1,0.2c0.1-0.1,0.2-0.3,0.2-0.3
	c0-0.2,0-0.5,0-0.7S244.1,244.3,244.1,244L244.1,244z M246.9,256c0,0.1,0,0-0.1-0.1l-0.1,0.2c0,0.4,0,0.7,0,1.1c0,0.4,0.1,0.7,0.4,1
	L246.9,256z"/>
<path class="st1" d="M250.6,240c0.7-0.4,1.5-0.5,2.2-0.5c0.2,0,0.4,0,0.6,0c0.2,0,0.4,0,0.6,0c0.3,0,0.5,0,0.8,0
	c0.3,0,0.5,0.1,0.8,0.2c0.3,0.4,0.4,0.9,0.4,1.4c0,0.5,0,0.9,0,1.4s0,0.9,0.1,1.4c0,0.4,0.1,0.7,0,1.1c0,0.3,0,0.7,0.1,1
	c0.1,1,0.2,1.9,0.2,2.9s0.1,1.9,0.1,2.9c0,0.7,0,1.4,0.1,2l0.2,2v0.1c0,0.8,0,1.5,0.1,2.2c0,0.7,0,1.5,0,2.2c0,0.3,0,0.6,0,0.9
	c0,0.3,0,0.6,0.1,0.9c0.1,0.4,0.1,0.8,0.1,1.2c0,0.4,0,0.8,0,1.2c0,0.2,0,0.4,0.1,0.5c0.1,0.3,0.1,0.5,0.2,0.9
	c0,0.3,0.1,0.5,0.1,0.8c0,0.2,0.1,0.3,0.1,0.5c0.2,0.5,0.5,1,1,1.3c0.2,0.1,0.4,0.2,0.6,0.2c0.2,0,0.4,0,0.6,0c0.3,0,0.6,0,1-0.1
	l1-0.1l1.8-0.3l0.9-0.1c0.3,0,0.6,0,0.9,0c0.3,0,0.6,0.1,0.9,0.3c0.1,0.3,0.2,0.5,0.3,0.8c0.1,0.3,0.1,0.5,0.1,0.8v1.4v0.3
	c0,0.1,0,0.3,0,0.5c0,0.6-0.6,1.1-1.2,1.1l-2.4,0.2c-0.8,0.1-1.6,0.2-2.4,0.3c-0.4,0.1-0.8,0.1-1.1,0.1l-1.1,0.1
	c-0.3,0-0.7,0.1-1,0.1l-1,0.2l-0.6,0.1l-0.6,0.1c-0.5,0.1-1,0-1.5-0.1c-0.6-0.1-1-0.5-1.1-1.1c0-0.2-0.1-0.4-0.1-0.6
	c0-0.2,0-0.4,0-0.6c0-0.5,0-1.1-0.1-1.6c-0.1-0.5-0.1-1.1-0.2-1.6s-0.1-1.1-0.1-1.6s-0.1-1.1-0.1-1.6v-0.3c0-0.1,0-0.2,0-0.3v-1.8
	l0-1.4c0-0.6,0-1.2-0.1-1.8c0-0.6-0.1-1.2-0.2-1.8l-0.2-1.7c0-0.5,0-1-0.1-1.5s-0.1-1-0.1-1.4l-0.1-1.4l-0.2-3.6l-0.2-4.8
	c0-0.4-0.1-0.9-0.1-1.3s-0.1-0.9-0.2-1.3c0-0.2,0-0.5,0-0.7C250.5,240.4,250.5,240.2,250.6,240z M252.2,241.5
	c-0.1,0.2-0.1,0.5-0.1,0.7c0,0.3,0,0.5-0.2,0.7c0,0.2,0.1,0.4,0.3,0.5C252.4,242.8,252.4,242.1,252.2,241.5L252.2,241.5z
	 M254.8,260.5c-0.2,0-0.3,0-0.3,0.1c0,0.1,0,0.2,0,0.2c-0.1,0.2-0.1,0.3,0,0.5c0,0.1,0,0.1,0,0.2c0,0.1,0.1,0.1,0.2,0.2
	c0-0.2,0-0.4,0-0.6C254.7,260.9,254.7,260.6,254.8,260.5L254.8,260.5z M254.3,251c0-0.2,0.1-0.4,0.1-0.6c0-0.2,0.1-0.3,0.1-0.5
	l-0.3-0.1C254.1,250.3,254.2,250.7,254.3,251L254.3,251z M255,263.5c0.2-0.2,0.2-0.4,0.2-0.7c-0.1-0.2-0.1-0.4-0.1-0.6
	C254.9,262.6,254.9,263.1,255,263.5z M256.7,270.5c-0.1,0.1-0.3,0.1-0.4,0.2l-0.3,0.1c-0.1,0-0.1,0.1-0.1,0.2c0,0.1,0.1,0.1,0.1,0.1
	c0,0,0,0,0,0c0.3,0,0.6-0.1,0.7-0.4L256.7,270.5z"/>
<path class="st1" d="M273.5,260.3c0.2,0.2,0.3,0.3,0.4,0.6c0.1,0.2,0.1,0.4,0.1,0.6c0,0.3,0.1,0.5,0.1,0.8s0.1,0.5,0.1,0.8
	c0,0.8,0.3,1.6,0.8,2.2c0.2,0.3,0.4,0.6,0.7,0.8c0.3,0.2,0.7,0.4,1.1,0.3c0.3,0,0.7,0,1,0c0.3,0,0.6-0.1,0.9-0.2
	c1-0.3,1.7-1.4,1.5-2.4c-0.1-0.6-0.3-1.3-0.6-1.8c-0.3-0.4-0.5-0.8-0.8-1.1c-0.3-0.3-0.5-0.6-0.8-0.9c-0.3-0.3-0.7-0.5-1-0.8
	c-0.4-0.2-0.7-0.5-1-0.8c-0.4-0.4-0.8-0.8-1.3-1.1c-0.5-0.3-0.9-0.7-1.3-1.1c-0.4-0.3-0.8-0.7-1.2-1.1s-0.8-0.7-1.1-1.1
	c-1.1-1.1-2-2.3-2.9-3.5c-0.2-0.4-0.5-0.8-0.6-1.3c-0.2-0.5-0.3-0.9-0.3-1.4c0-0.1,0-0.2,0-0.3c-0.1-0.4-0.2-0.8-0.2-1.2
	c0-0.4,0-0.8,0-1.2l0.1-0.5c0-0.2,0.1-0.4,0.1-0.5c0.1-0.4,0.2-0.9,0.3-1.3c0.1-0.4,0.3-0.9,0.5-1.3c0.1-0.2,0.2-0.3,0.4-0.5
	c0.1-0.1,0.2-0.3,0.4-0.5c0.3-0.4,0.7-0.8,1.1-1.1c0.4-0.3,0.8-0.6,1.3-0.9c0.2-0.2,0.5-0.3,0.8-0.4l0.8-0.3c0.7-0.2,1.3-0.3,2-0.5
	c0.7-0.1,1.4-0.2,2.1-0.3c1.7-0.1,3.5,0.3,4.9,1.2c0.2,0.1,0.3,0.2,0.4,0.3c0.6,0.6,1.1,1.3,1.5,2c0.4,0.7,0.7,1.5,0.8,2.4
	c0.1,0.5,0.2,1.1,0.3,1.6c0.1,0.5,0.1,1.1,0.1,1.6c0,0.2,0,0.4,0,0.6c0,0.2,0,0.4,0,0.6c0.1,0.7-0.4,1.3-1,1.4c-0.1,0-0.2,0-0.3,0
	l-1.6,0.1c-0.5,0-1.1,0-1.6,0.1c-0.3,0.1-0.6-0.1-0.7-0.3l-0.1-0.3c0-0.1,0-0.2,0-0.3l-0.7-3.1c-0.1-0.6-0.4-1-0.9-1.3
	c-0.4-0.3-0.9-0.4-1.4-0.4c-0.5,0-1,0.1-1.5,0.4c0,0.1-0.1,0.1-0.2,0.1c-0.5,0.2-0.9,0.6-1.1,1.1c-0.2,0.5-0.3,1-0.2,1.6
	c0,1.5,0.7,3,1.7,4c0.6,0.6,1.3,1.2,1.9,1.8s1.3,1.1,1.9,1.6c0,0,0.1,0,0.1,0l5,4.4c0.6,0.6,1.1,1.3,1.5,2c0.1,0.3,0.2,0.6,0.3,0.9
	c0.1,0.3,0.1,0.6,0.2,0.9c0.1,0.7,0.1,1.3,0.1,2c0,0.7-0.1,1.3-0.3,2c-0.2,1-0.7,2-1.3,2.9c-0.3,0.4-0.6,0.7-0.9,1
	c-0.2,0.2-0.4,0.3-0.6,0.5c-0.2,0.1-0.4,0.2-0.6,0.4c-0.2,0.1-0.3,0.2-0.5,0.3c-0.2,0.1-0.3,0.1-0.5,0.2c-1.1,0.5-2.4,0.8-3.6,0.9
	c-0.7,0.1-1.3,0-2-0.1c-0.6-0.1-1.3-0.3-2-0.5c-0.5-0.1-1-0.4-1.5-0.6c-0.4-0.3-0.9-0.6-1.3-0.9c-0.5-0.5-0.9-1-1.3-1.6
	c-0.2-0.5-0.4-0.9-0.6-1.4c-0.2-0.5-0.4-1-0.5-1.5c-0.1-0.4-0.2-0.8-0.3-1.2s-0.1-0.8-0.2-1.2c0-0.2-0.1-0.3-0.1-0.5
	c0-0.2-0.1-0.3-0.1-0.5c0-0.1,0-0.2,0-0.3c0-0.1,0-0.2,0-0.3c0-0.3,0.1-0.6,0.2-0.8c0.2-0.2,0.5-0.2,0.8-0.2l3.2-0.1L273.5,260.3z
	 M270.3,243.7c0.2-0.3,0.3-0.6,0.4-0.9c0.1-0.3,0.2-0.6,0.3-0.9c0-0.2,0.1-0.4,0-0.6c0,0,0-0.1,0-0.1L271,241
	c-0.1,0.2-0.3,0.5-0.4,0.7c-0.1,0.2-0.2,0.5-0.2,0.7c0,0.2-0.1,0.4-0.1,0.6C270.2,243.2,270.2,243.5,270.3,243.7L270.3,243.7z
	 M274.7,252.2c0.2,0.3,0.4,0.6,0.7,0.9l0.8,0.7h0.1c0,0,0.1,0,0.1,0c0,0,0,0,0.1,0s-0.1-0.1-0.1-0.1s0,0-0.1-0.1
	c0,0-0.1-0.1-0.1-0.1l-1.3-1.2c0,0-0.1,0-0.1,0C274.8,252.3,274.7,252.3,274.7,252.2L274.7,252.2z M275.8,239.9c0.2,0,0.5,0,0.7,0
	c0.2,0,0.5-0.2,0.7-0.3h-1.1C276,239.7,275.9,239.8,275.8,239.9L275.8,239.9z"/>
<path class="st1" d="M299.3,264.7l2.3-0.3c0.8-0.1,1.5-0.2,2.3-0.4h0.1c0.2-0.1,0.4,0,0.6,0.1c0.1,0.2,0.2,0.4,0.2,0.6
	c0,0.2,0,0.3,0.1,0.3c0.2,0.4,0.3,0.9,0.4,1.3c0,0.4,0,0.9,0,1.4c0,0.1,0,0.2,0,0.3c0,0.1,0,0.2,0.1,0.3c0,0.3-0.2,0.6-0.5,0.7
	c-0.2,0.1-0.3,0.1-0.5,0.1c-0.4,0.1-0.9,0.2-1.4,0.2l-1.4,0.1l-1.5,0.1l-1.6,0.2c-0.5,0.1-1.1,0.2-1.6,0.3c-1.2,0.2-2.5,0.4-3.7,0.6
	l-0.8,0.2c-0.3,0.1-0.6,0.1-0.8,0.1c-0.4,0-0.8,0-1.1-0.1c-0.2,0-0.3-0.2-0.3-0.4c0,0,0,0,0,0c0-0.2,0.1-0.5,0.1-0.7
	c0-0.2,0-0.3,0-0.4c0-0.1,0-0.3,0-0.4c0-0.3,0-0.6,0-0.9c-0.1-0.3-0.1-0.6-0.1-0.9c0-0.2,0-0.4,0-0.6c0-0.2,0-0.4,0-0.6
	c0-0.1,0-0.2,0-0.3v-0.3c0-0.8-0.1-1.6-0.3-2.4s-0.2-1.6-0.3-2.4c0-0.8-0.1-1.6-0.2-2.4l-0.3-2.3c-0.1-0.6-0.1-1.1-0.2-1.7
	s-0.1-1.1-0.1-1.7c0-0.9-0.1-1.7-0.2-2.6s-0.2-1.7-0.2-2.6c-0.1-0.9-0.2-1.8-0.4-2.7c-0.1-0.6-0.1-1.2-0.2-1.8s-0.1-1.2-0.2-1.8
	l-0.3-3.1c0-0.1-0.1-0.3-0.1-0.4c0-0.1,0-0.3,0-0.4c-0.1-0.1-0.1-0.3,0-0.4c0.1-0.1,0.1-0.2,0.2-0.4c0.2-0.5,0.8-0.9,1.4-0.8
	c1,0,2,0,2.9-0.1c1-0.1,1.9-0.2,2.9-0.3c0.4,0,0.8-0.1,1.2-0.1l1.2-0.1c0.2-0.1,0.4-0.1,0.6-0.1s0.4-0.1,0.6-0.1l1.7-0.3
	c0.6-0.1,1.1-0.1,1.7-0.2c0.3,0,0.7,0,1,0.1c0.1,0.1,0.2,0.4,0.3,1.1c0,0.2,0,0.4,0,0.6s0,0.4,0,0.7c-0.1,0.6-0.1,1.3,0,1.9
	c0,0.6-0.2,0.9-0.9,1c-0.5,0.1-1,0.1-1.6,0.1c-0.6,0.1-1.3,0.1-1.9,0c-0.5,0-1.1,0-1.6,0.1c-0.5,0.1-1,0.2-1.6,0.2
	c-0.5,0-1,0.3-1.3,0.8c-0.2,0.3-0.3,0.7-0.4,1.1c-0.1,0.3-0.2,0.7-0.1,1.1c0,0.2,0,0.4,0,0.6c0,0.2,0,0.4,0,0.5c0,0.3,0,0.6,0,0.9
	c0,0.3,0,0.6,0.1,0.9s0,0.5,0.1,0.8c0,0.3,0.1,0.5,0.1,0.8c0,0.3,0.1,0.7,0.2,1c0.2,0.6,0.7,1,1.4,1l1.3,0.1c0.4,0,0.9,0,1.3-0.1
	c0.3-0.1,0.7-0.1,1-0.1l0.7-0.1c0.2,0,0.5-0.1,0.7-0.2c0.2-0.1,0.3-0.1,0.5-0.1c0.5,0,1,0.2,1.1,0.7c0.1,0.3,0.2,0.6,0.3,0.8
	c0.1,0.3,0.1,0.6,0.1,0.9c0,0.2,0,0.5,0,0.7l0.1,0.7c0.1,0.6-0.3,1.2-0.9,1.4c-0.1,0-0.2,0-0.3,0H301c-0.7-0.1-1.5,0-2.2,0.1
	c-0.8,0.1-1.5,0.2-2.3,0.2c-0.9,0-1.6,0.7-1.7,1.5c0,0.2-0.1,0.4-0.1,0.6c0,0.2,0,0.4,0,0.6v1.3c0,0.7,0.1,1.3,0.2,2
	c0.1,0.6,0.2,1.3,0.2,1.9c0,0.2,0,0.3,0,0.5c0,0.1,0,0.3,0.1,0.5c0,0.5,0.4,0.9,0.9,1c0.4,0.1,0.8,0.2,1.2,0.1l2.1-0.4L299.3,264.7z
	 M289.1,240.4c0,0-0.1,0-0.1,0c-0.2,0.3-0.1,0.6,0.2,0.7L289.1,240.4z M291.2,239c0,0.1-0.1,0.2-0.1,0.4c0,0.1,0.1,0.2,0.1,0.4
	C291.6,239.4,291.5,239.1,291.2,239z M292.7,268.2L292.7,268.2L292.7,268.2L292.7,268.2z M293.9,268.6
	C293.8,268.7,293.8,268.7,293.9,268.6c-0.1,0-0.1,0-0.1,0v0.1v0.1l0,0C293.7,268.8,293.8,268.7,293.9,268.6L293.9,268.6z
	 M294.4,253.8L294.4,253.8l0.1-0.1v-0.1L294.4,253.8z M295.5,266c0.2,0,0.4,0,0.6,0c0.1,0,0.3-0.1,0.4-0.1c-0.2-0.1-0.4-0.1-0.5,0
	C295.8,266,295.6,266,295.5,266z M297.3,266.5c-0.3,0-0.5,0-0.8,0c-0.3,0-0.5,0.2-0.8,0.3c0.3,0,0.6,0,0.9-0.1
	C296.9,266.8,297.1,266.7,297.3,266.5L297.3,266.5z M297.1,266l0.1-0.2v-0.1c0,0-0.1,0.1-0.1,0.1c0,0,0,0,0,0L297.1,266z
	 M298.2,238.8c-0.2-0.1-0.4-0.2-0.4-0.1c-0.2,0.1-0.3,0.2-0.4,0.3L298.2,238.8z M299.3,238.5h0.2l0-0.1
	C299.5,238.5,299.4,238.5,299.3,238.5L299.3,238.5z"/>
<path class="st1" d="M330.3,267.3c-0.3,0.1-0.6,0.1-0.9,0.1c-0.3,0-0.7,0-1,0l-2.5,0.2c-0.3-0.2-0.5-0.4-0.7-0.6
	c-0.2-0.2-0.4-0.5-0.5-0.8c-0.4-0.9-0.8-1.7-1.3-2.5c-0.5-0.8-1-1.6-1.5-2.4c-0.3-0.4-0.6-0.9-0.9-1.3c-0.3-0.5-0.5-0.9-0.8-1.4
	c-0.1-0.2-0.3-0.4-0.4-0.6c-0.2-0.2-0.3-0.4-0.5-0.6l-0.1-0.2l-0.2-0.2l-3.3-5.5l-0.9-1.6c-0.1-0.3-0.3-0.6-0.5-0.8
	c-0.2-0.3-0.5-0.5-0.7-0.7l-0.3-0.2c-0.3-0.1-0.5,0-0.6,0.2c-0.1,0.1-0.1,0.2-0.1,0.3c0,0.1,0,0.3-0.1,0.4v0.3
	c0,0.6,0.1,1.1,0.2,1.7s0.1,1.1,0.2,1.7s0.1,1.3,0.2,1.9s0.1,1.3,0.2,1.9c0,0.1,0,0.3,0,0.4c0,0.1,0,0.3,0,0.4l0.1,1.3
	c0,0.3,0,0.5,0.1,0.8c0,0.3,0,0.5,0,0.8c0,0.4,0.1,0.8,0.1,1.1s0,0.8,0.1,1.1c0.1,0.7,0.2,1.5,0.3,2.2c0.1,0.7,0.1,1.5,0.1,2.3v0.3
	c0,0.1,0,0.3,0,0.4c0,0.1,0,0.2-0.1,0.3c-0.2,0.3-0.5,0.5-0.9,0.6l-0.8,0.1l-0.8,0.1l-0.9,0H310c-0.2,0-0.3,0-0.5,0h-0.5
	c-0.2-0.6-0.3-1.1-0.4-1.6c-0.1-0.6-0.1-1.1,0-1.7c0.1-0.3,0.1-0.7,0-1c0-0.4-0.1-0.7-0.1-1.1c0-0.4,0-0.8-0.1-1.2
	c0-0.4-0.1-0.8-0.1-1.2c-0.1-0.6-0.1-1.1-0.2-1.7s-0.1-1.1-0.1-1.7c0-0.4-0.1-0.8-0.1-1.2s0-0.8-0.1-1.2l-0.2-2.2
	c0-0.3-0.1-0.7-0.1-1s-0.1-0.7-0.1-1l-0.3-3.3c0-0.4,0-0.8,0-1.1s0-0.8-0.1-1.1s-0.1-0.9-0.1-1.4s-0.1-0.9-0.1-1.4l-0.1-1.5
	l-0.1-1.4c0-0.2,0-0.5,0-0.7s0-0.5,0-0.7l-0.3-2.8l-0.1-0.9c0-0.2,0.1-0.4,0.4-0.5c0.2-0.1,0.4-0.2,0.6-0.3c0.2-0.1,0.5-0.1,0.7-0.1
	c0.4,0,0.8,0,1.1,0c0.4,0,0.8-0.1,1.2-0.1c0.4-0.1,0.8,0,1,0.4c0.4,0.4,0.7,0.8,0.9,1.3l1.7,3l0.7,1.2c0.2,0.4,0.5,0.8,0.7,1.2
	c0.2,0.4,0.5,0.8,0.7,1.1c0.5,0.7,0.9,1.5,1.4,2.3s0.9,1.5,1.4,2.3l2,3c0.1,0.2,0.1,0.3,0.1,0.2c0.2,0.4,0.4,0.9,0.7,1.3
	c0.3,0.4,0.6,0.8,0.8,1.3c0.3,0.5,0.6,0.9,1.1,1.2c0.4,0.3,0.8,0.2,1-0.3c0.2-0.5,0.3-1,0.3-1.6c-0.1-0.6-0.1-1.1-0.1-1.7
	c0-0.6-0.1-1.1-0.2-1.7c-0.1-0.5-0.1-0.9-0.1-1.4c0-0.5-0.1-0.9-0.1-1.4s-0.1-1-0.1-1.5s-0.1-1-0.2-1.4c-0.1-0.6-0.1-1.2-0.1-1.9
	c0-0.6,0-1.2-0.1-1.8c0-0.8-0.1-1.5-0.2-2.3s-0.1-1.5-0.2-2.2c0-0.2,0-0.4,0-0.6c0-0.2,0-0.4,0-0.6c0-0.2,0.1-0.4,0.3-0.4
	c0,0,0,0,0,0l0.5-0.1l0.3-0.1c0.3-0.1,0.5-0.1,0.8-0.1l0.8-0.1c0.2,0,0.5,0,0.7,0c0.2,0,0.4,0,0.6,0.1c0.3,0.1,0.5,0.3,0.6,0.6
	l0.2,0.8c0.1,0.6,0.2,1.1,0.2,1.7c0,0.6,0,1.1,0,1.7c0.1,1,0.1,1.9,0.2,2.8s0.1,1.9,0.2,2.8c0,0.4,0.1,0.9,0.1,1.3s0,0.8,0.1,1.3
	l0.3,4.4c0.1,0.5,0.2,1,0.2,1.5c0,0.5,0,1,0.1,1.5c0.1,0.5,0.2,1,0.2,1.5c0,0.5,0.1,1,0.1,1.5v0.4c0.2,0.9,0.3,1.8,0.4,2.7
	c0.1,0.9,0.2,1.8,0.3,2.8c0.1,0.7,0.2,1.5,0.2,2.2s0.1,1.5,0.2,2.3l0,0.6C330.8,266.9,330.6,267.2,330.3,267.3z M308.1,246
	c0.1-0.2,0.2-0.4,0.2-0.6c0.1-0.2,0.1-0.5,0-0.7c0-0.3,0-0.6,0-0.9c0-0.4-0.1-0.7-0.3-1c-0.1,0.5-0.1,1-0.1,1.5
	C307.9,244.8,308,245.4,308.1,246z M310,263c0.2-0.4,0.3-0.9,0.3-1.3c0-0.5,0-0.9-0.1-1.3l-0.2-0.1c0,0-0.1,0-0.1,0.1
	c0,0,0,0.1,0,0.1c0,0,0,0,0,0.1c0,0.4,0,0.8,0,1.2C309.9,262.1,309.9,262.5,310,263L310,263z M315.2,248.2c0,0.1,0,0.2,0,0.4
	c0,0,0.1,0,0.3,0C315.3,248.5,315.2,248.4,315.2,248.2c-0.1-0.1-0.1-0.3-0.1-0.5c0-0.1,0-0.1-0.1-0.2c0-0.1-0.1-0.1-0.3,0l0.2,0.4
	C315,248,315.1,248.1,315.2,248.2L315.2,248.2z M318.2,251.8C318.1,251.8,318.1,251.7,318.2,251.8c0-0.1,0-0.1,0-0.2
	c0,0,0-0.1-0.1,0l0,0C318.1,251.7,318.1,251.7,318.2,251.8c0.1,0.4,0.3,0.9,0.6,1.3c0.2,0.4,0.5,0.8,0.8,1.1v-0.3l-1.2-2.1
	C318.4,251.8,318.3,251.7,318.2,251.8L318.2,251.8z M324.2,262.8c0-0.3-0.1-0.5-0.3-0.6L324.2,262.8z M324.4,234.6
	c-0.1,0.3-0.1,0.5-0.1,0.8c0,0.3,0,0.6,0.1,0.9c0,0.1,0,0.1,0.1,0.1c0,0,0.1,0,0.1,0c0.1-0.3,0.1-0.7,0-1
	C324.6,235.2,324.5,234.9,324.4,234.6L324.4,234.6z M325.8,250.2c0.1-0.2,0.2-0.4,0.3-0.7c0-0.1-0.1-0.2-0.3-0.4
	C325.6,249.5,325.6,249.9,325.8,250.2L325.8,250.2z M326.8,258.2c-0.1,0.3-0.2,0.4-0.2,0.3c0,0.4,0.1,0.8,0.3,1.1c0-0.2,0-0.4,0-0.6
	C326.9,258.8,326.8,258.5,326.8,258.2L326.8,258.2z"/>
</svg>
