<svg xmlns="http://www.w3.org/2000/svg" viewBox="0 0 2154.62 861.29"><defs><style>.cls-1,.cls-5{fill:none;}.cls-2,.cls-4{fill:#c38314;}.cls-2{fill-rule:evenodd;}.cls-3{fill:#fff;}.cls-5{stroke:#fff;stroke-miterlimit:10;}</style></defs><g id="Camada_2" data-name="Camada 2"><g id="Camada_1-2" data-name="Camada 1"><rect class="cls-1" width="2154.62" height="861.29"/><path class="cls-2" d="M220.27,777.22c-1.4,2.2-6.71,7.27-8.92,8.83l-10.76-10.51c-5.55-5.23-18.33-20-24-27.25-2.35-3-17.55-22.85-18.43-25.84,1.89-1.06,3.38-2.17,5.34-3.32s3.67-2.5,5.66-3c4.84,8.63,17.21,24.17,23.79,32.15l16.78,18.21C213.12,770.35,218.84,775.2,220.27,777.22Z"/><path class="cls-2" d="M161,215.54l1,5.62c16.15-4.19,29.59-13.44,40.55-24.84,4.56-4.74,9.11-13.8,11.67-20.69a103.39,103.39,0,0,0,5-19.44c.27-1.9.36-5.5,1.14-7.22-20.93.5-47.73,17.25-55.11,39.46C163.19,194.37,159.82,209.72,161,215.54Z"/><path class="cls-2" d="M141.36,255.66l-.35,1.53Zm0,0c.63-3,2.37-6.35,3.25-9.36,5.26-18,5.95-34.35-6.65-49.46-3.33-4-9.18-9.25-13.85-11.59l-5.76,9c-9.67,16.9-17,39.48-4.42,57.5,4.42,6.34,10.08,10.56,16.76,14.35,7.65,4.33,11.79,6.75,21.83,8.29,17.9,2.75,32.44-3.76,44-16,3.36-3.56,12.22-13.11,13.2-17.84-10.77-5.38-23.33-13.32-40.11-7.81-8.05,2.63-17.87,9.8-22.43,16C145.79,250.6,142.85,254.62,141.36,255.66Z"/><path class="cls-2" d="M148.26,693.85l.74,1.4Zm0,0-8.91-10.24c-10-10.26-24.07-19.48-39.11-18.26-7.51.62-15.95,2.41-21.23,5.37,2.54,9.8,16.25,28.34,24.8,34.93,12.77,9.82,28.73,12.82,46.25,4.45,7.26-3.47,12.16-5.9,18.31-11.6a60.63,60.63,0,0,0,6.89-8c13.16-16.68,7-43.58-.87-58.93-8.4.9-22.6,12.65-27.34,21.66-3.21,6.09-3.78,11.05-3.55,20.17C143.74,683.23,147.79,689.5,148.26,693.85Z"/><path class="cls-2" d="M113.8,317.22l.21.2s-.28-.13-.21-.2ZM76.32,289.78c.57,24.18,16,32.77,32.29,39.4,18.57,7.54,39.92,5,54.27-10.12,5.35-5.64,15.29-18.31,16.91-26.07-19-9.51-41-9-54.26,7.75-8.63,10.89-4.48,6.31-9.81,14.16a14.46,14.46,0,0,1-1.23,1.59c.19-3.25,1.41-7.43,2-11.26,2.25-15.55.7-28.21-8.53-39.89-3.93-5-14.59-14.08-21.22-15.46C81.87,259.56,76,275.31,76.32,289.78Z"/><path class="cls-2" d="M120,635l.84,1.36Zm0,0c-1.73-1.88-2.73-4.9-4.86-8s-3.22-4.81-5.32-7.48c-3.76-4.77-7.79-9.19-13-12.49C84.51,599.34,78.56,600,66,600.19c-5.52.11-7.06,1.25-11.28,1.7.61,5.66,5.49,16.81,7.82,21.55,13.55,27.49,37.63,36.45,67.32,23.12,17.44-7.84,29.58-23.33,29-44.3C158.51,591,157,585,154.66,576.15c-1.73.88-2.33.64-4.47,1.27-1.81.53-3.36,1.15-4.76,1.69a43.31,43.31,0,0,0-8.18,3.95c-17.68,11.4-19.67,22.09-19,40.72C118.39,628.35,119.76,631.06,120,635Z"/><path class="cls-2" d="M106.43,394.59c22.27-.53,36.4-10.2,45.56-29.89,2.1-4.51,6.15-12.71,6.43-17.38-9-.54-37.07-13.05-55.27,19.24-2.88,5.11-5.07,11.93-6.27,13.38l.33-15.59c-.29-12.53-5-24.52-11.18-31.07C80.12,327,69.66,319.8,60,317.79c-4.05,8.12-4.32,19.33-5.21,27.55-2,18.67,6.94,35.8,24.12,43.3,4.65,2,7.5,2.59,12.91,3.87C97.54,393.86,98.88,394.77,106.43,394.59Z"/><path class="cls-2" d="M100.79,573.89c-.1-.15-.21-.58-.24-.48s-.19-.38-.23-.48c-2.62-5.91-4.07-11.19-7.88-17.13s-6.53-9.93-11.72-14.56c-7.51-6.7-18.11-9.53-28.34-10.17-2.29-.15-3-.71-5.61-.43a47.18,47.18,0,0,1-6.48.78c2.9,27.1,16.66,57.67,48.8,56.91a59.3,59.3,0,0,0,12-1.69c5.08-1.07,1.8.66,10.46-2.47,25.68-9.27,33.43-27.06,32.76-55.23-.1-4.3-.83-5.14-.93-9.18-12.25.29-27.2,6.51-34.13,15.18a37.19,37.19,0,0,0-7.89,16.68C99.73,560.31,100.59,565.81,100.79,573.89Z"/><path class="cls-2" d="M41.52,404.63c.83,34.72,13.57,54.2,54.38,53.23,14.85-.35,28.6-7.82,35.13-16.3a59.27,59.27,0,0,0,9-16.31c1.81-4.85,5-14.92,4.85-21-11.54-.68-17.07-3.27-31.21,2.75C99.08,413.26,88.94,433.32,89.24,446l-.7,0C88,424.85,82.76,404.37,63,394.43c-4.66-2.34-13.39-6.14-19.75-6.13C42,391.13,41.41,400.14,41.52,404.63Z"/><path class="cls-2" d="M36.63,467.06C37.12,487.5,44,508.75,61,517.7c18.59,9.79,53.65,5.5,67.13-12.54a46.76,46.76,0,0,0,8.45-16.83c3.1-10.13,3.61-15.45,3.35-26.56-20.4.49-38.87,5.32-46.2,27.2a54.35,54.35,0,0,0-3,19.29c-2.49-1.73-1-1.74-3.19-9-5-16.67-11.73-27.54-27.58-34.91-7.18-3.34-14.26-4.6-23.49-4.38Z"/><path class="cls-2" d="M1934.35,777.22c1.4,2.2,6.71,7.27,8.92,8.83L1954,775.54c5.55-5.23,18.33-20,24-27.25,2.35-3,17.55-22.85,18.43-25.84-1.89-1.06-3.38-2.17-5.34-3.32s-3.67-2.5-5.66-3c-4.84,8.63-17.21,24.17-23.79,32.15l-16.78,18.21C1941.5,770.35,1935.78,775.2,1934.35,777.22Z"/><path class="cls-2" d="M1993.67,215.54l-1,5.62c-16.15-4.19-29.59-13.44-40.55-24.84-4.56-4.74-9.11-13.8-11.67-20.69a103.39,103.39,0,0,1-5-19.44c-.27-1.9-.36-5.5-1.14-7.22,20.93.5,47.73,17.25,55.11,39.46C1991.43,194.37,1994.8,209.72,1993.67,215.54Z"/><path class="cls-2" d="M2013.61,257.19l-.36-1.53Zm-6.15-8.45c-4.56-6.17-14.38-13.34-22.43-16-16.78-5.51-29.34,2.43-40.11,7.81,1,4.73,9.84,14.28,13.2,17.84,11.54,12.25,26.08,18.76,44,16,10-1.54,14.18-4,21.83-8.29,6.68-3.79,12.34-8,16.76-14.35,12.6-18,5.25-40.6-4.42-57.5l-5.76-9c-4.67,2.34-10.52,7.6-13.85,11.59-12.6,15.11-11.91,31.44-6.65,49.46.88,3,2.62,6.37,3.24,9.36C2011.77,254.62,2008.83,250.6,2007.46,248.74Z"/><path class="cls-2" d="M2005.62,695.25l.74-1.4Zm5.5-21.8c.23-9.12-.34-14.08-3.55-20.17-4.74-9-18.94-20.76-27.34-21.66-7.82,15.35-14,42.25-.87,58.93a60.63,60.63,0,0,0,6.89,8c6.15,5.7,11,8.13,18.31,11.6,17.52,8.37,33.48,5.37,46.25-4.45,8.55-6.59,22.26-25.13,24.8-34.93-5.28-3-13.72-4.75-21.23-5.37-15-1.22-29.15,8-39.11,18.26l-8.91,10.24C2006.83,689.5,2010.88,683.23,2011.12,673.45Z"/><path class="cls-2" d="M2040.82,317.22c.07.07-.2.19-.21.2l.21-.2Zm27.1-67.34c-6.63,1.38-17.29,10.49-21.22,15.46-9.23,11.68-10.78,24.34-8.54,39.89.56,3.83,1.78,8,2,11.26a14.46,14.46,0,0,1-1.23-1.59c-5.33-7.85-1.18-3.27-9.81-14.16-13.31-16.79-35.22-17.26-54.26-7.75,1.62,7.76,11.56,20.43,16.91,26.07,14.35,15.14,35.7,17.66,54.26,10.12,16.33-6.63,31.73-15.22,32.3-39.4C2078.65,275.31,2072.75,259.56,2067.92,249.88Z"/><path class="cls-2" d="M2033.83,636.4l.84-1.36Zm2.56-12.62c.65-18.63-1.34-29.32-19-40.72a43.31,43.31,0,0,0-8.18-3.95c-1.4-.54-3-1.16-4.76-1.69-2.14-.63-2.74-.39-4.47-1.27-2.29,8.87-3.85,14.87-4.17,26.11-.6,21,11.54,36.46,29,44.3,29.69,13.33,53.77,4.37,67.32-23.12,2.33-4.74,7.21-15.89,7.82-21.55-4.22-.45-5.76-1.59-11.28-1.7-12.57-.24-18.52-.85-30.78,6.92-5.21,3.3-9.24,7.72-13,12.49-2.1,2.67-3.29,4.57-5.32,7.48s-3.14,6.08-4.86,8C2034.86,631.06,2036.23,628.35,2036.39,623.78Z"/><path class="cls-2" d="M2048.19,394.59c-22.27-.53-36.4-10.2-45.56-29.89-2.1-4.51-6.15-12.71-6.43-17.38,9-.54,37.07-13.05,55.27,19.24,2.88,5.11,5.07,11.93,6.27,13.38l-.33-15.59c.29-12.53,5.05-24.52,11.18-31.07,5.91-6.31,16.37-13.48,26-15.49,4,8.12,4.32,19.33,5.21,27.55,2,18.67-7,35.8-24.12,43.3-4.65,2-7.5,2.59-12.91,3.87C2057.08,393.86,2055.74,394.77,2048.19,394.59Z"/><path class="cls-2" d="M2053.83,573.89c.1-.15.21-.58.24-.48s.19-.38.23-.48c2.62-5.91,4.07-11.19,7.88-17.13s6.53-9.93,11.72-14.56c7.51-6.7,18.11-9.53,28.34-10.17,2.29-.15,3-.71,5.61-.43a47.18,47.18,0,0,0,6.48.78c-2.91,27.1-16.66,57.67-48.8,56.91a59.3,59.3,0,0,1-12-1.69c-5.08-1.07-1.8.66-10.47-2.47-25.67-9.27-33.42-27.06-32.75-55.23.1-4.3.83-5.14.93-9.18,12.25.29,27.2,6.51,34.13,15.18a37.19,37.19,0,0,1,7.89,16.68C2054.88,560.31,2054,565.81,2053.83,573.89Z"/><path class="cls-2" d="M2113.1,404.63c-.83,34.72-13.57,54.2-54.38,53.23-14.85-.35-28.6-7.82-35.13-16.3a59.27,59.27,0,0,1-9-16.31c-1.81-4.85-5-14.92-4.85-21,11.54-.68,17.07-3.27,31.21,2.75,14.61,6.22,24.75,26.28,24.45,38.94l.7,0c.51-21.15,5.78-41.63,25.54-51.57,4.66-2.34,13.39-6.14,19.74-6.13C2112.64,391.13,2113.21,400.14,2113.1,404.63Z"/><path class="cls-2" d="M2118,467.06c-.49,20.44-7.34,41.69-24.34,50.64-18.59,9.79-53.65,5.5-67.13-12.54a46.76,46.76,0,0,1-8.45-16.83c-3.1-10.13-3.61-15.45-3.35-26.56,20.4.49,38.86,5.32,46.2,27.2a54.14,54.14,0,0,1,3,19.29c2.5-1.73,1-1.74,3.2-9,5-16.67,11.73-27.54,27.58-34.91,7.18-3.34,14.26-4.6,23.49-4.38Z"/><path class="cls-3" d="M291.4,425.85c0-14.4,0-53-2.12-65.26-1.7-8.47-8.06-17.79-15.69-21.61v-1.27h89.85c45.76,0,88.57-2.12,126.7,24.57s57.21,70.35,57.21,116.12c0,41.11-17.38,83.49-50,109.33-38.57,30.94-81,28.82-128.41,28.82H273.59v-1.27C294.35,602.14,291.4,578,291.4,556Zm78.39,145.36a71.46,71.46,0,0,0,22.89,3.39c26.69,0,43.64-8.06,57.63-31.36,11.44-19.5,14.83-42.38,14.83-64.84,0-43.65-15.25-95.77-67.38-95.77a156.41,156.41,0,0,0-28,3Z"/><path class="cls-3" d="M633.4,532.22,623.23,561c-3,8.47-7.63,21.61-7.63,30.51,0,11.86,7.63,17.37,15.26,23.73v1.27H544v-1.27c16.11-14.83,21.62-27.12,29.24-48.74l58.49-169.08c2.54-8.48,9.32-25,9.32-33.9,0-11.44-7.63-19.07-16.1-24.58v-1.27H728.76L808.84,556c10.17,27.12,12.29,36.87,36.45,59.33v1.27h-128v-1.27c9.75-6.36,17.37-12.29,17.37-25.85,0-7.21-.85-9.33-3.39-16.1l-14-41.11Zm40.68-122.89h-.42l-28,83.48h57.63Z"/><path class="cls-3" d="M958.55,556c0,22-3,46.19,17.8,59.33v1.27h-114v-1.27c20.77-13.14,17.8-37.29,17.8-59.33V398.31c0-22,3-46.19-17.8-59.33v-1.27H987.8c20.75,0,37.71-.42,56.78,9.74,25,13.56,37.71,36,37.71,64.42,0,31.78-22.45,55.09-50.42,66.95l50.42,84.34C1093.73,582.22,1106,600,1123,614l-58.48,3.81c-28.39,1.7-42-2.12-56.78-28.39L958.55,497Zm0-177.14v95.78c26.28-4.66,45.77-27.13,45.77-53.82,0-13.56-5.51-28-17-36-7.21-5.09-16.1-5.94-24.58-5.94Z"/><path class="cls-3" d="M1236.24,569.51c14,5.51,29.66,6.36,44.49,6.36,23.74,0,45.77-3.82,61.87-23.31h2.13l-17,64H1140v-1.27c20.77-13.14,17.8-36.87,17.8-58.91V397.89c0-22.05,3-46.2-17.8-58.91v-1.27H1308.7c6.36,0,13.14,0,17.8-2.12h1.27l17,66.45h-1.27c-11.44-19.92-52.56-22.8-73.33-22.8h-33.89v68.65H1310c5.94,0,11.88-.43,15.68-2.11h2.12V505.1h-2.12c-5.92-17-59.75-15.25-75.42-15.25h-14Z"/><path class="cls-3" d="M1458,568.66c13.56,6.36,29.24,7.21,44.49,7.21,23.32,0,41.53-4.66,60.18-18.65l-16.1,59.33H1361.8v-1.27c20.75-13.14,17.8-36.87,17.8-58.91V398.31c0-22,3-46.19-17.8-59.33v-1.27h114V339c-20.77,13.14-17.8,37.29-17.8,59.75Z"/><path class="cls-3" d="M1669.15,532.22,1659,561c-3,8.47-7.62,21.61-7.62,30.51,0,11.86,7.62,17.37,15.26,23.73v1.27h-86.88v-1.27c16.11-14.83,21.61-27.12,29.24-48.74l58.49-169.08c2.53-8.48,9.31-25,9.31-33.9,0-11.44-7.62-19.07-16.1-24.58v-1.27H1764.5L1844.59,556c10.17,27.12,12.29,36.87,36.44,59.33v1.27h-128v-1.27c9.74-6.36,17.37-12.29,17.37-25.85,0-7.21-.85-9.33-3.39-16.1l-14-41.11Zm40.68-122.89h-.42l-28,83.48h57.63Z"/><polygon class="cls-2" points="1077.31 75.24 1091.89 126.14 1147.32 126.11 1103.78 159.42 1120.58 208.42 1075.81 179.25 1034.04 208.42 1049.12 160.24 1007.29 126.11 1060.16 126.07 1077.31 75.24"/><polygon class="cls-2" points="966.17 130.19 974.73 160.09 1007.29 160.07 981.72 179.64 991.59 208.42 965.29 191.28 940.75 208.42 949.61 180.12 925.04 160.07 956.09 160.05 966.17 130.19"/><polygon class="cls-2" points="1188.45 130.19 1197.02 160.09 1229.58 160.07 1204 179.64 1213.87 208.42 1187.57 191.28 1163.03 208.42 1171.89 180.12 1147.32 160.07 1178.38 160.05 1188.45 130.19"/><path class="cls-4" d="M777.29,736a24.43,24.43,0,0,1-9.56-9.3,27.26,27.26,0,0,1,0-26.62,24.53,24.53,0,0,1,9.59-9.31A28.18,28.18,0,0,1,791,687.46a28.58,28.58,0,0,1,10.51,1.89,22,22,0,0,1,8.17,5.55l-3.43,3.43a20.34,20.34,0,0,0-15.11-6.06,22.25,22.25,0,0,0-11,2.77,20.24,20.24,0,0,0-7.77,7.59,22.14,22.14,0,0,0,0,21.59,20.17,20.17,0,0,0,7.77,7.59,22.16,22.16,0,0,0,11,2.78,20.1,20.1,0,0,0,15.11-6.13l3.43,3.42a22.09,22.09,0,0,1-8.21,5.59A28.22,28.22,0,0,1,791,739.4,27.84,27.84,0,0,1,777.29,736Z"/><path class="cls-4" d="M863.92,687.89V739H858.6V715.4h-32V739h-5.4V687.89h5.4v22.77h32V687.89Z"/><path class="cls-4" d="M889.13,736a24.72,24.72,0,0,1-9.64-9.3,27.22,27.22,0,0,1,0-26.56,24.72,24.72,0,0,1,9.64-9.3,29.59,29.59,0,0,1,27.43,0,24.87,24.87,0,0,1,9.59,9.31,27.06,27.06,0,0,1,0,26.62,24.77,24.77,0,0,1-9.59,9.3,29.55,29.55,0,0,1-27.43,0Zm24.69-4.16a19.74,19.74,0,0,0,7.66-7.59,22.58,22.58,0,0,0,0-21.67,19.79,19.79,0,0,0-7.66-7.58,23.29,23.29,0,0,0-21.92,0,19.93,19.93,0,0,0-7.74,7.58,22.29,22.29,0,0,0,0,21.67,19.88,19.88,0,0,0,7.74,7.59,23.29,23.29,0,0,0,21.92,0Z"/><path class="cls-4" d="M976.19,692.57c3.7,3.1,5.55,7.39,5.55,12.83s-1.85,9.72-5.55,12.81-8.8,4.63-15.32,4.63H947.16V739h-5.4V687.89h19.11Q970.65,687.89,976.19,692.57Zm-3.86,22.21q4-3.31,4-9.38t-4-9.52q-4-3.32-11.6-3.31H947.16V718.1h13.57Q968.32,718.1,972.33,714.78Z"/><path class="cls-4" d="M1027.85,692.57c3.69,3.1,5.54,7.39,5.54,12.83s-1.85,9.72-5.54,12.81-8.81,4.63-15.32,4.63H998.81V739h-5.4V687.89h19.12Q1022.3,687.89,1027.85,692.57ZM1024,714.78q4-3.31,4-9.38t-4-9.52q-4-3.32-11.6-3.31H998.81V718.1h13.57Q1020,718.1,1024,714.78Z"/><path class="cls-4" d="M1101,734.29V739h-36.11V687.89h35v4.68h-29.61v18.16h26.4v4.59h-26.4v19Z"/><path class="cls-4" d="M1145.08,739l-16.49-22.47L1112.18,739H1106l19.41-26.26-18.17-24.81h6.2l15.39,20.87,15.32-20.87H1150l-18.09,24.66L1151.36,739Z"/><path class="cls-4" d="M1193.6,692.57c3.69,3.1,5.54,7.39,5.54,12.83s-1.85,9.72-5.54,12.81-8.8,4.63-15.32,4.63h-13.72V739h-5.39V687.89h19.11Q1188.06,687.89,1193.6,692.57Zm-3.87,22.21q4-3.31,4-9.38t-4-9.52q-4-3.32-11.6-3.31h-13.57V718.1h13.57Q1185.72,718.1,1189.73,714.78Z"/><path class="cls-4" d="M1245.69,739,1234,722.55a38.35,38.35,0,0,1-4.08.22h-13.72V739h-5.39V687.89h19.11q9.78,0,15.32,4.68c3.7,3.1,5.54,7.39,5.54,12.83a15.8,15.8,0,0,1-11.67,16.05L1251.6,739Zm-4.31-24.14q4-3.36,4-9.42t-4-9.52q-4-3.32-11.6-3.31h-13.57v25.6h13.57Q1237.37,718.17,1241.38,714.82Z"/><path class="cls-4" d="M1299.67,734.29V739h-36.11V687.89h35v4.68H1269v18.16h26.41v4.59H1269v19Z"/><path class="cls-4" d="M1315.54,737.58a20,20,0,0,1-8.06-4.82l2.11-4.16a20.25,20.25,0,0,0,7.37,4.49,27,27,0,0,0,9.49,1.71q6.85,0,10.28-2.51a7.75,7.75,0,0,0,3.43-6.53,6.53,6.53,0,0,0-1.86-4.89,12.55,12.55,0,0,0-4.56-2.81,74.08,74.08,0,0,0-7.51-2.15,78.32,78.32,0,0,1-9.2-2.81,15.11,15.11,0,0,1-5.87-4.12,11,11,0,0,1-2.44-7.52,12.78,12.78,0,0,1,2-7,14,14,0,0,1,6.27-5.07,25.83,25.83,0,0,1,10.51-1.89,31,31,0,0,1,8.57,1.2,24.52,24.52,0,0,1,7.26,3.32l-1.82,4.3a25.29,25.29,0,0,0-6.86-3.17,25.76,25.76,0,0,0-7.15-1.06q-6.72,0-10.1,2.59a8.05,8.05,0,0,0-3.4,6.68,6.62,6.62,0,0,0,1.87,4.92,12.14,12.14,0,0,0,4.66,2.85q2.81,1,7.55,2.15a77.39,77.39,0,0,1,9.09,2.74,15,15,0,0,1,5.87,4.08,10.85,10.85,0,0,1,2.4,7.41,12.64,12.64,0,0,1-2.07,7,14,14,0,0,1-6.39,5,26.64,26.64,0,0,1-10.57,1.86A33,33,0,0,1,1315.54,737.58Z"/><path class="cls-4" d="M1360.41,737.58a20,20,0,0,1-8.06-4.82l2.11-4.16a20.25,20.25,0,0,0,7.37,4.49,27,27,0,0,0,9.49,1.71q6.86,0,10.28-2.51a7.75,7.75,0,0,0,3.43-6.53,6.53,6.53,0,0,0-1.86-4.89,12.55,12.55,0,0,0-4.56-2.81,74.08,74.08,0,0,0-7.51-2.15,78.32,78.32,0,0,1-9.2-2.81A15.11,15.11,0,0,1,1356,709a11,11,0,0,1-2.44-7.52,12.78,12.78,0,0,1,2-7,14,14,0,0,1,6.27-5.07,25.79,25.79,0,0,1,10.51-1.89,31,31,0,0,1,8.57,1.2,24.52,24.52,0,0,1,7.26,3.32l-1.82,4.3a25.29,25.29,0,0,0-6.86-3.17,25.81,25.81,0,0,0-7.15-1.06q-6.72,0-10.1,2.59a8,8,0,0,0-3.4,6.68,6.65,6.65,0,0,0,1.86,4.92,12.26,12.26,0,0,0,4.67,2.85q2.8,1,7.55,2.15a76.56,76.56,0,0,1,9.08,2.74,14.93,14.93,0,0,1,5.88,4.08,10.85,10.85,0,0,1,2.4,7.41,12.64,12.64,0,0,1-2.07,7,14,14,0,0,1-6.39,5,26.64,26.64,0,0,1-10.57,1.86A32.91,32.91,0,0,1,1360.41,737.58Z"/><line class="cls-5" x1="273.2" y1="713.43" x2="688.12" y2="713.43"/><line class="cls-5" x1="1466.96" y1="713.43" x2="1881.42" y2="713.43"/></g></g></svg>